<svg width="48" height="39" viewBox="0 0 48 39" fill="none" xmlns="http://www.w3.org/2000/svg">
<path d="M11.1447 31.2371C10.8479 32.549 10.3686 33.6326 9.70673 34.4877C9.05425 35.3545 8.24929 35.9929 7.29183 36.4029C6.33172 36.8246 5.24518 37.0354 4.03219 37.0354C3.65988 37.0354 3.31222 37.0061 2.9892 36.9475C2.65152 36.9007 2.32178 36.8187 2 36.7016L2.92265 34.1362C3.08018 34.1831 3.30378 34.23 3.59342 34.2768C3.88041 34.3354 4.11999 34.3647 4.31214 34.3647C4.90062 34.3647 5.4242 34.2534 5.88289 34.0308C6.34157 33.8083 6.732 33.4627 7.05418 32.9942C7.38572 32.5373 7.63232 31.9516 7.79398 31.2371L12.9815 8.30745C13.2916 6.93695 13.7988 5.78314 14.5032 4.84604C15.2076 3.90894 16.0705 3.20026 17.0919 2.72C18.1133 2.23973 19.2545 1.9996 20.5156 1.9996C20.9479 1.9996 21.3663 2.03474 21.7708 2.10503C22.1872 2.17531 22.5997 2.26316 23.0082 2.36859L22.0294 4.86361C21.8385 4.80504 21.6089 4.75819 21.3406 4.72305C21.0843 4.68791 20.7821 4.67034 20.4338 4.67034C19.7252 4.67034 19.0916 4.81676 18.5329 5.1096C17.9769 5.39073 17.5119 5.80071 17.1378 6.33954C16.7757 6.87838 16.5072 7.53435 16.3323 8.30745L11.1447 31.2371Z" fill="black"/>
<path d="M34.1447 31.2371C33.8479 32.549 33.3686 33.6326 32.7067 34.4877C32.0543 35.3545 31.2493 35.9929 30.2918 36.4029C29.3317 36.8246 28.2452 37.0354 27.0322 37.0354C26.6599 37.0354 26.3122 37.0061 25.9892 36.9475C25.6515 36.9007 25.3218 36.8187 25 36.7016L25.9226 34.1362C26.0802 34.1831 26.3038 34.23 26.5934 34.2768C26.8804 34.3354 27.12 34.3647 27.3121 34.3647C27.9006 34.3647 28.4242 34.2534 28.8829 34.0308C29.3416 33.8083 29.732 33.4627 30.0542 32.9942C30.3857 32.5373 30.6323 31.9516 30.794 31.2371L35.9815 8.30745C36.2916 6.93695 36.7988 5.78314 37.5032 4.84604C38.2076 3.90894 39.0705 3.20026 40.0919 2.72C41.1133 2.23973 42.2545 1.9996 43.5156 1.9996C43.9479 1.9996 44.3663 2.03474 44.7708 2.10503C45.1872 2.17531 45.5997 2.26316 46.0082 2.36859L45.0294 4.86361C44.8385 4.80504 44.6089 4.75819 44.3406 4.72305C44.0843 4.68791 43.7821 4.67034 43.4338 4.67034C42.7252 4.67034 42.0916 4.81676 41.5329 5.1096C40.9769 5.39073 40.5119 5.80071 40.1378 6.33954C39.7757 6.87838 39.5072 7.53435 39.3323 8.30745L34.1447 31.2371Z" fill="black"/>
<path d="M11.1447 31.2371C10.8479 32.549 10.3686 33.6326 9.70673 34.4877C9.05425 35.3545 8.24929 35.9929 7.29183 36.4029C6.33172 36.8246 5.24518 37.0354 4.03219 37.0354C3.65988 37.0354 3.31222 37.0061 2.9892 36.9475C2.65152 36.9007 2.32178 36.8187 2 36.7016L2.92265 34.1362C3.08018 34.1831 3.30378 34.23 3.59342 34.2768C3.88041 34.3354 4.11999 34.3647 4.31214 34.3647C4.90062 34.3647 5.4242 34.2534 5.88289 34.0308C6.34157 33.8083 6.732 33.4627 7.05418 32.9942C7.38572 32.5373 7.63232 31.9516 7.79398 31.2371L12.9815 8.30745C13.2916 6.93695 13.7988 5.78314 14.5032 4.84604C15.2076 3.90894 16.0705 3.20026 17.0919 2.72C18.1133 2.23973 19.2545 1.9996 20.5156 1.9996C20.9479 1.9996 21.3663 2.03474 21.7708 2.10503C22.1872 2.17531 22.5997 2.26316 23.0082 2.36859L22.0294 4.86361C21.8385 4.80504 21.6089 4.75819 21.3406 4.72305C21.0843 4.68791 20.7821 4.67034 20.4338 4.67034C19.7252 4.67034 19.0916 4.81676 18.5329 5.1096C17.9769 5.39073 17.5119 5.80071 17.1378 6.33954C16.7757 6.87838 16.5072 7.53435 16.3323 8.30745L11.1447 31.2371Z" stroke="black" stroke-width="2.02496" stroke-linecap="round"/>
<path d="M34.1447 31.2371C33.8479 32.549 33.3686 33.6326 32.7067 34.4877C32.0543 35.3545 31.2493 35.9929 30.2918 36.4029C29.3317 36.8246 28.2452 37.0354 27.0322 37.0354C26.6599 37.0354 26.3122 37.0061 25.9892 36.9475C25.6515 36.9007 25.3218 36.8187 25 36.7016L25.9226 34.1362C26.0802 34.1831 26.3038 34.23 26.5934 34.2768C26.8804 34.3354 27.12 34.3647 27.3121 34.3647C27.9006 34.3647 28.4242 34.2534 28.8829 34.0308C29.3416 33.8083 29.732 33.4627 30.0542 32.9942C30.3857 32.5373 30.6323 31.9516 30.794 31.2371L35.9815 8.30745C36.2916 6.93695 36.7988 5.78314 37.5032 4.84604C38.2076 3.90894 39.0705 3.20026 40.0919 2.72C41.1133 2.23973 42.2545 1.9996 43.5156 1.9996C43.9479 1.9996 44.3663 2.03474 44.7708 2.10503C45.1872 2.17531 45.5997 2.26316 46.0082 2.36859L45.0294 4.86361C44.8385 4.80504 44.6089 4.75819 44.3406 4.72305C44.0843 4.68791 43.7821 4.67034 43.4338 4.67034C42.7252 4.67034 42.0916 4.81676 41.5329 5.1096C40.9769 5.39073 40.5119 5.80071 40.1378 6.33954C39.7757 6.87838 39.5072 7.53435 39.3323 8.30745L34.1447 31.2371Z" stroke="black" stroke-width="2.02496" stroke-linecap="round"/>
<path d="M28.8375 6.37592L28.1983 12.0769H26.07L25.8233 6.37592H28.8375Z" fill="black" stroke="black" stroke-width="0.999014" stroke-linecap="round"/>
</svg>
