<?xml version="1.0" encoding="UTF-8"?>
<svg id="Layer_2" data-name="Layer 2" xmlns="http://www.w3.org/2000/svg" viewBox="0 0 669.32 1147.27">
  <defs>
    <style>
      .cls-1 {
        fill: none;
        stroke: #000;
        stroke-linecap: round;
        stroke-linejoin: round;
      }
    </style>
  </defs>
  <g id="Layer_1-2" data-name="Layer 1">
    <g id="ViewLayer_LineSet" data-name="ViewLayer LineSet">
      <g id="strokes">
        <path class="cls-1" d="M500.11,296.53v234.91h0v3.27"/>
        <path class="cls-1" d="M156.18,97.78l3.62,2.09,8.66,5,8.63,4.99,8.66,5,8.61,4.98,8.66,5,8.66,5,8.86,5.12,8.66,5,8.66,5,8.66,5,8.66,5,8.66,5,8.66,5,8.66,5,8.66,5,8.66,5,8.66,5,8.66,5,8.66,5,8.66,5,8.66,5,8.66,5,8.66,5,8.66,5,8.66,5,8.66,5,8.66,5,8.66,5,8.66,5,8.66,5,2.97,1.71,8.66,5,8.66,5,8.66,5,8.66,5,8.66,5,8.66,5,8.66,5,8.66,5,4.59,2.65,3.62,2.09,2.82-1.63.17-.1,8.66-5,5.65-3.26,3.61-2.09,2.99-1.73"/>
        <path class="cls-1" d="M524.01,307.79v-25.07l-3.62-2.09-8.66-5-8.66-5-8.66-5-8.66-5-8.66-5-8.66-5-8.66-5-8.66-5-8.66-5-8.66-5-8.66-5-8.66-5-8.66-5-8.66-5-8.66-5-8.66-5-8.66-5-8.66-5-8.66-5-8.66-5-8.66-5-8.66-5-8.66-5-8.66-5-8.66-5-8.66-5-8.66-5-8.66-5-8.66-5-8.66-5-8.66-5-8.66-5-8.66-5-8.66-5-8.66-5-8.66-5-8.66-5-8.66-5-7.68-4.44-3.62-2.09-2.99,1.73-7.23,4.18-8.66,5-2.03,1.17-2.99,1.73v238.18l.75,6.42,2.11,6.52,3.25,6.25,2.33,3.13,1.85,2.48,3.75,3.68,4.08,2.88h0l8.66,5,8.66,5,8.66,5,8.66,5,8.66,5,8.66,5,8.66,5,8.66,5,8.66,5,8.66,5,8.66,5,8.66,5,8.66,5,8.66,5,8.66,5,8.66,5,8.66,5,8.66,5,8.66,5,8.66,5,8.66,5,8.66,5,8.66,5,8.66,5,8.66,5,8.66,5,8.66,5,8.66,5,8.66,5,8.66,5,8.66,5,8.66,5,8.66,5,8.66,5,8.66,5,4.69,2.71"/>
        <path class="cls-1" d="M373.4,256.73l1,.58,1.99,1.15,8.66,5,8.66,5,.6.35,2.99,1.73,8.66,5,8.66,5,6.75,3.9,8.66,5,8.66,5,8.66,5,5.71,3.3v198.03h0v3.45h0v3.27"/>
        <path class="cls-1" d="M373.4,461.49l8.66,5,8.66,5,8.66,5,8.66,5,8.66,5,8.66,5,8.66,5,8.66,5,8.66,5,1.72,1"/>
        <path class="cls-1" d="M376.39,459.76l-.16.09h0l-2.83,1.63v-3.27h0v-201.48"/>
        <path class="cls-1" d="M453.05,504.06l-8.66-5-8.66-5-8.66-5-8.66-5-8.66-5-8.66-5-8.66-5-8.66-5-7.4-4.27v-3.27h0v-191"/>
        <path class="cls-1" d="M503.1,323.33v-24.35l1.64-.95,8.66-5,7.62-4.4v20.89"/>
        <path class="cls-1" d="M16.79,746.41l5.97,3.45,8.66,5,8.66,5,.6.35,8.69,5.02v-29.25l-8.69-5.02-.13-.08-2.26-1.31-7.77-4.49-6.14-3.55-7.6-4.39"/>
        <path class="cls-1" d="M73.82,378.99l2.33-.96,1.46-.6,4.59.22,5.19,2.13,8.66,5,8.66,5,8.66,5,8.66,5,8.66,5,8.66,5,8.66,5,8.66,5,8.66,5,8.66,5,8.66,5,8.66,5,8.66,5,8.66,5,8.66,5,8.66,5,8.66,5,8.66,5,8.66,5,5.22,3.02,2.64,1.53,8.66,5,.59.34.06.03,3.37,1.95,1.51.88,1.7.98,8.66,5,8.66,5,8.66,5,8.66,5,8.66,5,8.66,5,8.66,5,8.66,5,8.66,5,8.66,5,8.66,5,8.66,5,8.66,5,7.76,4.48,3.75,2.17,1.14.66,8.66,5,2.68,1.55,8.66,5,.53.3,2.78,1.6,8.66,5,.65.37,8.66,5,8.66,5,8.66,5,8.66,5,8.66,5,8.66,5,8.66,5,8.66,5,8.66,5,8.66,5,8.66,5,8.66,5,8.66,5,8.66,5,3.36,1.94,4.08,2.89,3.75,3.67,4.17,5.61,3.25,6.25,2.11,6.52.75,6.42v430.4l3.62,2.09,8.66,5,8.66,5,8.66,5,8.66,5,8.66,5,7.39,4.27,4.15,1.7,3.67.18,3.03-1.25,2.99-1.73,2.99-1.73,8.66-5,.3-.17,2.99-1.73,2.99-1.73,2.99-1.73,2.21-2.57,1.05-2.86.37-3.55v-600s0-10,0-10v-33.51l-3.62-2.09-3.62-2.09-4.15-3.09-3.68-4.07-2.86-4.48"/>
        <path class="cls-1" d="M650.9,489.58v-33.43l8.66-5,.3-.18,2.99-1.73,2.99-1.73,2.99-1.73v-37.61l-5.06-8.62-5.06-8.62-5.06-8.62-5.06-8.62-5.06-8.62-5.06-8.62-5.06-8.62-1.68-2.86-8.66-5-8.66-5-8.66-5-.27-.16-2.99,1.73-2.99,1.73-1.26.73-1.73,1-8.66,5-.3.17-2.99,1.73-2.99,1.73-3.62,6.26"/>
        <path class="cls-1" d="M644.93,422v714.54l-.37,3.55-1.05,2.86-2.21,2.57"/>
        <path class="cls-1" d="M62.05,64.28l2.99-1.73,2.99-1.73,8.66-5,.3-.17,2.99-1.73"/>
        <path class="cls-1" d="M85.94,29.58l-2.99,1.73-2.99,1.73-2.99,1.73-8.66,5-.3.17-2.99,1.73-2.99,1.73"/>
        <path class="cls-1" d="M576.14,1110.05l-.63-.37-8.66-5-8.66-5-8.66-5-8.66-5-8.66-5-8.66-5-8.66-5-8.66-5-8.66-5-8.66-5-8.66-5-8.66-5-8.66-5-8.66-5-8.66-5-8.66-5-8.66-5-8.66-5-8.66-5-8.66-5-8.66-5-8.66-5-8.66-5-8.66-5-8.66-5-8.66-5-8.66-5-8.66-5-8.66-5-8.66-5-8.66-5-8.66-5-8.66-5-8.66-5-8.66-5-8.66-5-8.66-5-8.66-5-8.66-5-8.66-5-8.66-5-8.66-5-8.66-5-8.66-5-8.66-5-8.66-5-8.66-5-8.66-5-8.66-5-8.66-5-8.66-5-8.66-5-8.66-5-8.66-5-8.66-5-8.66-5-8.66-5-6.09-3.52-3.62-2.09-2.99,1.73-3.62-2.09-8.66-5-8.66-5-8.66-5-8.66-5-8.66-5-7.39-4.27-3.26-2.31-3-2.94-3.34-4.48-2.6-5-1.69-5.22-.6-5.14V24.54l.37-3.55,1.05-2.86,2.21-2.58,3.03-1.25,3.68.18,4.15,1.71,8.66,5,8.66,5,8.66,5,8.66,5,8.81,5.09,3.62,2.09v20.89l3.62,2.09"/>
        <path class="cls-1" d="M500.11,321.6h0v206.39h0v3.45h0v3.27l-.46,4.44-1.31,3.57-2.11,2.45h0l-.66.77-3.79,1.56h-.12s-4.48-.22-4.48-.22l-5.19-2.13-8.66-5-8.66-5-8.66-5-8.66-5-8.66-5-8.66-5-8.66-5-8.66-5-8.66-5-8.66-5-8.66-5-8.66-5-8.66-5-8.66-5-8.66-5-8.66-5-8.66-5-8.66-5-8.66-5-8.66-5-8.66-5-8.66-5-8.66-5-8.66-5-8.66-5-8.66-5-8.66-5-8.66-5-8.66-5-8.66-5-8.66-5-8.66-5-8.66-5-8.66-5-8.66-5-4.69-2.71-8.66-5-8.66-5-8.66-5-8.66-5-8.66-5-8.66-5-8.66-5-8.66-5-8.66-5-8.66-5-3.93-2.27-4.08-2.88-3.75-3.68-4.17-5.6-3.25-6.25-2.11-6.52-.75-6.42V66.37l2.99-1.73"/>
        <path class="cls-1" d="M119.79,64.4l-2.99,1.73-7.86,4.54-.27.15-.83.48-1.85,1.07-1.13.65-.35.4-1.79,2.07-5.1,5.88-8.06-4.65-2.99-1.73-8.66-5-5.64-3.26-3.62-2.09v217.29l.75,6.42,2.11,6.52,3.25,6.25,4.17,5.61,3.75,3.68,4.08,2.88,8.66,5,8.66,5,8.66,5,8.66,5,8.66,5,8.66,5,8.66,5,8.66,5,8.59,4.96"/>
        <path class="cls-1" d="M76.15,378.03l-2.11,2.45-1.31,3.57-.46,4.44v30s0,10,0,10v390.4"/>
        <path class="cls-1" d="M510.97,327.88l-7.24-4.19-.63-.37h0l-2.99-1.73"/>
        <path class="cls-1" d="M89.56,43.48v-3.45l-3.62-2.09v-8.36l-3.62-2.09-8.66-5-8.66-5-8.66-5-8.66-5-8.81-5.09-4.15-1.71-3.68-.18-3.03,1.25-2.99,1.73-2.99,1.73-2.99,1.73-8.66,5-.3.17-2.99,1.73-2.99,1.73"/>
        <path class="cls-1" d="M169.85,89.88l-8.66-5-8.66-5-8.66-5-8.66-5-8.66-5-3.78-2.19-8.66-5-8.66-5-8.66-5-6.61-3.82-.63-.37-2.99-1.73"/>
        <path class="cls-1" d="M79.97,41.39l3.62,2.09,2.99,1.73.63.37,2.35,1.36,8.66,5,8.66,5,8.66,5,4.26,2.46"/>
        <path class="cls-1" d="M525.46,319.53l-1.45.83-8.66,4.99-4.37,2.52,2.99-1.73,2.99-1.73,7.06-4.08,1.9-1.1,2.99-1.73,2.99-1.73,2.99-1.73"/>
        <path class="cls-1" d="M506.54,301.15l-2.99,1.73-.45.26"/>
        <path class="cls-1" d="M517.4,307.43l-8.66-5-2.2-1.27-1.8-3.12"/>
        <path class="cls-1" d="M36.7,141.57v-20.89l2.99-1.73,3.06,1.77"/>
        <path class="cls-1" d="M577.95,349.86l-8.66-5-8.66-5-8.66-5-8.66-5-8.66-5-8.66-5-.55-.32,2.99-1.73,2.99-1.73,8.66-5,.3-.17,2.99-1.73,2.99-1.73,2.99-1.73"/>
        <path class="cls-1" d="M607.82,358.77l2.99-1.73,2.99-1.73,8.66-5,.3-.17,2.99-1.73,2.99-1.73,2.99-1.73"/>
        <path class="cls-1" d="M581.57,343.6l3.61,2.09,8.66,5,8.66,5,5.32,3.08,5.06,8.62,5.06,8.62,5.06,8.62,5.06,8.62,5.06,8.62,5.06,8.62,5.06,8.62,1.68,2.86,2.99-1.73,2.99-1.73,8.66-5,.3-.17,2.99-1.73,2.99-1.73,2.99-1.73"/>
        <path class="cls-1" d="M598.23,333.97l-8.66-5-8.66-5-8.66-5-8.66-5-8.66-5-5.59-3.23-8.66,4.99-5.82,3.35-7.24-4.18-3.62-2.09"/>
        <path class="cls-1" d="M69.29,820.62v-430.4l.46-4.44,1.31-3.57,2.77-3.22"/>
        <path class="cls-1" d="M108.95,70.67l-8.66-5-8.66-5-2.07-1.19-2.35-1.36-.63-.37-2.99-1.73-3.62-2.09v-12.54l2.99-1.73,2.99-1.73"/>
        <path class="cls-1" d="M17.97,106.4l-2.99,1.73"/>
        <path class="cls-1" d="M43.95,124.86l-1.2-4.14-2.28-7.89-.09-.3-2.77-9.61-2.77-9.61-2.77-9.61-1.7-5.9-.33-1.14-.57-1.96-3.98,9.18-3.98,9.18-3.98,9.18-2.55,5.89,3.6,2.08,3.65,2.1"/>
        <path class="cls-1" d="M22.22,133.2v-20.89l2.99-1.72"/>
        <path class="cls-1" d="M25.21,131.47v-20.89l-3.64-2.11-3.6-2.08,3.98-9.18,3.98-9.18,3.98-9.18.46-1.07"/>
        <path class="cls-1" d="M36.7,141.57l-8.66-5-5.82-3.36,2.99-1.73,8.66,5,2.84,1.64"/>
        <path class="cls-1" d="M36.7,120.67l2.99,1.73,4.25,2.46"/>
        <path class="cls-1" d="M16.79,717.16v29.25l1.49-.86,4.48-2.59,1.63.94.18.11,8.66,5,7.45,4.31,8.69,5.02"/>
        <path class="cls-1" d="M619.95,1067.33l-1.49.86-8.66,5-8.66,5-3.59,2.07-1.49.86"/>
        <path class="cls-1" d="M650.9,489.58l8.66-5,.3-.17,2.99-1.73,2.99-1.73,2.99-1.73"/>
        <path class="cls-1" d="M524.01,307.79l-2.99,1.73"/>
        <path class="cls-1" d="M89.56,40.03l-2.99,1.73"/>
        <path class="cls-1" d="M628.64,1072.35l-8.69-5.02v-1.64"/>
        <path class="cls-1" d="M596.05,1051.89l1,.57,2.99,1.73,8.66,5,8.66,5,2.59,1.5,8.69,5.02v29.25"/>
        <path class="cls-1" d="M628.64,1099.97l-8.66-5-8.66-5-8.66-5-6.61-3.82v-29.25"/>
        <path class="cls-1" d="M30.53,725.1v13.37l8.66,5,1.5.86,8.69,5.02"/>
        <path class="cls-1" d="M40.69,753.31v-8.97"/>
        <path class="cls-1" d="M156.18,102.69l-8.66-5-8.66-5-8.66-5-8.66-5-8.66-5-4.42-2.56-3.61-2.08"/>
        <path class="cls-1" d="M495.58,545.94h0"/>
      </g>
    </g>
  </g>
</svg>