<?xml version="1.0" encoding="UTF-8"?>
<svg id="Layer_2" data-name="Layer 2" xmlns="http://www.w3.org/2000/svg" viewBox="0 0 669.32 1147.27">
  <defs>
    <style>
      .cls-1 {
        fill: none;
        stroke: #000;
        stroke-linecap: round;
        stroke-linejoin: round;
      }
    </style>
  </defs>
  <g id="Layer_1-2" data-name="Layer 1">
    <g id="ViewLayer_LineSet" data-name="ViewLayer LineSet">
      <g id="strokes">
        <path class="cls-1" d="M503.1,298.98l-3.62-2.09-8.66-5-8.66-5-8.66-5-8.66-5-8.66-5-7.57-4.38-8.66-5-8.66-5-8.66-5-8.66-5-8.66-5-8.66-5-8.66-5-8.66-5-8.66-5-8.66-5-8.66-5-8.66-5-8.66-5-8.66-5-8.66-5-8.66-5-8.66-5-8.66-5-8.66-5-8.66-5-8.66-5-8.66-5-8.66-5-8.66-5-8.66-5-8.66-5-2.97-1.71-8.66-5-8.66-5-8.86-5.12-8.66-5-8.61-4.98-8.66-5-5.64-3.26-3.62-2.09"/>
        <path class="cls-1" d="M517.4,286.53l-8.66-5-8.66-5-8.66-5-8.66-5-8.66-5-8.66-5-8.66-5-8.66-5-8.66-5-8.66-5-8.66-5-8.66-5-8.66-5-8.66-5-8.66-5-8.66-5-8.66-5-8.66-5-8.66-5-8.66-5-8.66-5-8.66-5-8.66-5-8.66-5-8.66-5-8.66-5-8.66-5-8.66-5-8.66-5-8.66-5-8.66-5-8.66-5-8.66-5-8.66-5-8.66-5-8.66-5-8.66-5-8.66-5-7.68-4.44-.63-.37-2.99-1.73v234l.75,6.42,2.11,6.52,3.25,6.25,2.33,3.12,1.85,2.48,3.75,3.68,4.08,2.88h0s8.66,5,8.66,5l8.66,5,8.66,5,8.66,5,8.66,5,8.66,5,8.66,5,8.66,5,8.66,5,8.66,5,8.66,5,8.66,5,8.66,5,8.66,5,8.66,5,8.66,5,8.66,5,8.66,5,8.66,5,8.66,5,5.05,2.92,2.83,1.64,8.66,5,8.66,5,8.66,5,8.66,5,8.66,5,8.66,5,8.66,5,8.66,5,7.55,4.36,2.83,1.64,8.66,5,8.66,5,8.66,5,8.66,5,8.66,5,.94.54h0l2.81,1.62.17.07h0l5.02,2.06,4.59.22,3.79-1.56,2.99-1.73,2.77-3.22,1.31-3.57.46-4.44h0v-238.18l-3.62-2.09-8.66-5-8.66-5-8.66-5-8.66-5-8.66-5-8.66-5-8.66-5-8.66-5-8.66-5-8.66-5-8.66-5-8.66-5-8.66-5-8.66-5-8.66-5-8.66-5-8.66-5-8.66-5-8.66-5-8.66-5-8.66-5-8.66-5-8.66-5-8.66-5-8.66-5-8.66-5-8.66-5-8.66-5-8.66-5-8.66-5-8.66-5-8.66-5-8.66-5-8.66-5-8.66-5-8.66-5-8.66-5-8.66-5-7.68-4.44-3.62-2.09-2.99,1.73-7.23,4.18-8.66,5-2.03,1.17-2.99,1.73v238.18l.75,6.42,2.11,6.52,3.25,6.25,2.33,3.13,1.85,2.48,3.75,3.68,4.08,2.88h0l8.66,5,8.66,5,8.66,5,8.66,5,8.66,5,8.66,5,8.66,5,8.66,5,8.66,5,8.66,5,8.66,5,8.66,5,8.66,5,8.66,5,8.66,5,8.66,5,8.66,5,8.66,5,8.66,5,8.66,5,8.66,5,8.66,5,8.66,5,8.66,5,8.66,5,8.66,5,8.66,5,8.66,5,8.66,5,8.66,5,8.66,5,8.66,5,8.66,5,8.66,5,8.66,5,4.69,2.71,5.19,2.13,4.48.22h.12s3.79-1.55,3.79-1.55l2.99-1.73,2.77-3.22,1.31-3.57.44-4.29h0s.02-.15.02-.15v-3.27h0v-230.73l1.64-.95,8.66-5,7.62-4.4-3.61-2.09h0"/>
        <path class="cls-1" d="M500.11,296.53v234.91h0v3.27l-.46,4.44-1.31,3.57-2.77,3.22h0"/>
        <path class="cls-1" d="M180.07,83.98v238.18l.75,6.42,2.11,6.52,3.25,6.25,4.17,5.61,3.75,3.68,4.08,2.89h0l8.66,5,8.66,5,8.66,5,8.66,5,8.66,5,8.66,5,8.66,5,8.66,5,8.66,5,8.66,5,8.66,5,8.66,5,8.66,5,8.66,5,8.66,5,8.66,5,8.66,5,8.66,5,2.45,1.42,1.02.59,8.66,5,8.66,5,1.57.91,8.66,5,8.66,5,8.66,5,8.66,5,8.66,5,8.66,5,8.66,5,8.66,5,7.39,4.27,8.66,5,8.66,5,8.66,5,8.66,5,8.66,5,3.77,2.18,2.99,1.73h0l2.81,1.62,5.19,2.13,4.59.22,3.79-1.56h0"/>
        <path class="cls-1" d="M156.18,97.78l3.62,2.09,8.66,5,8.63,4.99,8.66,5,8.61,4.98,8.66,5,8.66,5,8.86,5.12,8.66,5,8.66,5,8.66,5,8.66,5,8.66,5,8.66,5,8.66,5,8.66,5,8.66,5,8.66,5,8.66,5,8.66,5,8.66,5,8.66,5,8.66,5,8.66,5,8.66,5,8.66,5,8.66,5,8.66,5,8.66,5,8.66,5,8.66,5,2.97,1.71,8.66,5,8.66,5,8.66,5,8.66,5,8.66,5,8.66,5,8.66,5,8.66,5,4.59,2.65,3.62,2.09,2.82-1.63.17-.1,8.66-5,5.65-3.26,3.61-2.09,2.99-1.73"/>
        <path class="cls-1" d="M394.31,244.65v204.75"/>
        <path class="cls-1" d="M473.96,495.43l-8.66-5-8.66-5-3.59-2.08-8.66-5-8.66-5-8.66-5-8.66-5-8.66-5-8.66-5-6.79-3.92,2.99-1.73"/>
        <path class="cls-1" d="M397.3,447.68v-204.75l-2.42,1.4-.57.33,2.99,1.73,8.66,5,8.66,5,5.04,2.91.57-.33,2.42-1.4v-16.71l-2.99,1.73,2.99,1.73,8.66,5,8.66,5,8.66,5v16.71l8.66,5,8.66,5,8.03,4.64v204.75l2.99-1.73-2.99-1.73-8.66-5-8.66-5-.6-.35-2.99-1.73-8.66-5-8.66-5-8.66-5-8.66-5-8.66-5-8.66-5-3.8-2.2"/>
        <path class="cls-1" d="M473.96,290.68l2.99-1.73"/>
        <path class="cls-1" d="M451.6,274.31l8.66,5,8.66,5,8.03,4.64v204.75"/>
        <path class="cls-1" d="M397.3,242.93l8.66,5,8.66,5,8.03,4.64"/>
        <path class="cls-1" d="M373.4,256.73l1,.58,1.99,1.15,8.66,5,8.66,5,.6.35,2.99,1.73,8.66,5,8.66,5,6.75,3.9,8.66,5,8.66,5,8.66,5,5.71,3.3v198.03h0v3.45h0v3.27l2.83-1.64h0l.16-.09-2.99-1.73-8.66-5-8.66-5-8.66-5-8.66-5-8.66-5-8.66-5-8.66-5-8.66-5-7.4-4.27v-3.27h0v-201.48l-1.99,1.15-1,.57"/>
        <path class="cls-1" d="M376.39,255.01l8.66,5,8.66,5,3.59,2.08,8.66,5,2.59,1.5,8.66,5,8.66,5,8.66,5,8.66,5,8.66,5,4.2,2.43"/>
        <path class="cls-1" d="M456.04,505.79v-204.75l-2.99,1.73"/>
        <path class="cls-1" d="M448.61,276.04l2.99-1.73v-16.71"/>
        <path class="cls-1" d="M448.61,259.32l2.99-1.73-8.66-5-8.66-5-8.66-5-2.99-1.73"/>
        <path class="cls-1" d="M177.08,89.88l-3.62,2.09-8.66,5-5.65,3.26v234l.02.2.73,6.22,2.11,6.52,3.25,6.25,4.17,5.61,3.75,3.67,4.08,2.89,8.66,5,8.66,5,8.66,5,8.66,5,8.66,5,8.66,5,8.66,5,8.66,5,8.66,5,8.66,5,8.66,5,8.66,5,8.66,5,8.66,5,8.66,5,8.66,5,8.66,5,8.66,5,8.66,5,8.66,5,8.66,5,8.66,5,8.66,5,8.66,5,8.66,5,8.66,5,8.66,5,8.66,5,8.66,5,8.66,5,8.66,5,8.66,5,8.66,5,8.66,5,8.66,5,4.69,2.71,5.18,2.13,4.59.22,1.46-.6,2.33-.96h0"/>
        <path class="cls-1" d="M419.65,242.58v16.71"/>
        <path class="cls-1" d="M521.02,288.63v234l-.46,4.44-1.31,3.57-2.11,2.45-.66.77h0"/>
        <path class="cls-1" d="M373.4,461.49l8.66,5,8.66,5,8.66,5,8.66,5,8.66,5,8.66,5,8.66,5,8.66,5,8.66,5,1.72,1"/>
        <path class="cls-1" d="M376.39,459.76l-.16.09h0l-2.83,1.63v-3.27h0v-201.48"/>
        <path class="cls-1" d="M223.52,125.79v16.71"/>
        <path class="cls-1" d="M220.53,144.23l.57-.33,2.42-1.4-2.99-1.73-8.66-5-8.66-5-8.86-5.12v-16.72l-2.99,1.73,2.99,1.73,8.66,5,8.66,5,8.86,5.12v16.71"/>
        <path class="cls-1" d="M220.53,127.52l2.99-1.73-8.66-5-8.66-5-8.66-5-3.19-1.84"/>
        <path class="cls-1" d="M191.37,110.67v16.72"/>
        <path class="cls-1" d="M220.53,144.23l-8.66-5-8.66-5-8.66-5-3.19-1.84.57-.33,2.42-1.4"/>
        <path class="cls-1" d="M216.13,861.94l7.2,6.94,7.2,6.94,7.2,6.94,5.68,5.47,7.63,6.46,7.63,6.46,7.63,6.46,5.13,4.34,8.05,5.93.18.13,8.05,5.93,8.05,5.93,4.18,3.08,8.46,5.33,8.46,5.33,8.46,5.33,3.36,2.12,8.85,4.65,8.85,4.65,8.85,4.65,2.19,1.15,9.22,3.86,9.22,3.86,1.83.77,8.23,3.45,9.56,2.95,9.56,2.95,8.91,2.75,9.82,1.89,9.82,1.89,7.65,1.47,9.98.69,9.98.69,6.37.44,9.98-.65,9.98-.65,5.18-.34,9.78-2.08,9.78-2.09,4.17-.89,9.35-3.56,9.34-3.56,3.44-1.31,8.67-4.99,8.43-4.85,2.99-1.72.26-.15,8.66-5,3.29-1.9,5.29-4.29,2.99-2.42,7.76-6.3,2.35-1.9,6.71-7.42,6.71-7.42,2.85-3.16,5.56-8.31,5.56-8.31,2.88-4.3,4.4-8.98,4.4-8.98,2.8-5.72,3.28-9.45,3.28-9.45,2.55-7.34,2.23-9.75,2.23-9.75.24-1.05,1.84-8.02,1.27-9.92,1.27-9.92,1.27-9.92.11-.87.4-9.99.4-9.99.4-9.99.1-2.45-.38-9.99-.38-9.99-.38-9.99-.15-3.95-1.11-9.94-1.11-9.94-1.11-9.94-.6-5.35-1.78-9.84-.05-.29-1.78-9.84-1.78-9.84-1.14-6.3-2.41-9.71-2.4-9.71-2.41-9.71-1.89-7.64-2.99-9.54-2.99-9.54-2.99-9.54-2.65-8.46-3.53-9.36-3.53-9.36-3.53-9.36-3.41-9.03-4.04-9.15-4.04-9.15-.33-.75-4.04-9.15-3.8-8.6-4.53-8.92-4.53-8.91-.56-1.1-4.53-8.91-4.23-8.32-5-8.66-5-8.66-5-8.66-5-8.66-.34-.6-5.45-8.38-5.45-8.38-5.45-8.38-5.46-8.38-.31-.48-4.37-5.99h0l-2.99-4.09h0l-5.9-8.08-5.9-8.08-4.57-6.26-1.55-1.89h0l-2.99-3.65h0l-6.34-7.74-6.34-7.74-6.34-7.74-1.59-1.94-2.57-2.8-2.99-3.25-6.77-7.36-6.77-7.36-4.38-4.76-2.84-3.09-.14-.14-7.2-6.94-7.2-6.94-7.2-6.94-5.54-5.33-4.54-3.85-7.63-6.46-5.19-4.39-7.63-6.46-3.03-2.57-.59-.44-2.99-2.2-8.05-5.93-8.05-5.93-3.81-2.81-2.99-2.2v192.48l1.49-.86.5-.29,1-.58-1-.58-1.99-1.15-8.66-5-3.29-1.9-2.99-1.73-8.66-5-8.66-5-8.66-5-8.66-5-8.99-5.2v-200.57l-1.49.86-8.66,5-.95.55-5.32,3.08-1.49.86,7,4.05,7.93,4.58,2.99,1.73,8.66,5,8.66,5,8.66,5,8.66,5,8.99,5.2v199.39h0v1.18l1.02-.59h0l.47-.27,1.49-.86-2.99-1.73-8.66-5-8.66-5-8.66-5-8.66-5-8.66-5-8.66-5-6.61-3.82v-192.48l4.02-2.32,7.93-4.58-8.12-3.4-9.22-3.86-9.14-3.83-9.56-2.95-9.56-2.95-8.91-2.75-9.82-1.89-9.82-1.89-7.65-1.47-9.98-.69-9.98-.69-6.37-.44-9.98.65-9.98.65-1.72.11-2.99.2-.46.03-9.78,2.08-7.68,1.64-2.99.64-3.29.7-9.34,3.56-9.35,3.56-3.44,1.31-8.67,4.99-8.66,4.99-3.02,1.74-8.66,5-3.29,1.9-7.76,6.3-1.14.93-2.99,2.42-6.49,5.27-6.71,7.42-4.72,5.23-2.99,3.3-1.85,2.04-5.56,8.31-5.56,8.31-2.88,4.3-4.4,8.98-4.4,8.98-2.8,5.72-3.28,9.45-3.28,9.45-2.55,7.34-2.23,9.75-2.23,9.75-.24,1.05-1.84,8.02-1.27,9.92-1.27,9.92-1.27,9.92-.11.87-.4,9.99-.4,9.99-.4,9.99-.1,2.45.38,9.99.38,9.99.38,9.99.15,3.95,1.11,9.94,1.11,9.94,1.11,9.94.6,5.35,1.78,9.84.05.3,1.78,9.84,1.78,9.84,1.14,6.3,2.41,9.71,2.41,9.71,2.41,9.71,1.9,7.64,2.99,9.54,2.99,9.54,2.99,9.54,2.65,8.46,3.53,9.36,3.53,9.36,3.53,9.36,3.41,9.03,4.04,9.15,1.42,3.22,2.99,6.76,4.04,9.15,3.77,8.52,4.53,8.91,4.53,8.91,4.53,8.91,4.53,8.92.26.51,3.21,5.56,1.03,1.78,5,8.66,5,8.66,5,8.66,1.1,1.91,5.45,8.38,5.45,8.38,5.45,8.38,5.45,8.38.31.48,5.9,8.08,5.9,8.08,5.9,8.08,6.03,8.26,6.34,7.74,6.34,7.74,6.34,7.74,6.12,7.47,6.77,7.36,6.77,7.36,6.77,7.36,6.01,6.53"/>
        <path class="cls-1" d="M437.98,630.64l.38,9.99.03.66-.4,9.99v.19s-1.24,9.62-1.24,9.62l-2.05,8.97-2.86,8.23-3.64,7.43-4.4,6.57-5.11,5.65-5.73,4.65-.04.03,2.99-1.73,2.99-1.73-5.94,3.42-.45.26-6.95,2.65-7.45,1.59-7.89.51-8.26-.57-8.57-1.65-8.8-2.71-8.95-3.75-4.86-2.55-4.17-2.19-.41-.26-8.46-5.33-.15-.1-8.05-5.93-.9-.66-7.63-6.46-1.17-.99-5.36-5.17-3.2-3.09-6.77-7.36-1.49-1.62-6.34-7.74-1.55-1.9-5.9-8.08-1.55-2.12-5.45-8.38-1.49-2.29-5-8.66-1.39-2.4-4.53-8.91-1.24-2.44-4.04-9.15-1.06-2.4-3.53-9.36-.86-2.29-2.99-9.54-.66-2.1-1.02-4.13-1.84-7.41-1.78-9.84-.27-1.5-1.11-9.94-.12-1.1-.39-10.06-.02-.6.18-4.5.23-5.68,1.23-9.62,2.05-8.97,2.86-8.23,3.64-7.43.7-1.05,1.67-2.49,2.03-3.03,5.11-5.65,5.73-4.65.04-.03-2.99,1.73-2.99,1.73,5.93-3.42.45-.26,6.95-2.65,7.45-1.59,7.89-.51,8.26.57,8.57,1.65,8.8,2.71,8.95,3.75,8.85,4.65.17.09,8.46,5.33.56.36,8.05,5.93.9.66,7.63,6.46,1.17.99,7.2,6.94,1.36,1.32,6.77,7.36,1.49,1.62,6.34,7.74,1.55,1.9,5.9,8.08,1.55,2.12,5.45,8.38,1.49,2.29,5,8.66,1.39,2.4,4.53,8.91,1.24,2.44,3.5,7.92,1.6,3.63.36.96,3.53,9.36.5,1.33,2.99,9.54.66,2.1,2.41,9.71.45,1.84,1.78,9.84.27,1.5,1.11,9.94.12,1.1"/>
        <path class="cls-1" d="M16.79,746.41l5.97,3.45,8.66,5,8.66,5,.6.35,8.69,5.02"/>
        <path class="cls-1" d="M579.76,1115.6l8.66,5,8.66,5,8.66,5,8.66,5,8.66,5,7.39,4.27,4.15,1.7,3.67.18,3.03-1.25,2.99-1.73,2.99-1.73,8.66-5,.3-.17,2.99-1.73,2.99-1.73,2.99-1.73,2.21-2.57,1.05-2.86.37-3.55v-600s0-10,0-10v-33.51l-3.62-2.09-3.62-2.09-4.15-3.09-3.68-4.07-2.86-4.48-.17-.27-2.21-5.13-.98-3.79-.07-.27-.37-3.98.6-4.44,1.68-3.27,2.6-2-2.99,1.73-2.99,1.73-1.08.62-1.9,1.1-8.66,5-.3.17-2.6,2-1.69,3.27-.6,4.44.37,3.98,1.05,4.07,2.21,5.13,3.03,4.75,3.68,4.07,4.15,3.09,1.27.73,2.35,1.36,3.62,2.09v-33.43l8.66-5,.3-.18,2.99-1.73,2.99-1.73,2.99-1.73v-37.61l-5.06-8.62-5.06-8.62-5.06-8.62-5.06-8.62-5.06-8.62-5.06-8.62-5.06-8.62-1.68-2.86-8.66-5-8.66-5-8.66-5-.27-.16-2.99,1.73-2.99,1.73-1.26.73-1.73,1-8.66,5-.3.17-2.99,1.73-2.99,1.73-3.62,6.26,2.99-1.73,2.99-1.73,1.26-.73,7.7-4.45,2.99-1.73,2.99-1.73,2.99-1.73-3.61-2.09-8.66-5-8.66-5-8.66-5-8.66-5-8.66-5-5.59-3.23-8.66,4.99-5.82,3.35-7.24-4.18-3.62-2.09h0l-2.99,1.73h0l-3.62-2.09-8.66-5-2.2-1.27-1.8-3.12-1.81-3.13-5-8.66-5-8.66-.87-1.51-8.66-5-8.66-5-8.66-5-8.66-5-8.66-5-8.66-5-8.66-5-8.66-5-8.66-5-8.66-5-8.66-5-8.66-5-8.66-5-8.66-5-8.66-5-8.66-5-8.66-5-8.66-5-8.66-5-8.66-5-8.66-5-8.66-5-8.66-5-8.66-5-8.66-5-8.66-5-8.66-5-8.66-5-8.66-5-8.66-5-8.66-5-8.66-5-8.66-5-8.66-5-8.66-5-8.94-5.17-2.99-1.73-3.62-2.09-3.62-2.09-8.66-5-8.66-5-8.66-5-8.66-5-8.66-5-3.78-2.19-8.66-5-8.66-5-8.66-5-6.61-3.82-.63-.37-2.99-1.73v229.82l.75,6.42,2.11,6.52,3.25,6.25,4.17,5.6,3.75,3.68,4.08,2.88,8.66,5,8.66,5,8.66,5,8.66,5,8.66,5,8.21,4.74,3.01,1.74,8.66,5,8.66,5,8.66,5,8.66,5,1.37.79,8.66,5,8.66,5,8.66,5,8.66,5,8.66,5,8.66,5,8.66,5,8.66,5,8.66,5,8.66,5,8.66,5,8.66,5,8.66,5,8.66,5,8.66,5,8.66,5,8.66,5,8.66,5,8.66,5,8.66,5,5.05,2.92,2.83,1.64,8.66,5,8.66,5,8.66,5,8.66,5,8.66,5,8.66,5,8.66,5,8.66,5,7.55,4.36,2.83,1.64,8.66,5,8.66,5,8.66,5,8.66,5,8.66,5,.94.54h0l2.81,1.62.17.07h0l5.02,2.06,4.59.22,3.79-1.56h0s2.99-1.73,2.99-1.73h0l-2.32.96h0l-1.46.6-4.59-.22-5.19-2.13-2.81-1.62h0l-2.99-1.73h0l-8.66-5-8.66-5-8.66-5-8.66-5-8.66-5-.79-.45-2.99-1.73-8.66-5-8.66-5-8.66-5-8.66-5-8.66-5-8.66-5-8.66-5-8.66-5-7.4-4.27-2.99-1.73-8.66-5-7.25-4.19-1.02-.59-8.66-5-8.66-5-8.66-5-8.66-5-8.66-5-8.66-5-8.58-4.95-1.02-.59-8.66-5-8.66-5-8.66-5-8.66-5-8.66-5-8.66-5-8.66-5-8.66-5-8.66-5-8.66-5-8.66-5-1.51-.87-8.66-5-4-2.31-8.66-5-8.66-5-8.66-5-.38-.22-2.99-1.73-8.66-5-8.66-5-8.66-5-8.66-5-8.66-5-5.22-3.02-4.08-2.89-3.75-3.68-4.17-5.61-3.25-6.25-2.11-6.52-.75-6.42V40.03l-3.62-2.09v-8.36l-3.62-2.09-8.66-5-8.66-5-8.66-5-8.66-5-8.81-5.09-4.15-1.71-3.68-.18-3.03,1.25-2.99,1.73-2.99,1.73-2.99,1.73-8.66,5-.3.17-2.99,1.73-2.99,1.73-2.21,2.58-1.05,2.86-.37,3.55v739.62l.6,5.14,1.69,5.22,2.6,5,3.34,4.48,3,2.94,3.26,2.31,8.66,5,8.66,5,8.66,5,8.66,5,8.66,5,7.39,4.27,3.62,2.09,2.99-1.73,3.62,2.09,8.66,5,8.66,5,8.66,5,8.66,5,8.66,5,8.66,5,8.66,5,8.66,5,8.66,5,8.66,5,8.66,5,8.66,5,8.66,5,8.66,5,8.66,5,8.66,5,8.66,5,8.66,5,8.66,5,8.66,5,8.66,5,8.66,5,8.66,5,8.66,5,8.66,5,8.66,5,8.66,5,8.66,5,8.66,5,8.66,5,8.66,5,8.66,5,8.66,5,8.66,5,8.66,5,8.66,5,8.66,5,8.66,5,8.66,5,8.66,5,8.66,5,8.66,5,8.66,5,8.66,5,8.66,5,8.66,5,8.66,5,8.66,5,8.66,5,8.66,5,8.66,5,8.66,5,8.66,5,8.66,5,8.66,5,8.66,5,8.66,5,6.09,3.52.63.37,2.99,1.73v-430.4l-.75-6.42-2.11-6.52-3.25-6.25-4.17-5.6-3.75-3.68-4.08-2.88-8.66-5-8.66-5-8.66-5-8.66-5-8.66-5-8.66-5-8.66-5-8.66-5-8.66-5-8.66-5-8.66-5-8.66-5-8.66-5-8.66-5-8.02-4.63-8.66-5-.95-.55-2.6-1.5-8.66-5-.95-.55-8.66-5-3.17-1.83-1.14-.66-3.87-2.24-8.66-5-8.66-5-8.66-5-8.66-5-8.66-5-8.66-5-8.66-5-8.66-5-8.66-5-8.66-5-8.66-5-8.66-5-8.66-5-2.71-1.56-1.08-.62-.07-.04-2.49-1.44-2.45-1.42-.05-.03-8.66-5-1.64-.95-2.34-1.35-8.66-5-8.66-5-8.66-5-8.66-5-8.66-5-8.66-5-8.66-5-8.66-5-8.66-5-8.66-5-8.66-5-8.66-5-8.66-5-8.66-5-8.66-5-8.66-5-8.66-5-8.66-5-8.66-5-4.2-2.43-5.19-2.13-4.59-.22-3.79,1.56-2.99,1.73,2.33-.96,1.46-.6,4.59.22,5.19,2.13,8.66,5,8.66,5,8.66,5,8.66,5,8.66,5,8.66,5,8.66,5,8.66,5,8.66,5,8.66,5,8.66,5,8.66,5,8.66,5,8.66,5,8.66,5,8.66,5,8.66,5,8.66,5,8.66,5,5.22,3.02,2.64,1.53,8.66,5,.59.34.06.03,3.37,1.95,1.51.88,1.7.98,8.66,5,8.66,5,8.66,5,8.66,5,8.66,5,8.66,5,8.66,5,8.66,5,8.66,5,8.66,5,8.66,5,8.66,5,8.66,5,7.76,4.48,3.75,2.17,1.14.66,8.66,5,2.68,1.55,8.66,5,.53.3,2.78,1.6,8.66,5,.65.37,8.66,5,8.66,5,8.66,5,8.66,5,8.66,5,8.66,5,8.66,5,8.66,5,8.66,5,8.66,5,8.66,5,8.66,5,8.66,5,8.66,5,3.36,1.94,4.08,2.89,3.75,3.67,4.17,5.61,3.25,6.25,2.11,6.52.75,6.42v430.4l3.62,2.09"/>
        <path class="cls-1" d="M297.92,408.88l-1.49.86-.47.27-1.02.59"/>
        <path class="cls-1" d="M294.93,210.03v200.57l8.66,5,8.66,5,8.66,5,8.66,5,8.66,5,8.66,5,8.66,5,.94.54"/>
        <path class="cls-1" d="M15.43,112.02l-8.66,5-.3.17,3.62,2.09,3.62,2.09,4.15,1.71,3.68.18.68-.28,2.17-.89.17-.07.64-.37,8.32-4.81,2.99-1.73,2.99-1.73.97-.56,2.02-1.17-2.11.87-.92.38-3.68-.18-4.15-1.7-3.62-2.09-.32-.18-3.3-1.91-2.83,1.63-.16.09-2.83,1.63-.16.09-2.99,1.73"/>
        <path class="cls-1" d="M650.9,456.15l-3.36-1.94-.26-.15-3.62-2.09-3.26-1.46-3-.53-3.34.63"/>
        <path class="cls-1" d="M644.93,422v714.54l-.37,3.55-1.05,2.86-2.21,2.57"/>
        <path class="cls-1" d="M24.4,73.41l-2.99,1.73-2.99,1.73-2.99,1.73-8.66,5-.3.17"/>
        <path class="cls-1" d="M62.05,64.28l2.99-1.73,2.99-1.73,8.66-5,.3-.17,2.99-1.73"/>
        <path class="cls-1" d="M85.94,29.58l-2.99,1.73-2.99,1.73-2.99,1.73-8.66,5-.3.17-2.99,1.73-2.99,1.73"/>
        <path class="cls-1" d="M4.13,15.55l3.03-1.25,3.68.18,4.15,1.71,8.66,5,8.66,5,8.66,5,8.66,5,8.81,5.09,3.62,2.09v20.89l3.62,2.09"/>
        <path class="cls-1" d="M495.58,545.94h0l2.99-1.73h0l2.77-3.22,1.31-3.57.44-4.29h0s.02-.15.02-.15v-3.27h0v-209.84l-2.99,1.73h0v206.39h0v3.45h0v3.27l-.46,4.44-1.31,3.57-2.11,2.45h0l-.66.77-3.79,1.56h-.12s-4.48-.22-4.48-.22l-5.19-2.13-8.66-5-8.66-5-8.66-5-8.66-5-8.66-5-8.66-5-8.66-5-8.66-5-8.66-5-8.66-5-8.66-5-8.66-5-8.66-5-8.66-5-8.66-5-8.66-5-8.66-5-8.66-5-8.66-5-8.66-5-8.66-5-8.66-5-8.66-5-8.66-5-8.66-5-8.66-5-8.66-5-8.66-5-8.66-5-8.66-5-8.66-5-8.66-5-8.66-5-8.66-5-8.66-5-4.69-2.71-8.66-5-8.66-5-8.66-5-8.66-5-8.66-5-8.66-5-8.66-5-8.66-5-8.66-5-8.66-5-3.93-2.27-4.08-2.88-3.75-3.68-4.17-5.6-3.25-6.25-2.11-6.52-.75-6.42V66.37l2.99-1.73"/>
        <path class="cls-1" d="M97.62,81.38l-8.06-4.65-2.99-1.73-8.66-5-5.64-3.26-3.62-2.09v217.29l.75,6.42,2.11,6.52,3.25,6.25,4.17,5.61,3.75,3.68,4.08,2.88,8.66,5,8.66,5,8.66,5,8.66,5,8.66,5,8.66,5,8.66,5,8.66,5,8.59,4.96,8.66,5,8.66,5,8.66,5,8.66,5,8.66,5,8.66,5,8.66,5,8.66,5,8.66,5,8.66,5,8.66,5,8.66,5,8.66,5,8.66,5,8.66,5,8.66,5,8.66,5,8.66,5,8.66,5,8.66,5,8.66,5,8.66,5,8.66,5,8.66,5,8.66,5,8.66,5,8.66,5,8.66,5,8.66,5,8.66,5,8.66,5,8.66,5,8.66,5,8.66,5,8.66,5,8.66,5,8.69,5.02,5.18,2.13,4.59.22,1.46-.6,2.33-.96"/>
        <path class="cls-1" d="M521.02,309.52v213.11l-.46,4.44-1.31,3.57-2.11,2.45-.66.77"/>
        <path class="cls-1" d="M76.81,377.27l-.66.77-2.11,2.45-1.31,3.57-.46,4.44v30s0,10,0,10v390.4"/>
        <path class="cls-1" d="M600.04,1099.7l3.62,2.09,8.66,5,8.66,5,8.66,5,8.66,5,8.66,5,7.39,4.27,4.15,1.7,3.68.18,3.03-1.25"/>
        <path class="cls-1" d="M597.05,1101.43l-3.62-2.09-8.66-5-5.64-3.26-2.99-1.73-8.66-5-8.66-5-8.66-5-8.66-5-8.66-5-8.66-5-8.66-5-8.66-5-8.66-5-8.66-5-8.66-5-8.66-5-8.66-5-8.66-5-8.66-5-8.66-5-8.66-5-8.66-5-8.66-5-8.66-5-8.66-5-8.66-5-7.94-4.59-8.66-5-8.66-5-8.66-5-8.66-5-8.66-5-8.66-5-8.66-5-8.66-5-8.66-5-8.66-5-8.66-5-2.81-1.62-8.66-5-8.66-5-8.66-5-8.66-5-8.66-5-8.66-5-8.66-5-8.66-5-8.66-5-8.66-5-8.66-5-8.66-5-8.66-5-8.66-5-8.66-5-8.66-5-8.66-5-8.66-5-8.66-5-8.66-5-8.66-5-4.02-2.33-3.62-2.09"/>
        <path class="cls-1" d="M90.2,804.36v4.18l2.99-1.73v-87.75l.75-5.55,2.11-4.09,1.24-.95,2.01-1.54-2.99,1.73-3.25,2.5-2.11,4.09-.75,5.55v83.57"/>
        <path class="cls-1" d="M510.97,327.88l-7.24-4.19-.63-.37h0l-2.99-1.73"/>
        <path class="cls-1" d="M79.97,41.39l3.62,2.09,2.99,1.73.63.37,2.35,1.36,8.66,5,8.66,5,8.66,5,4.26,2.46"/>
        <path class="cls-1" d="M525.46,319.53l-1.45.83-8.66,4.99-4.37,2.52,2.99-1.73,2.99-1.73,7.06-4.08,1.9-1.1,2.99-1.73,2.99-1.73,2.99-1.73"/>
        <path class="cls-1" d="M506.54,301.15l-2.99,1.73-.45.26-2.53,1.46-8.66,5-.3.17-2.99,1.73"/>
        <path class="cls-1" d="M96.3,708.65l.98-.18,3.19-.6,2.24.39,1.51.27,4.08,1.83,8.66,5,6.53,3.77,8.66,5,8.66,5,8.66,5,8.66,5,8.66,5,8.66,5,8.66,5,8.66,5,8.66,5,8.66,5,8.66,5,8.66,5,8.66,5,8.66,5,8.66,5,8.66,5,8.66,5,8.66,5,8.66,5,8.66,5,8.66,5,8.66,5,8.66,5,8.66,5,8.66,5,8.66,5,8.66,5,8.66,5,8.66,5,8.66,5,8.66,5,8.66,5,8.66,5,8.66,5,8.66,5,8.66,5,8.66,5,8.66,5,8.66,5,8.66,5,8.66,5,8.66,5,8.66,5,8.66,5,8.66,5,8.66,5,8.66,5,8.66,5,6.15,3.55,8.66,5,1.76,1.01,8.66,5,8.66,5,3.17,1.83,2.81,1.62.18.14,5,3.73,4.59,5.09,3.79,5.94,2.77,6.42,1.31,5.08.46,4.97v37.64s0,1.15,0,1.15v48.96l2.99-1.73v-87.75l-.46-4.97-1.31-5.08-2.77-6.42-3.79-5.94-4.59-5.09-5.19-3.86-2.8-1.62-2.99-1.73-8.66-5-8.66-5-.18-.1-8.66-5-1.45-.84-8.66-5-8.66-5-8.66-5-8.66-5-8.66-5-8.66-5-8.66-5-8.66-5-8.66-5-8.66-5-8.66-5-8.66-5-8.66-5-8.66-5-8.66-5-8.66-5-8.66-5-8.66-5-8.66-5-8.66-5-8.66-5-8.66-5-8.66-5-8.66-5-8.66-5-8.66-5-8.66-5-8.66-5-8.66-5-8.66-5-8.66-5-8.66-5-8.66-5-8.66-5-8.66-5-8.66-5-8.66-5-8.66-5-8.66-5-8.66-5-8.66-5-8.66-5-8.66-5-8.66-5-8.66-5-8.66-5-8.66-5-8.66-5-12.75-7.37-8.66-5-.24-.14-4.08-1.83-3.75-.66-1.78.33-2.39.45"/>
        <path class="cls-1" d="M39.69,118.95l3.06,1.77,4.18,2.42"/>
        <path class="cls-1" d="M474.14,286.42l2.99-1.73,8.66-5,.3-.17,2.99-1.73,2.99-1.73"/>
        <path class="cls-1" d="M119.79,64.4l-2.99,1.73-7.86,4.54-.27.15-.83.48-1.85,1.07-1.13.65-.35.4-1.79,2.07-5.1,5.88,2.99-1.73,4.65-2.69,2.69-1.55.52-.3,1.1-.64.03-.02,2.69-1.55.27-.15,6.55-7.55.69-.8"/>
        <path class="cls-1" d="M577.95,349.86l-8.66-5-8.66-5-8.66-5-8.66-5-8.66-5-8.66-5-.55-.32,2.99-1.73,2.99-1.73,8.66-5,.3-.17,2.99-1.73,2.99-1.73,2.99-1.73"/>
        <path class="cls-1" d="M607.82,358.77l2.99-1.73,2.99-1.73,8.66-5,.3-.17,2.99-1.73,2.99-1.73,2.99-1.73"/>
        <path class="cls-1" d="M581.57,343.6l3.61,2.09,8.66,5,8.66,5,5.32,3.08,5.06,8.62,5.06,8.62,5.06,8.62,5.06,8.62,5.06,8.62,5.06,8.62,5.06,8.62,1.68,2.86,2.99-1.73,2.99-1.73,8.66-5,.3-.17,2.99-1.73,2.99-1.73,2.99-1.73"/>
        <path class="cls-1" d="M96.9,70.99l.89,1.42.94.79,3.99,2.3,2.54,1.47,8.66,5,8.66,5,8.66,5,8.66,5,8.66,5,7.63,4.41,2.99,1.73,8.66,5,8.66,5,.6.35,2.99,1.73,8.66,5,2.64,1.52.57.33,8.66,5,8.66,5,8.66,5,2.62,1.51.57.33,8.66,5,8.66,5,8.66,5,8.66,5,8.66,5,8.66,5,8.66,5,8.66,5,8.66,5,8.66,5,8.66,5,8.66,5,8.66,5,8.66,5,8.66,5,8.66,5,8.66,5,8.66,5,8.66,5,9.27,5.36,2.42,1.4,8.66,5,8.66,5,5.04,2.91.57.33,8.66,5,8.66,5,4.41,2.55,1.17.28,2.69-1.55-1.17-.28-.67-.38-8.66-5-8.66-5-4.01-2.32-2.99-1.73-8.66-5-8.66-5-8.66-5-8.66-5-8.66-5-8.66-5-8.66-5-8.66-5-8.66-5-8.66-5-8.66-5-8.66-5-8.66-5-8.66-5-8.66-5-8.66-5-8.66-5-8.66-5-8.66-5-8.66-5-8.66-5-8.66-5-5.65-3.26-2.99-1.73-8.66-5-8.66-5-8.86-5.12-2.99-1.73-8.66-5-2.64-1.52-2.99-1.73-8.66-5-8.66-5-.6-.35-2.99-1.73-8.66-5-8.66-5-8.66-5-8.66-5-8.66-5-4.94-2.85-3.43-1.98-3.09-1.79-.94-.79-.89-1.42-.19-.87-.15-.69.21-.96.79-.57-2.69,1.55-.79.57-.21.96.34,1.55"/>
        <path class="cls-1" d="M443.12,271.81l.79-.57.21-.96-.15-.69-.19-.87-.89-1.42-.94-.79-8.66-5-8.66-5-1.99-1.15-8.66-5-8.66-5-8.66-5-8.66-5-8.66-5-8.66-5-8.66-5-8.66-5-8.66-5-8.66-5-8.66-5-8.66-5-8.66-5-8.66-5-8.66-5-8.66-5-8.66-5-8.66-5-8.66-5-8.66-5-8.66-5-8.66-5-8.66-5-2.97-1.71-8.66-5-8.66-5-8.86-5.12-8.66-5-8.61-4.98-8.66-5-8.66-5-3.59-2.08-8.66-5-8.66-5-8.66-5-8.66-5-8.66-5-3.29-1.9-3.61-2.08-6.59-3.81-.67-.38-1.17-.28"/>
        <path class="cls-1" d="M100.24,66.35l1.17.28,7.26,4.19,3.61,2.08,8.66,5,8.66,5,8.66,5,8.66,5,8.66,5,.6.35,8.66,5,8.66,5,3.59,2.07,8.66,5,8.61,4.98,8.66,5,8.66,5,8.86,5.12,8.66,5,8.66,5,8.66,5,8.66,5,8.66,5,8.66,5,8.66,5,8.66,5,8.66,5,8.66,5,8.66,5,8.66,5,8.66,5,8.66,5,8.66,5,8.66,5,8.66,5,8.66,5,8.66,5,8.66,5,8.66,5,8.66,5,8.66,5,2.97,1.71,8.66,5,8.66,5,4.68,2.7.94.79.89,1.42.34,1.55-.21.96-.79.57"/>
        <path class="cls-1" d="M56.84,790.17l3.77-2.18,8.67-5.01,2.49-1.44.5-.29.99-.58-.99-.58-2.99-1.73-8.66-5-5.28-3.05-8.66-5-6-3.47v-58.5l-1.49.86-.9.52h0s-7.76,4.49-7.76,4.49h0l-6.14,3.55-.14.08-1.49.86-4.48,2.59-1.49.86,7.6,4.39,6.14,3.55,7.77,4.49,2.26,1.31.13.08,8.69,5.02v29.25l1.49-.86,4.48-2.59-1.81-1.05-4.16-2.41-8.69-5.02-8.66-5-7.45-4.31-.18-.11-1.63-.94v29.25l8.66,5,8.66,5,8.66,5,6.61,3.82,1.49-.86"/>
        <path class="cls-1" d="M22.77,772.21l1.49-.86,8.66-5,6.27-3.63,1.49-.86"/>
        <path class="cls-1" d="M630.13,1099.1l8.66-5,6.14-3.55,6.11-3.53,1.49-.86-7.6-4.39-8.66-5-7.63-4.41-8.69-5.02v-29.25l-1.49.86-8.66,5-8.66,5-1.1.64-2.49,1.44-.5.29-1,.57,1,.57,2.99,1.73,8.66,5,8.66,5,2.59,1.5,8.69,5.02v29.25l1.49-.86"/>
        <path class="cls-1" d="M628.64,1070.72l1.49-.86,8.66-5,8.66-5,3.59-2.07,1.49-.86"/>
        <path class="cls-1" d="M524.01,520.9h0v-213.11"/>
        <path class="cls-1" d="M101.33,671.59l2.27-.94,2.76.14,3.11,1.28,8.66,5,8.66,5,8.66,5,8.66,5,8.66,5,8.66,5,8.66,5,8.66,5,8.66,5,8.66,5,8.66,5,8.66,5,8.66,5,3.29,1.9,2.45,1.73,2.25,2.21,2.5,3.36,1.95,3.75,1.26,3.91.45,3.85-.28,2.66-.78,2.14-1.66,1.93-2.09.86-.18.07-2.76-.14-3.11-1.28-8.66-5-8.66-5-8.66-5-8.66-5-8.66-5-8.66-5-8.66-5-8.66-5-8.66-5-8.66-5-8.66-5-8.66-5-7.83-4.53-.62-.36-1.14-.66-2.35-1.36-2.45-1.73-2.25-2.21-2.5-3.36-1.95-3.76-1.26-3.91-.45-3.85.28-2.66.25-.69.33-.91.2-.54.2-.24.86-1,.59-.69-1.79,1.03-.58.34-.31.18-.23.27-1.43,1.66-.79,2.14-.27,2.66.45,3.85,1.26,3.91,1.95,3.75,2.5,3.36,2.25,2.21,2.45,1.73,7.48,4.32,1.14.66.88.51,8.66,5,8.66,5,8.66,5,8.66,5,8.66,5,8.66,5,8.66,5,8.66,5,8.66,5,8.66,5,8.66,5,8.66,5,2.46,1.42,3.11,1.28,2.76.13,2.27-.94,2.69-1.55"/>
        <path class="cls-1" d="M230.78,766.11l.59-.69,1.06-1.24.79-2.14.28-2.66-.45-3.85-1.26-3.91-1.95-3.75-2.5-3.36-2.25-2.2-2.45-1.73-8.66-5-8.66-5-8.66-5-8.66-5-8.66-5-8.66-5-8.66-5-8.66-5-8.66-5-8.66-5-8.66-5-8.66-5-8.66-5-3.29-1.9-3.11-1.28-2.76-.13-.18.07-2.09.86"/>
        <path class="cls-1" d="M69.29,820.62v-430.4l.46-4.44,1.31-3.57,2.77-3.22"/>
        <path class="cls-1" d="M274.33,463.54l6.39-3.68,6.95-2.65,7.45-1.59,7.89-.51,8.27.57,8.57,1.65,8.8,2.71,8.95,3.75,8.85,4.65.17.09,8.46,5.33.56.36,8.05,5.93.9.66,7.63,6.46,1.17.99,7.2,6.94,1.37,1.32,6.77,7.36,1.49,1.62,6.34,7.74,1.55,1.9,5.9,8.08,1.55,2.12,5.45,8.38,1.49,2.29,5,8.66,1.39,2.4,4.53,8.91,1.24,2.44,4.04,9.15,1.06,2.41,2.03,5.37,1.67,4.41.7,1.86,2.99,9.54.66,2.1,2.41,9.71.45,1.83,1.78,9.84.27,1.5,1.11,9.94.12,1.1.38,9.99.03.66-.4,9.99v.19s-1.24,9.62-1.24,9.62l-2.05,8.97-2.86,8.23-3.65,7.43-4.4,6.57-5.11,5.65-5.77,4.68"/>
        <path class="cls-1" d="M268.36,466.99l-5.77,4.68-3.5,3.87-1.6,1.77-.36.54-4.03,6.03-3.65,7.43-2.86,8.23-2.05,8.97-1.23,9.62-.4,9.99v.19s.38,9.99.38,9.99l.03.66,1.11,9.94.12,1.1,1.78,9.84.27,1.5,2.41,9.71.45,1.83,2.99,9.54.66,2.1,3.53,9.36.86,2.29,4.04,9.15,1.06,2.4,4.53,8.91,1.24,2.44,5,8.66,1.39,2.4,5.45,8.38,1.49,2.29,5.9,8.08,1.55,2.12,6.34,7.73,1.55,1.9,6.77,7.36,1.49,1.62,7.2,6.94,1.37,1.32,7.63,6.46,1.17.99,8.05,5.93.9.66,8.46,5.33.56.36,8.85,4.65.17.09,8.95,3.75,8.8,2.71,8.57,1.65,8.27.57,7.89-.51,7.45-1.59,6.95-2.65,6.39-3.68"/>
        <path class="cls-1" d="M49.91,207.7l2.21-2.58,1.05-2.86.37-3.55-.59-5.07v-.06s-1.69-5.22-1.69-5.22l-2.6-5-3.34-4.48-2.23-2.18-.77-.76-3.26-2.31-4.15-1.71-3.67-.18-3.03,1.25-2.21,2.58-1.05,2.86-.37,3.55.6,5.13,1.68,5.22,2.6,5,3.34,4.48,3,2.94,3.26,2.31,4.15,1.71,3.67.18,3.03-1.25,8.66-5,7.1-4.1,2.17-1.25-2.17.89-.86.36-3.67-.18-4.15-1.7-3.26-2.31-.77-.76-2.23-2.19-3.34-4.48-2.6-5-1.68-5.22v-.06s-.6-5.07-.6-5.07l.37-3.55,1.05-2.86,2.21-2.58-8.66,5-8.66,5-.6.35"/>
        <path class="cls-1" d="M46.12,162.64l3.03-1.25,3.68.18,4.15,1.7,3.26,2.31,3,2.94,3.34,4.48,2.6,5,1.68,5.22.6,5.13-.37,3.55-1.03,2.8-2.23,2.63"/>
        <path class="cls-1" d="M112.55,72.75l-3.61-2.08-8.66-5-8.66-5-2.07-1.19-2.35-1.36-.63-.37-2.99-1.73-3.62-2.09v-12.54l2.99-1.73,2.99-1.73"/>
        <path class="cls-1" d="M605.47,329.79l-3.62,6.27"/>
        <path class="cls-1" d="M251.73,761.38l1.07-1.24.59-.69-2.69,1.55-1.66,1.93-.79,2.14-.28,2.66.45,3.85,1.26,3.91,1.95,3.75,2.5,3.36,2.25,2.21,2.45,1.73,8.66,5,8.66,5,8.66,5,2.99,1.73,3.11,1.28,2.76.13,2.27-.93,2.69-1.55-2.09.86-.18.07-2.76-.13-3.11-1.28-8.66-5-8.66-5-8.66-5-2.99-1.73-2.45-1.73-2.25-2.21-2.5-3.36-1.95-3.75-1.26-3.91-.45-3.85.27-2.66.79-2.14"/>
        <path class="cls-1" d="M253.39,759.45l2.27-.94,2.76.14,3.11,1.28,8.66,5,8.66,5,8.66,5,2.99,1.73,2.45,1.73,2.25,2.21,2.5,3.36,1.95,3.75,1.26,3.91.45,3.85-.28,2.66-.78,2.14-1.66,1.93"/>
        <path class="cls-1" d="M295.95,803.77l.59-.69,1.06-1.24.79-2.14.28-2.66-.45-3.85-1.26-3.91-1.95-3.75-2.5-3.36-2.25-2.21-2.45-1.73-8.66-5-8.66-5-8.66-5-2.99-1.73-3.11-1.28-2.76-.13-.18.07-2.09.86"/>
        <path class="cls-1" d="M524.01,520.9l-.46,4.44-1.31,3.57-2.77,3.22"/>
        <path class="cls-1" d="M17.97,106.4l-2.99,1.73"/>
        <path class="cls-1" d="M29.46,74.7l-3.98,9.18-3.98,9.18-3.98,9.18-2.55,5.89,3.6,2.08,3.65,2.1"/>
        <path class="cls-1" d="M22.22,133.2v-20.89l2.99-1.72"/>
        <path class="cls-1" d="M25.21,131.47v-20.89l-3.64-2.11-3.6-2.08,3.98-9.18,3.98-9.18,3.98-9.18.46-1.07,2.09-4.83"/>
        <path class="cls-1" d="M36.7,141.57l-8.66-5-5.82-3.36,2.99-1.73,8.66,5,2.84,1.64,2.99,1.73"/>
        <path class="cls-1" d="M36.7,141.57l2.99-1.73v-20.89l-2.99,1.73v20.89"/>
        <path class="cls-1" d="M36.7,120.67l2.99,1.73,4.25,2.46"/>
        <path class="cls-1" d="M43.95,124.86l2.99-1.73-2.77-9.61-.82-2.85-2.77-9.61-2.77-9.61-2.77-9.61-.68-2.35-1.89-6.53-2.99,1.73.57,1.96.33,1.14,2.77,9.61,2.77,9.61,2.77,9.61,1.7,5.9.09.3,2.28,7.89,1.2,4.14"/>
        <path class="cls-1" d="M558.91,966.99l7.77-6.3,7.77-6.3,1.7-1.38,1.15-.93,1.84-2.03,6.71-7.42,6.71-7.42,1.02-1.12,5.56-8.31,5.56-8.31,2.88-4.3,4.4-8.98,4.4-8.98,2.8-5.72,3.28-9.45,3.28-9.45,2.55-7.34,2.23-9.75,2.23-9.75,2.07-9.06,1.27-9.92,1.27-9.92,1.27-9.92.11-.88.4-9.99.4-9.99.4-9.99.1-2.45-.38-9.99-.38-9.99-.38-9.99-.15-3.95-1.11-9.94-1.11-9.94-1.11-9.94-.6-5.35-.95-5.26-1.78-9.84-1.78-9.84-1.78-9.84-.24-1.33-2.41-9.71-2.41-9.71-2.41-9.71-1.9-7.64-2.99-9.54-2.99-9.54-2.99-9.54-2.65-8.46-3.53-9.36-3.53-9.36-3.53-9.36-3.41-9.03-4.04-9.15-4.04-9.15-4.04-9.15-4.14-9.35-4.53-8.91-4.53-8.91-4.53-8.92-4.53-8.91-.26-.51-5-8.66-5-8.66-5-8.66-5-8.66-.34-.6-5.45-8.38-5.45-8.38-3.65-5.61-5.45-8.38-2.12-3.26-5.9-8.07-5.9-8.08-1.54-2.1h0l-2.99-4.09-5.9-8.08-1.51-2.07-6.34-7.74-6.34-7.74-6.07-7.41-6.39-7.8-6.77-7.36-6.77-7.36-.98-1.06-6.77-7.36-5.03-5.47-7.2-6.94-7.2-6.94-7.2-6.94-5.68-5.47-7.63-6.46-7.63-6.46-1.4-1.19-7.36-6.23-4-3.39-8.05-5.93-1.5-1.1-4.98-3.67-8.05-5.93-3.9-2.87"/>
        <path class="cls-1" d="M570.85,960.08l-8.66,4.99-8.66,4.99-3.02,1.74-9.34,3.56-9.34,3.56-3.44,1.31-9.78,2.08-9.78,2.09-4.17.89-9.98.65-9.98.65-5.18.34-9.98-.69-9.98-.69-6.37-.44-9.82-1.89-9.82-1.89-7.65-1.47-9.55-2.95-9.56-2.95-8.91-2.75-9.22-3.86-9.22-3.86-9.22-3.86-.83-.35-8.85-4.65-8.85-4.65-8.85-4.65-2.19-1.15-8.46-5.33-8.46-5.33-8.46-5.33-3.37-2.12-8.05-5.93-8.05-5.93-8.05-5.93-4.35-3.2-4-3.39-7.63-6.46-7.63-6.46-7.63-6.46-1.13-.96-7.2-6.94-7.2-6.94-7.2-6.94-5.68-5.47-6.77-7.36-6.77-7.36-6.77-7.36-6.01-6.53-6.34-7.74-6.34-7.74-6.34-7.74-6.12-7.48-5.9-8.07-5.9-8.08-5.9-8.08-6.04-8.26-5.45-8.38-5.46-8.38-5.45-8.38-5.45-8.38-.31-.48-5-8.66-5-8.66-4.48-7.75-2.69-4.66-3.18-5.5-4.53-8.91-4.53-8.91-1.48-2.91-.33-.66-4.53-8.91-2.98-5.86-4.04-9.15-4.04-9.15-4.04-9.15-4.13-9.35-3.53-9.36-3.53-9.36-3.53-9.36-3.41-9.03-2.99-9.54-2.99-9.54-2.99-9.54-2.65-8.46-2.41-9.71-2.41-9.71-2.41-9.71-1.89-7.64-1.78-9.84-1.78-9.84-1.78-9.84-.24-1.33-.95-5.26-1.11-9.94-1.11-9.94-1.11-9.94-.6-5.35-.38-9.99-.38-9.99-.38-9.99-.15-3.95.4-9.99.4-9.99.4-9.99.1-2.45,1.27-9.92,1.27-9.92,1.27-9.92.11-.87,2.23-9.75,2.23-9.75,2.08-9.06,3.28-9.45,3.28-9.45,2.55-7.34,4.4-8.98,4.4-8.98,2.8-5.72,5.56-8.31,5.56-8.31,2.88-4.3,6.71-7.42,4.1-4.54,2.99-3.3,2.47-2.73,7.77-6.3,7.77-6.3,2.85-2.32"/>
        <path class="cls-1" d="M297.92,216.39l-9.22-3.87-9.22-3.86-8.03-3.37-9.56-2.95-9.55-2.95-8.91-2.75-9.82-1.89-9.82-1.89-7.65-1.47-9.98-.69-9.98-.69-6.37-.44-9.98.65-2.74.18-9.98.65-2.43.16-8.5,1.81-9.78,2.08-5.45,1.16-9.34,3.56-9.34,3.56-3.44,1.31-8.66,4.99-8.66,4.99-3.02,1.74"/>
        <path class="cls-1" d="M359.46,444.44v-192.48l8.66-5,3.29-1.9"/>
        <path class="cls-1" d="M73.27,722.18l-1.49.86-.9.52-8.66,5-5.38,3.11-1.49.86-4.48,2.59-1.49.86"/>
        <path class="cls-1" d="M28.02,1.75l-2.21,2.57-1.05,2.86-.37,3.55v62.68l3.62,2.09,2.02,1.16,1.61.93,2.7,1.91.56.4,3,2.94,3.34,4.48,2.6,5,1.68,5.22.6,5.13-.37,3.55-1.05,2.86-1.37,1.59-.85.98"/>
        <path class="cls-1" d="M16.79,717.16v29.25l1.49-.86,4.48-2.59"/>
        <path class="cls-1" d="M374.4,235.24l-1.49.86-8.66,5-6.28,3.63-1.49.86"/>
        <path class="cls-1" d="M619.95,1067.33l-1.49.86-8.66,5-8.66,5-3.59,2.07-1.49.86"/>
        <path class="cls-1" d="M24.4,106.84v643.51l.6,5.14,1.68,5.22,2.6,5,3.34,4.48,3,2.94,3.26,2.31,8.66,5,8.66,5,4.42,2.56,8.66,5,8.66,5,8.66,5,2.97,1.72.63.37,2.99,1.73"/>
        <path class="cls-1" d="M312.85,400.24l-1.49.86-1.49.86"/>
        <path class="cls-1" d="M309.86,209.49v192.48l8.66,5,8.66,5,8.66,5,8.66,5,8.66,5,3.32,1.92,8.66,5,6.28,3.63"/>
        <path class="cls-1" d="M104.86,73.03l3.61,2.08,8.66,5,8.66,5,8.66,5,8.66,5,8.66,5,4.42,2.56,8.66,5,8.66,5,3.59,2.08,8.66,5,8.61,4.97,8.66,5,8.66,5,8.86,5.12,8.66,5,8.66,5,8.66,5,8.66,5,8.66,5,8.66,5,8.66,5,8.66,5,8.66,5,8.66,5,8.66,5,8.66,5,8.66,5,8.66,5,8.66,5,8.66,5,8.66,5,8.66,5,8.66,5,8.66,5,8.66,5,8.66,5,8.66,5,2.97,1.71,8.66,5,8.66,5,8.66,5,8.66,5,8.66,5,8.21,4.74,5,8.66,5,8.66,4.48,7.76,8.66,5,2.2,1.27,3.62,2.09"/>
        <path class="cls-1" d="M598.23,481.68l3.03-1.25,3.68.18,4.15,1.71,8.66,5,2.2,1.27,3.26,2.31,3,2.94,3.34,4.48,2.6,5,1.68,5.22.6,5.14-.37,3.55-1.05,2.86-2.21,2.57-3.03,1.25-3.67-.18-4.15-1.7-3.94-2.28-6.92-4-3.26-2.31-3-2.94-3.34-4.48-2.6-5-1.68-5.22-.1-.85-.5-4.29.37-3.55,1.05-2.86,2.21-2.57-8.66,5-8.66,5-.6.35-.69.81-1.52,1.77-1.05,2.86-.37,3.55.6,5.13,1.68,5.22,2.6,5,3.34,4.48,3,2.94,3.26,2.31,5.92,3.42,4.94,2.85,4.15,1.71,3.67.18,3.03-1.25,8.66-5,8.66-5,.6-.35"/>
        <path class="cls-1" d="M612.88,533.01l2.21-2.57,1.05-2.86.37-3.55-.5-4.29-.1-.85-1.69-5.22-2.6-5-3.34-4.48-3-2.94-3.26-2.31-6.92-4-3.94-2.28-4.15-1.71-3.68-.18-3.03,1.25"/>
        <path class="cls-1" d="M24.57,122.02l2.21-2.58,1.05-2.86.37-3.55-.5-4.29-.1-.85-1.68-5.22-2.6-5-3.34-4.48-3-2.94-3.26-2.31-3.62-2.09-3.62-2.09v33.43"/>
        <path class="cls-1" d="M668.82,445.8l-3.62-2.09-3.62-2.09-3.26-1.46-3-.52-3.34.63"/>
        <path class="cls-1" d="M650.9,489.58l8.66-5,.3-.17,2.99-1.73,2.99-1.73,2.99-1.73"/>
        <path class="cls-1" d="M89.56,40.03l-2.99,1.73"/>
        <path class="cls-1" d="M73.27,780.68v-58.5l-8.66-5-8.66-5-8.66-5-6.61-3.82"/>
        <path class="cls-1" d="M652.53,1086.16v-29.25l-8.66-5-8.66-5-8.66-5-6.61-3.82"/>
        <path class="cls-1" d="M628.64,1099.97l-8.66-5-8.66-5-8.66-5-6.61-3.82v-29.25"/>
        <path class="cls-1" d="M374.4,435.81v-200.57l-8.66-5-8.66-5-8.66-5-8.66-5-8.66-5-8.66-5-8.66-5-.94-.54"/>
        <path class="cls-1" d="M579.13,1111.78l-2.99,1.73"/>
        <path class="cls-1" d="M55.35,791.03v-29.25"/>
        <path class="cls-1" d="M64.31,756.61l4.98-2.88.4-.23,1.19-.69v-29.25h0l-1.59-.92-8.66-5-8.66-5-8.66-5-2.63-1.52-2.39-1.38h0l-1.19.69-5.38,3.11-1.19.69h0v29.25l8.66,5,1.5.86,8.69,5.02,8.66,5,5.08,2.94,1.2-.69"/>
        <path class="cls-1" d="M30.53,738.47l1.19-.69,5.38-3.11,1.19-.69"/>
        <path class="cls-1" d="M38.3,733.98l2.39,1.38,8.69,5.02,8.66,5,8.66,5,4.19,2.42-.14-2.94-.22-4.69-.14-2.94v-14.21l.14-1.24.22-1.98.14-1.24-1.19.69-5.38,3.11-1.2.69"/>
        <path class="cls-1" d="M39.77,731.97l.79-1.08.13-.18,1.42-1.95,1.47-2.01v-14.21l-1.47-2.17-1.42-2.11-.92-1.36-1.47-2.18h0v29.25l1.47-2.01"/>
        <path class="cls-1" d="M63.11,757.3v-29.25l-8.66-5-8.66-5-5.11-2.95-8.66-5-1.5-.86h0"/>
        <path class="cls-1" d="M119.32,215.97l9.06-4.24,9.06-4.24,4-1.87,9.64-2.68,5.11-1.42,9.23-2.57,9.94-1.13,1.74-.2,9.94-1.13,3.99-.45,9.99.32,9.99.32,6.99.22,9.87,1.63,9.87,1.63,8.37,1.38,9.61,2.77,9.61,2.77,9.74,2.81,9.26,3.77,9.26,3.77,4.35,1.77,6.64,2.7,8.29,4.32,8.87,4.62,8.87,4.62,3.78,1.97,8.44,5.36,8.44,5.36,5.22,3.32,7.7,4.88,7.24,5.42,4.98,3.73,8,5.99,8,5.99,1.3.97,3.6,3.12,7.55,6.55,7.56,6.55,7.56,6.55,2.68,2.32,7.1,7.04,7.1,7.04,7.1,7.04,6.79,6.73,2.31,2.59,6.65,7.47,6.65,7.47,6.65,7.47.96,1.08,3.77,4.23,6.19,7.86,6.19,7.86,6.19,7.86,3.83,4.86,2.99,3.79h0l.22.28,5.72,8.2,5.72,8.2,5.72,8.2,3.53,5.06,3.28,4.71,5.24,8.52,5.24,8.51,5.24,8.52,5.24,8.52,1.14,1.85,4.75,8.8,4.75,8.8,4.75,8.8,4.75,8.8,1.03,1.91,4.24,9.05,4.24,9.06,4.24,9.05,4.24,9.05.81,1.72,3.71,9.29,3.71,9.29,3.71,9.29,3.71,9.29.51,1.27,3.15,9.49,3.15,9.49,3.14,9.49,3.15,9.49.18.54,2.54,9.67,2.54,9.67,2.54,9.67,2.43,9.23,1.89,9.82,1.89,9.82,1.89,9.82,1.57,8.15,1.19,9.93,1.19,9.93,1.19,9.93.81,6.82.42,9.99.42,9.99.41,9.99.22,5.28-.44,9.99-.44,9.99-.44,9.99-.16,3.59-1.38,9.9-1.38,9.91-1.38,9.9-.25,1.83-2.41,9.71-2.41,9.71-2.44,9.81-3.53,9.35-3.53,9.36-2.99,7.91-4.73,8.81-4.73,8.81-3.3,6.14-5.96,8.03-5.96,8.03-3.43,4.62-7.15,6.99-.95.93-2.99,2.92-6.7,6.55-8.21,5.71-8.21,5.71-3.62,2.52-.86.4-3.3,1.54-9.06,4.24-8.89,4.16-9.63,2.68-9.63,2.68-4.7,1.31-9.94,1.13-9.94,1.13-5.73.65-10-.32-9.99-.32-6.99-.22-9.87-1.63-9.87-1.63-8.37-1.38-9.61-2.77-9.61-2.77-9.73-2.81-9.26-3.77-9.26-3.77-9.26-3.77-1.73-.7-8.87-4.62-8.87-4.62-8.87-4.62-3.2-1.67-8.44-5.36-8.44-5.36-8.44-5.36-4.48-2.84-8-5.99-8-5.99-8-5.99-1.16-.87-4.35-3.26-7.56-6.55-7.56-6.55-7.55-6.55-6.28-5.45-7.1-7.04-7.1-7.04-7.1-7.04-6.79-6.73-6.65-7.47-6.65-7.47-6.65-7.47-6.65-7.47-.39-.44-6.19-7.86-6.19-7.86-6.19-7.86-6.19-7.86-.85-1.08-5.72-8.2-5.72-8.2-5.72-8.2-5.72-8.2-1.09-1.56-5.24-8.52-5.24-8.52-5.24-8.52-2.22-3.6-3.3-5.36-.86-1.4-4.75-8.8-.3-.56-2.44-4.52-4.75-8.8-4.75-8.8-3.04-5.63-.14-.3-.73-1.56-4.24-9.05-4.24-9.05-4.24-9.05-4.18-8.92-3.71-9.29-3.71-9.29-1.81-4.53-2.99-7.48-3.13-7.83-3.15-9.49-3.15-9.49-3.14-9.49-3.15-9.49-.18-.54-2.54-9.67-2.54-9.67-2.54-9.67-2.43-9.23-1.89-9.82-1.89-9.82-1.89-9.82-1.57-8.15-.63-5.31-1.19-9.93-1.19-9.93-1.19-9.93-.18-1.51-.42-9.99-.41-9.99-.41-9.99-.22-5.28.44-9.99.44-9.99.44-9.99.16-3.59,1.38-9.91,1.38-9.9,1.38-9.9.25-1.83,2.41-9.7,2.41-9.71,2.43-9.81,3.53-9.36,3.53-9.36,2.99-7.91,4.73-8.81,4.73-8.81,2.81-5.23.49-.92,2.49-3.36,5.96-8.03,5.96-8.03.93-1.26,5.07-4.96,2.99-2.92,7.15-6.99,2.57-2.52,8.21-5.71,8.21-5.71,3.62-2.52.6-.35,9.06-4.24,9.06-4.24,4-1.87,9.63-2.68,4.51-1.25,2.99-.83,6.84-1.9,9.94-1.13,1.14-.13,2.99-.34,9.93-1.13,1.6-.18,9.99.32,9.99.32,6.99.22,9.87,1.63,9.87,1.63,8.37,1.38,9.61,2.77,9.61,2.77,9.73,2.81,9.26,3.77,9.26,3.77.77.31,2.99,1.21,7.24,2.94,4.71,2.45,2.99,1.56,8.87,4.62,8.87,4.62,4.38,2.28,8.44,5.36,8.44,5.36,4.63,2.94,2.99,1.9,5.31,3.37,6.64,4.97,1.99,1.49,1,.75,1.99,1.49,8,5.99,5.55,4.15,4.35,3.26h.02s2.99,2.6,2.99,2.6l7.55,6.55,7.56,6.55,7.56,6.55,3.28,2.84,7.1,7.04,7.1,7.04,7.1,7.04,6.79,6.73,1.71,1.92,2.99,3.36,6.65,7.47,6.65,7.47,4.62,5.2,2.99,3.36,1.38,1.55,6.19,7.86,6.19,7.86,6.19,7.86,3.23,4.1h0l2.99,3.79h0l.82,1.04,5.72,8.2,5.72,8.2,5.66,8.12h0l2.99,4.28h0l3.88,5.56,5.24,8.52,5.24,8.52,5.24,8.52,5.24,8.51,1.14,1.85,4.75,8.8,4.75,8.8,4.75,8.8,4.75,8.8,1.03,1.91,4.24,9.05,4.24,9.05,4.24,9.05,4.24,9.06.81,1.72,3.71,9.29,3.71,9.29,3.71,9.29,3.71,9.29.51,1.27,3.14,9.49,3.15,9.49,3.15,9.49,3.15,9.49.18.54,2.54,9.67,2.54,9.67,2.54,9.67,2.43,9.23,1.89,9.82,1.89,9.82,1.89,9.82,1.57,8.15.63,5.3,1.19,9.93,1.19,9.93,1.19,9.93.18,1.51.42,9.99.41,9.99.42,9.99.22,5.28-.44,9.99-.44,9.99-.44,9.99-.16,3.59-1.38,9.91-1.38,9.9-1.38,9.91-.25,1.83-2.41,9.71-2.41,9.71-2.43,9.81-3.53,9.36-3.53,9.35-2.99,7.91-4.73,8.81-4.73,8.81-3.3,6.14-5.96,8.03-5.96,8.03-3.43,4.62-7.15,6.99-1.54,1.51-2.99,2.92-6.1,5.97-8.21,5.71-8.21,5.71-3.62,2.52-.6.34"/>
        <path class="cls-1" d="M402.13,690.52l-5.73,3.98,2.99-1.73,5.97-3.45,2.99-1.73,5.73-3.98,5.08-4.97,4.38-5.91,3.65-6.79,2.87-7.61,2.07-8.35,1.25-9.01.42-9.59-.42-10.07-1.19-9.93-.06-.53-1.89-9.82-.18-.93-2.54-9.67-.33-1.26-3.15-9.49-.5-1.51-2.16-5.41-1.79-4.49-.43-1.08-4.24-9.05-.84-1.79-4.75-8.8-.97-1.8-5.24-8.52-1.07-1.74-5.72-8.2-1.13-1.62-6.19-7.86-1.13-1.43-6.65-7.47-1.06-1.19-7.1-7.04-.93-.92-7.56-6.55-.72-.62-8-5.99-.43-.32-8.52-5.4-8.52-4.44-8.43-3.43-8.27-2.39-8.03-1.32-7.71-.25-7.31.83-6.85,1.91-6.32,2.96-2.99,1.73-5.97,3.45-2.99,1.73,6.21-2.91.11-.05,6.85-1.91,7.31-.83,4.9.16,2.81.09,8.03,1.32,8.27,2.39,8.43,3.43,8.52,4.44,8.52,5.4,8,5.99.43.32,7.56,6.55.71.62,7.1,7.04.93.92,6.65,7.47,1.06,1.19,6.19,7.86,1.13,1.43,5.72,8.2,1.13,1.62,5.24,8.52,1.07,1.74,1.74,3.23,2.71,5.02,1.27,2.36.33.71,2.2,4.71,2.54,5.43,3.71,9.29.64,1.59.04.1,2.93,8.84.72,2.16,2.54,9.67.33,1.26,1.89,9.82.18.92,1.19,9.93.06.53.42,10.07-.42,9.59-1.25,9.01-2.07,8.35-2.87,7.61-1.26,2.34-2.39,4.45-4.38,5.91-5.06,4.96-.02.02"/>
        <path class="cls-1" d="M119.92,215.63l-8.21,5.71-8.21,5.71-3.62,2.52-7.15,6.99-3.17,3.1-2.99,2.92-4.47,4.38-5.96,8.03-5.96,8.03-3.43,4.62-4.73,8.81-4.73,8.81-3.3,6.14-3.53,9.36-3.53,9.35-2.99,7.91-2.41,9.71-2.41,9.7-2.43,9.81-1.38,9.9-1.38,9.9-1.38,9.9-.25,1.83-.44,9.99-.44,9.99-.44,9.99-.16,3.59.41,9.99.41,9.99.42,9.99.22,5.28,1.19,9.93,1.19,9.93,1.19,9.93.82,6.82,1.89,9.82,1.89,9.82,1.89,9.82,1.57,8.15,2.54,9.67,2.54,9.67,2.54,9.67,2.43,9.23,3.15,9.49,3.15,9.49,3.14,9.49,3.15,9.49.18.54,3.71,9.29,3.71,9.29,3.71,9.29,3.71,9.29.51,1.27,4.24,9.05,4.24,9.06,4.24,9.05,4.13,8.81.52,1.1.41.86,4.75,8.8,4.75,8.8,3.58,6.64,2.44,4.52,4.51,8.35,5.24,8.52,5.24,8.52,5.24,8.51,5.24,8.52,1.14,1.85,5.72,8.2,5.72,8.2,5.72,8.2,5.72,8.2,1.09,1.56,6.19,7.86,6.19,7.86,6.19,7.86,6.19,7.86.85,1.08,6.65,7.47,6.65,7.47,6.65,7.47,6.65,7.47.39.44,7.1,7.04,7.1,7.04,7.1,7.04,6.79,6.73,7.56,6.55,7.56,6.55,7.56,6.55,6.28,5.45,8,5.99,8,5.99,8,5.99,5.51,4.13,8.44,5.36,8.44,5.36,8.44,5.36,4.48,2.84,8.87,4.62,8.87,4.62,8.87,4.62,3.2,1.67,9.26,3.77,9.26,3.77,9.26,3.77,1.73.7,9.61,2.77,9.61,2.77,9.73,2.81,9.87,1.63,9.87,1.63,8.36,1.38,9.99.32,9.99.32,6.99.22,9.94-1.13,9.94-1.13,5.73-.65,9.64-2.68,9.63-2.68,4.7-1.31,9.06-4.24,9.06-4.24,4-1.87"/>
        <path class="cls-1" d="M273.52,481.67l-.29.2-1.46,1.01-2.71,1.89-1.27.89-5.08,4.97-4.38,5.91-3.65,6.79-2.87,7.61-2.07,8.35-.86,6.19-.39,2.82-.42,9.59.42,10.07,1.19,9.93.06.53,1.89,9.82.18.92,2.54,9.67.33,1.26,3.15,9.49.5,1.51,3.71,9.29.67,1.69,4.24,9.06.84,1.79,4.75,8.8.97,1.8,5.24,8.51,1.07,1.74,5.72,8.2,1.13,1.62,6.19,7.86,1.13,1.43,6.65,7.47,1.06,1.19,7.1,7.04.93.92,7.56,6.55.71.62,8,6,.43.32,8.52,5.4,8.52,4.44,2.72,1.1,5.72,2.33,8.27,2.39,8.03,1.32,7.71.25,7.31-.83,6.85-1.91,6.01-2.81.31-.15"/>
        <path class="cls-1" d="M420.83,628.57l.42,10.07-.42,9.59-1.25,9.01-2.07,8.35-2.87,7.61-1.87,3.49-1.77,3.3-4.38,5.91-4.84,4.73-.24.23-5.44,3.78-.29.2-6.32,2.96-6.85,1.9-7.31.83-7.71-.25-8.03-1.32-8.27-2.39-.54-.22-7.9-3.21-8.52-4.44-8.52-5.4-8-6-.43-.32-7.56-6.55-.71-.62-7.1-7.04-.92-.92-6.65-7.47-1.06-1.19-6.19-7.86-1.13-1.43-5.72-8.2-1.13-1.62-5.24-8.52-1.08-1.74-4.75-8.8-.97-1.8-4.24-9.05-.84-1.78-3.71-9.29-.67-1.69-3.15-9.49-.5-1.51-2.54-9.67-.33-1.26-1.89-9.82-.18-.92-1.19-9.93-.06-.53-.42-10.07.42-9.59,1.15-8.26.1-.75,2.07-8.35,2.87-7.61,3.65-6.79,4.38-5.91,5.08-4.97,1.81-1.26,2.71-1.88,1.2-.84.31-.15,6.01-2.81.26-.07,6.59-1.83,7.31-.83,3.67.12,4.04.13,8.03,1.32,8.27,2.39,8.44,3.43,8.52,4.44,8.52,5.4,8,6,.43.32,7.55,6.55.72.62,7.1,7.04.93.92,6.65,7.47,1.06,1.19,6.19,7.86,1.13,1.43,5.72,8.2,1.13,1.62,5.24,8.52,1.07,1.74,1.2,2.23,2.71,5.02,1.68,3.1.14.25,2.09,4.47,2.99,6.37,3.71,9.29.68,1.69.56,1.69,2.97,8.96.12.36,2.54,9.67.33,1.26,1.89,9.82.18.92,1.19,9.93.06.53"/>
        <path class="cls-1" d="M260.66,534.8l.4-9.19,1.2-8.64,1.99-8,2.75-7.29,3.49-6.51,4.2-5.66.96-.94,2.22-2.17,1.69-1.65,1.17-.81,4.32-3.01,6.05-2.83,5.97-1.66.59-.16,1.24-.14,5.77-.66,7.39.24,7.69,1.27,7.93,2.29,8.08,3.29,8.16,4.25,8.16,5.18,8.08,6.05,7.56,6.55.37.32,7.1,7.04.59.59,6.65,7.47.74.83,6.19,7.86.82,1.04,5.72,8.2.84,1.21,5.24,8.52.81,1.32,4.75,8.8.73,1.36,1.69,3.61,2.22,4.73.96,2.05.33.84.39.97.65,1.62,2.83,7.09,3.15,9.49.35,1.05,2.54,9.67.21.8,1.89,9.82.09.48,1.2,10.02.4,9.65-.4,9.19-1.2,8.64-1.99,8-2.75,7.29-3.49,6.51-3.38,4.55-.83,1.11-.39.38-4.48,4.38-5.49,3.82-4.64,2.17-1.41.66-6.56,1.83-7.01.8-7.39-.24-7.69-1.27-7.93-2.29-8.08-3.29-8.16-4.25-8.16-5.18-8.02-6.01-.07-.05-7.56-6.55-.37-.32-7.1-7.04-.59-.58-6.65-7.47-.74-.83-6.19-7.86-.82-1.04-5.72-8.2-.84-1.21-5.24-8.52-.81-1.32-4.75-8.8-.73-1.36-4.24-9.05-.62-1.33-3.71-9.29-.49-1.23-3.15-9.49-.35-1.05-2.54-9.67-.21-.8-1.89-9.82-.09-.48v-.04s-1.2-9.98-1.2-9.98l-.4-9.65"/>
        <path class="cls-1" d="M252.1,530.79l-.4,9.19.4,9.65,1.2,10.02,1.09,5.67.89,4.63,2.54,9.67.21.8,3.14,9.49.35,1.05,3.71,9.29.49,1.23,4.24,9.06.62,1.33,4.75,8.8.73,1.36,5.24,8.52.81,1.32,5.72,8.2.84,1.21,6.19,7.86.82,1.04,6.65,7.47.74.83,7.1,7.04.59.58,3.68,3.2,4.24,3.68,8.08,6.05,8.16,5.18,8.16,4.25,8.08,3.29,7.93,2.29,7.69,1.27,7.39.24,7.01-.8,5.29-1.47,1.27-.35,6.06-2.83,4.32-3.01,1.17-.81,4.87-4.76,4.2-5.66,3.49-6.51,2.75-7.29,1.98-8,1.2-8.64.4-9.19-.4-9.65-1.2-10.02-1.89-9.82-.09-.48-.12-.45-2.54-9.67-.09-.34-.33-1.01-3.16-9.53-3.71-9.29-.49-1.23-4.04-8.61-.83-1.77-1.68-3.11-1.68-3.1-2.13-3.95-.71-1.15-5.24-8.52-.11-.17-5.72-8.2-.84-1.21-6.19-7.86-.82-1.04-6.65-7.47-.74-.83-7.1-7.04-.59-.58-7.56-6.55-.37-.32-8.08-6.05-8.16-5.18-8.16-4.25-8.08-3.29-7.93-2.29-7.69-1.27-7.39-.24-7.01.8-6.56,1.83-1.41.66-3.93,1.84-.71.33-2.13,1.48-3.36,2.33-1.01.99-3.86,3.78-4.2,5.66-3.49,6.51-2.75,7.29-1.98,8-1.2,8.64"/>
        <path class="cls-1" d="M285.04,480.93l-8.32,4.81-.64.37"/>
        <path class="cls-1" d="M393.84,690.07l8.66-5,.3-.17"/>
        <path class="cls-1" d="M359.56,567.64l-9.37-3.51-9.36-3.51-9.36-3.51-2.62-.98"/>
        <path class="cls-1" d="M361.99,607.95l2.99-1.73-3.41-1.28-9.36-3.51-9.36-3.51-8.58-3.21-1.39-9.9-1.39-9.9-1.39-9.9-.83-5.88-.42-3-2.99,1.73"/>
        <path class="cls-1" d="M364.98,606.23l-1.39-9.9-1.39-9.9-1.39-9.9-1.25-8.88-2.99,1.73"/>
        <path class="cls-1" d="M411.55,643.71l2.97-1.72-2.97-1.72-8.66-5-8.66-5-8.66-5-3.64-2.1v-71.04l-2.97,1.72"/>
        <path class="cls-1" d="M414.52,570.96l-1.03-.6-8.66-5-2.37-1.37-1.07-.62-3.75-2.17-8.66-5-7.05-4.07"/>
        <path class="cls-1" d="M414.52,641.99v-71.04l-.65.37-2.32,1.34"/>
        <path class="cls-1" d="M285.47,474.77l-5.73,3.98-.02.02-.23.22-4.84,4.73-.43.58-1.79,2.42-2.16,2.91-.69,1.28-2.95,5.51-2.87,7.61-2.07,8.35-1.25,9.01-.42,9.59.42,10.07,1.19,9.93.06.53.56,2.92,1.51,7.83,2.54,9.67.33,1.26,3.14,9.49.5,1.51,3.71,9.29.67,1.69,4.24,9.05.84,1.79,4.75,8.8.97,1.8,5.24,8.52,1.07,1.74,5.72,8.2,1.13,1.62,6.19,7.85,1.13,1.43,6.65,7.47,1.06,1.19,7.1,7.04.93.92,6.06,5.25,2.21,1.92,8,5.99.43.32,8.52,5.4,8.52,4.44,8.43,3.43,8.27,2.39,8.03,1.32,6.35.2,1.36.04,7.31-.83,6.59-1.83.26-.07.11-.05,6.21-2.91"/>
        <path class="cls-1" d="M381.94,623.17l-2.97,1.71"/>
        <path class="cls-1" d="M378.97,624.88l8.66,5,8.66,5,8.66,5,6.61,3.82v-71.04l-6.89-3.98-1.04-.6-3.47-2-8.66-5-8.66-5-.9-.52-2.97-1.72v71.04"/>
        <path class="cls-1" d="M334.26,594.73l-2.99,1.72"/>
        <path class="cls-1" d="M331.27,596.45l9.36,3.51,9.36,3.51,9.36,3.51,2.62.98-.42-3-1.39-9.9-1.39-9.9-1.39-9.9-.82-5.88-9.37-3.51-9.36-3.51-8.58-3.21-3.41-1.28,1.39,9.9,1.39,9.9,1.39,9.9,1.25,8.88"/>
      </g>
    </g>
  </g>
</svg>