<?xml version="1.0" encoding="UTF-8"?>
<svg id="Layer_2" data-name="Layer 2" xmlns="http://www.w3.org/2000/svg" viewBox="0 0 1889.26 1196.46">
  <defs>
    <style>
      .cls-1 {
        fill: none;
        stroke: #000;
        stroke-linecap: round;
        stroke-linejoin: round;
      }
    </style>
  </defs>
  <g id="Layer_1-2" data-name="Layer 1">
    <g id="ViewLayer_LineSet" data-name="ViewLayer LineSet">
      <g id="strokes">
        <path class="cls-1" d="M861.95,592.52l-.03.13-.08.13-.11.11-.14.15-.37.25h0s-.15.08-.15.08l-.3.15-.14.05-.38.14-.27.07-.28.05-.28.04-.28.02-2.76.09-.39.03-1.08.07-1.45.1-2.17.22-.83.08-1.03.14-1.97.26-2.91.5-.94.2-1.8.39h0l-2.42.65-2.07.66-.2.06-.23.04-.25.03h-.27s-.58,0-.58,0l-.58-.06-.56-.11-.49-.15-.2-.09-.17-.1-.14-.1-.09-.11-.05-.07-.35-.46-.44-.58-.81-.78-.45-.43h-.01s-1.46-1.11-1.46-1.11l-.21-.16-.35-.22-1.69-1.05-.41-.22-.67-.35-1.24-.65-.83-.38-1.68-.77-.77-.31-.07-.03-.52-.21-.15-.06-1.12-.45-2.08-.73-.6-.21-.09-.03-.18-.07-.24-.12h0s-.06-.04-.06-.04l-.16-.1-.2-.15-.32-.32-.2-.33-.09-.33"/>
        <path class="cls-1" d="M861.06,593.37v-1.03s-.01-2.16-.01-2.16v-.42s.02-.19.02-.19l.06-.5.1-.88.48-1.29.11-.3.03-.09.36-.61.21-.36.02-.04.42-.72,1.35-1.75,1.38-1.45.26-.27,1.88-1.64.18-.16.14-.17.1-.18.07-.18.04-.37-.09-.35-.2-.31-.32-.24-.2-.09-.22-.07-.24-.04h-.27s-2.66-.07-2.66-.07l-2.67-.4-2.56-.78-2.29-1.12-1.99-1.41-1.65-1.65-1.28-1.84-.88-1.97-.09-.2-.14-.18-.17-.16-.2-.14-.49-.22-.55-.13-.59-.04-.57.06-.27.07-.25.09-.23.12-.2.15-2.1,1.51-2.43,1.26-2.69.98-2.88.66-3,.3-3.06-.09-2.94-.47-2.73-.77-.28-.08-.28-.04h-.28s-.27,0-.27,0l-.52.11-.46.2-.37.28-.25.34-.07.19-.04.19v.2s.06.21.06.21l.6,2,.24,2.02-.02,2.8v.74s-.02,3.78-.02,3.78v.3"/>
        <path class="cls-1" d="M823.23,580.23l.39-.14.5-.09.52-.02.52.05,4.67.46,4.73-.12,4.57-.71,4.21-1.26,3.64-1.75.41-.19.47-.13.51-.06h.53s.51.09.51.09l.46.15.39.2.3.25.19.28,1.64,2.57,2.55,2.3,2.17,1.25,1.18.68,3.99,1.47.14.03"/>
        <path class="cls-1" d="M861.95,592.52v-.12s-.06-.11-.06-.11l-.6-1.15-.24-1.37"/>
        <path class="cls-1" d="M816.04,585.97l.04-.3.07-.13.1-.11.14-.09.18-.07,1.88-.79,1.64-1.09,1.35-1.35.9-1.41.12-.18.62-1.79.19-1.97"/>
        <path class="cls-1" d="M901.22,606.12l1.29-2.5.36-.7,1.27-5.88v-2.07l-.2-2.75-.19-2.69-.03-.47-2.1-5.79-3.72-5.52-5.24-5.09-6.62-4.52-7.82-3.83-1.46-.63-3.37-1.32-3.27-.98-6.4-1.8-1.87-.42-1.79-.29-7.37-1.14-3.76-.23-7.96-.34-7.85.48-3.85.45-7.78,1.27-7.25,1.95-3.83,1.37-8.34,3.44-7.24,4.19-5.95,4.82-4.5,5.32-2.92,5.67-1.21,5.63-.05.25v2.07l.42,5.92,1.94,5.35"/>
        <path class="cls-1" d="M780.16,592.02l.42,5.91,2.1,5.8,3.72,5.52,5.24,5.09.61.42,6.01,4.1,7.82,3.83,3.45,1.19.82.28,2.95,1.02,1.34.46.24.08,1.66.38h.04s0,0,0,0l1.68.38,6.16,1.39.69.08,6.19.75,3.15.38,10,.24h.24s3.07-.22,3.07-.22l7.1-.51,1.19-.21,8.58-1.48h.05s2.61-.74,2.61-.74h.04s.01-.01.01-.01h.04s.2-.07.2-.07h.02s5.11-1.45,5.11-1.45l1.18-.33.62-.26.08-.03,7.64-3.15,7.24-4.19,2.45-1.99,2.33-1.89,1.17-.95,4.5-5.32"/>
        <path class="cls-1" d="M902.86,600.86l1.27-5.88"/>
        <path class="cls-1" d="M823.21,584.32l-.05.66-.16,2.07-.68,1.46-.27.58"/>
        <path class="cls-1" d="M1798.71,37.42l5.57,3.22,4.33,3.8,2.92,4.22,1.39,4.48-.2,4.55-1.78,4.43-3.29,4.13-4.66,3.67-5.84,3.05-6.78,2.31-3.64.72h-.02s-1.14.23-1.14.23l-2.65.52-7.81.57-2.11-.09-5.09-.22-.65-.03-5.8-.96-1.77-.29-.61-.19-.1-.03-6.27-1.89-6.1-2.88-4.98-3.53-3.65-4.03-2.17-4.37-.6-4.54.99-4.51,2.55-4.3,3.99-3.92,5.28-3.38,6.35-2.69,7.15-1.9,7.67-1.03,7.87-.12,7.75.8,7.31,1.69,6.57,2.5,4.37,2.36"/>
        <path class="cls-1" d="M1740.06,43.37l-3.78,4.09-2.33,4.44"/>
        <path class="cls-1" d="M1748.03,38.16l-.71.4-2.17,1.22"/>
        <path class="cls-1" d="M1814.29,51.9l-2.33-4.44-3.78-4.09"/>
        <path class="cls-1" d="M1783.75,64.49l-4.65,1.11-4.99.38-4.99-.38-4.65-1.11-2.87-1.27-.19-.08-.94-.41-3.06-2.31-.59-.82-1.34-1.86-.66-2.88.66-2.88,1.93-2.68,3.06-2.31,3.99-1.77,4.65-1.11,4.99-.38,4.99.38,4.65,1.11"/>
        <path class="cls-1" d="M1790.8,49.28l1.93,2.68.66,2.88"/>
        <path class="cls-1" d="M1792.73,57.73l-1.28,1.78-.65.9-3.06,2.31-.55.24-.58.26-2.85,1.27"/>
        <path class="cls-1" d="M1784.64,63.51l-2.08-1.2-1.69-1.52-1.08-1.7-.12-.19-.2-.17-.26-.13-.31-.1-.33-.05h-.35s-.34.04-.34.04l-.31.09-.27.13-2.4,1.16-2.78.83-3.02.47-3.12.08-3.08-.31-.34-.03h-.35s-.33.08-.33.08l-.27.09"/>
        <path class="cls-1" d="M1761.63,52.56l-.15-1.58-.39-1.63-.04-.17v-.16"/>
        <path class="cls-1" d="M1761.62,61.11v-.03"/>
        <path class="cls-1" d="M1761.63,52.56l-.14,1.42"/>
        <path class="cls-1" d="M1787.19,62.41l-.02.06-.05.06-.17.15-.24.16-.1.05-.2.11-.34.15-.18.07-.18.06-.19.05-.18.04-.69.14-1.13.23-1.93.37-1.99.35-1.98.32-1.92.28-1.8.24-1.61.19-1.35.12h-.14s-.15,0-.15,0h-.17s-.18-.02-.18-.02l-.38-.04-.39-.05-.37-.06-.32-.07-.14-.04-.11-.04-.09-.04-.06-.04-.56-.41-.84-.56-1.12-.69-1.35-.79-1.53-.86-.32-.18-1.1-.61-.04-.02-.2-.11-.36-.19-1.38-.74-1.76-.93-.18-.1-.16-.11-.15-.11-.13-.12-.21-.24-.14-.23-.06-.2.03-.17.05-.07.07-.05.09-.03.12-.02,1.23-.21,1.07-.5.88-.76.62-.95.04-.06.13-.5.28-.72-.42,1.22"/>
        <path class="cls-1" d="M1787.19,62.41v-.05s-.04-.04-.04-.04l-.39-.44-.15-.67.14-.89.42-1.06.66-1.2.88-1.3,1.07-1.37,1.23-1.39.12-.14.09-.14.07-.14.05-.14.02-.27"/>
        <path class="cls-1" d="M1786.61,61.21v.7s0,.98,0,.98"/>
        <path class="cls-1" d="M1791.36,53.15l-.06-.24-.14-.2-.21-.13-.13-.04-.15-.02h-.16s-.18.03-.18.03l-1.75.28-1.76-.03-1.65-.38-1.5-.7-1.32-.98-1.11-1.23-.86-1.44-.59-1.61-.06-.17-.09-.15-.11-.13-.14-.11-.32-.17-.37-.09h-.39s-.38.05-.38.05l-.18.07-.17.09-.15.11-.14.13-1.39,1.3-1.62,1.05-1.79.78-1.91.48-1.98.16-1.99-.18-1.94-.54-1.79-.82-.18-.09-.18-.06-.18-.03h-.18s-.34.03-.34.03l-.3.12-.24.19-.17.25-.05.14-.02.15"/>
        <path class="cls-1" d="M752.67,539.07l5.5,3.18.07.04,4.33,3.8,2.92,4.22,1.39,4.48-.2,4.55-1.78,4.43-.86,1.09-2.42,3.05-4.66,3.67-5.84,3.05-6.79,2.31-3.64.72-1.16.23-2.65.52-7.81.57-2.11-.09-5.08-.22-.65-.03-7.57-1.25-.62-.19-.09-.03-6.27-1.89-6.1-2.88-4.98-3.53-.23-.25-3.42-3.78-2.16-4.37-.6-4.54.99-4.51,2.55-4.3,3.99-3.92,5.28-3.38,6.35-2.69,7.16-1.9,7.67-1.03,7.87-.11,6.58.68,1.12.11h.05s7.31,1.69,7.31,1.69l6.57,2.5,4.37,2.36,1.15.81,3.94,2.78,3.79,4.09,2.33,4.44.79,4.62v5.36"/>
        <path class="cls-1" d="M701.99,539.81l-2.88,1.62-5.09,3.59-3.79,4.09-2.33,4.44-.79,4.62.79,4.62,2.33,4.44,2.62,2.83,1.16,1.26,5.09,3.59,6.21,2.94,7.08,2.19,7.68,1.35,3.92.22,4.07.23,2.36-.13,5.63-.32,6.67-1.17,1.01-.18.6-.18,6.48-2,6.21-2.94,3.27-2.3"/>
        <path class="cls-1" d="M767.15,564.88l1.1-2.1.79-4.62"/>
        <path class="cls-1" d="M737.71,566.14l-4.65,1.11-4.99.38-4.99-.38-4.65-1.11-2.87-1.27-.19-.08-.93-.42-3.06-2.31-.59-.82-.41-.58-.92-1.29-.66-2.88.66-2.88,1.92-2.69,3.06-2.31,3.99-1.77,4.65-1.11,4.99-.38,4.99.38,4.65,1.11"/>
        <path class="cls-1" d="M744.76,550.93l1.93,2.69.19.85.46,2.03"/>
        <path class="cls-1" d="M746.69,559.38l-1.28,1.78-.65.9-3.06,2.31-.55.24-.58.26-2.86,1.27"/>
        <path class="cls-1" d="M687.12,558.17v27.81l.79,4.62,1.43,2.73"/>
        <path class="cls-1" d="M715.59,554.21l-.15-1.58-.39-1.63-.04-.17v-.16"/>
        <path class="cls-1" d="M715.59,554.21l-.14,1.42"/>
        <path class="cls-1" d="M741.15,564.05l-.02.06-.05.07-.17.15-.24.16-.1.05-.2.11-.34.15-.18.07-.18.06-.18.05-.18.04-.69.14-1.13.23-1.93.37-1.99.35-1.98.32-1.92.28-1.8.24-1.61.18-1.35.12h-.13s-.15,0-.15,0h-.17s-.18-.02-.18-.02l-.38-.04-.39-.05-.37-.06-.32-.07-.14-.04-.11-.04-.09-.04-.06-.04-.55-.41-.84-.56-1.12-.69-1.35-.79-1.53-.86-.32-.18-1.1-.6-.04-.02-.2-.11-.36-.19-1.38-.74-.23-.12-1.53-.81-.18-.1-.16-.11-.15-.11-.13-.12-.03-.03-.18-.2-.14-.23-.06-.21.03-.17.05-.07.07-.05.09-.03.12-.02,1.23-.21,1.07-.5.88-.76.62-.94.04-.06.13-.5.28-.72-.42,1.22"/>
        <path class="cls-1" d="M741.15,564.05v-.05s-.04-.04-.04-.04l-.39-.44-.15-.67.14-.89.3-.76.12-.3.66-1.2.88-1.3,1.07-1.37,1.23-1.39.12-.14.09-.14.07-.14.05-.14.03-.27"/>
        <path class="cls-1" d="M740.56,562.85v.7s0,.98,0,.98"/>
        <path class="cls-1" d="M745.32,554.8l-.06-.24-.14-.2-.21-.14-.13-.04-.15-.02h-.16s-.18.03-.18.03l-1.74.27-1.76-.03-1.65-.38-1.5-.7-1.32-.98-1.11-1.23-.79-1.31-.07-.12-.59-1.61-.06-.17-.09-.15-.11-.13-.14-.11-.32-.17-.37-.09-.39-.02-.38.07-.18.07-.17.09-.15.11-.14.13-1.39,1.3-1.61,1.05-1.79.78-1.91.48-1.98.16-1.99-.18-1.94-.54-1.79-.82-.18-.09-.18-.06-.18-.04h-.18s-.34.03-.34.03l-.3.12-.24.19-.17.25-.05.14-.02.15"/>
        <path class="cls-1" d="M1030.3,548.56l-4.36-6.08-.32-1.39-2.07-9.07-.41-1.8,2.22-9.75.57-2.5,5.83-8.13,2.36-3.29,7.99-6.02,5.03-3.79,8.66-5,8.66-5,8.66-5,8.66-5,8.66-5,8.66-5,8.66-5,8.66-5,8.66-5,8.66-5,8.66-5,8.66-5,8.66-5,8.66-5,8.66-5,8.66-5,8.66-5,5.05-2.92,9.14-4.05,7.82-3.47,9.72-2.33,9.73-2.33.31-.07,9.97-.76,9.97-.76,1.26-.1,3.11.24,9.97.76,8.12.62,9.73,2.33,9.73,2.33.31.07.41.18,9.14,4.05,7.41,3.29,8.66,5,8.66,5,8.66,5,8.66,5,8.66,5,7.39,4.27,9.14,4.05,1.46.65,9.73,2.33,2.62.63,9.97.76,3.28.25,9.97-.76,3.28-.25,9.72-2.33,2.62-.63,9.14-4.05.59-.26.87-.39,8.66-5,8.66-5,8.66-5,8.66-5,8.66-5,8.66-5,8.66-5,8.66-5,8.66-5,8.66-5,8.66-5,8.66-5,1.13-.65,8.66-5,5.68-3.28,8.66-5,8.66-5,2.96-1.71,8.66-5,8.66-5,8.66-5,8.66-5,8.66-5,8.66-5,8.66-5,8.66-5,8.66-5,8.66-5,8.66-5,8.66-5,8.66-5,8.66-5,8.66-5,8.66-5,8.66-5,8.66-5,8.66-5,8.66-5,8.66-5,8.66-5,8.66-5,8.66-5,8.66-5,8.66-5,8.66-5,8.66-5,8.74-5.05,8.05-5.94,7.07-5.21.02-.02,8.05-5.94,7.26-5.36,6.15-7.89,6.15-7.89,1.26-1.62,6.15-7.89.57-.73,3.02-9.53,3.02-9.53,2.85-9-1.04-9.95-1.04-9.95-.9-8.59-4.75-8.8-4.75-8.8-4.75-8.8-.45-.83-7.23-6.91-7.23-6.91-7.23-6.91-3.86-3.68-2.59-1.5"/>
        <path class="cls-1" d="M759.92,573.09l-8.13,5.82-3.5,2.51-.93,1.16-.35.44-.84,1.04-.39.48-1.7,2.11-.42.52-.72.9-.39.48-2.33,2.9-.42.52-.08.1-.37.47-2.15,2.67-.26.32-.47,1.4h0s-.06.18-.06.18l-.18.53-.03.1-.04.13-1.36,4.08-.03.1-.29.87-.04.13-.12.36v.02s-.27.79-.27.79h0s-.38,1.13-.38,1.13l-.99,2.95-.37,1.11-.02.07-.11.32h0s-.07.21-.07.21l-.13.38-.08.25-.03.1-.02.07v21.73l.46,5.02.03.3.05.57.03.28.42,4.6.11,1.18.33,3.58,4.68,8.84,2.94,5.55.26.49,7.21,6.93,6.67,6.41,8.66,5,8.66,5,1.73,1,4.61,1.6,1.91.66,2.92,1.01,9.45,3.28,4.19,1.45,9.85,1.74,9.85,1.74,6.05,1.07,10,.31,9.99.31,6.9.21,9.94-1.11,9.94-1.11,6.56-.73,8.51-2.28,9.66-2.59,3.24-.87,3.02-.81.45-.21,2.68-1.25,1.87-.87,9.06-4.23,6.89-3.21,4.57-2.17.8-.38,6.22-1.79,6.76-.93,6.95-.03,6.78.87,6.27,1.73,5.44,2.5,7.29,4.21,8.66,5,8.48,3.76,9.72,2.33.15.04,9.97.76.63.05.49-.04,9.97-.76h.14s9.73-2.34,9.73-2.34l.15-.04,4.33-1.92.56-.25,3.59-1.59,8.66-5,8.66-5,8.66-5,8.66-5,8.66-5,8.66-5,6.64-3.84,7.99-6.02.15-.11,5.11-7.14,1.74-7.66v-21.73l-1.74-7.66-5.11-7.14-7.99-6.02-.15-.11-6.1-3.53"/>
        <path class="cls-1" d="M731.82,610.8l.41,4.49.14,1.48.03.31.02.27.04.42.54,5.84.06.67.05.49.02.22.12,1.34,1.92,3.62.38.71,2.6,4.91.62,1.16,2.11,3.98.14.26.07.13.05.1,7.21,6.93,6.67,6.41,8.66,5,8.66,5,1.73,1,4.61,1.6,9.45,3.28,7.68,2.67,1.35.47,9.85,1.74,9.85,1.74,6.05,1.07,2.84.09,10,.31,9.99.31,3.42.1.64.02,1.92-.22,8.81-.98,9.94-1.11,5.77-.64,9.66-2.59,2.24-.6.41-.11,9.66-2.59,2.45-.66.81-.38,4.19-1.96,9.06-4.23,6.89-3.21,5.37-2.55,6.22-1.79,6.76-.93,6.95-.03,6.78.87,6.27,1.73,5.44,2.5,8.66,5,7.28,4.21,8.48,3.76,9.72,2.33.15.04,9.97.76.63.05,9.97-.76.63-.05,9.73-2.33.15-.04,4.89-2.17,2.72-1.21.87-.39,8.66-5,8.66-5,8.66-5,8.66-5,8.66-5,8.66-5,6.64-3.84.67-.5,7.47-5.63,5.11-7.14,1.74-7.66"/>
        <path class="cls-1" d="M1093.42,598.4l-1.03-.92"/>
        <path class="cls-1" d="M1093.95,600.54l-1.53-2.88"/>
        <path class="cls-1" d="M1093.04,601.52l-.47-2.89-.16-.97v-.02s-.03-.17-.03-.17l-.05-.29v-5.02l-.62-2.72-.43-1.88-3.07-4.28-4.88-3.68-8.66-5-8.66-5-8.66-5-8.66-5-1.74-1.01-8.66-5-1.48-.86-4.17-2.41-2.36-1.78-5.44-4.1-1.71-1.29-6.76-5.09-.97-1.36-5.83-8.13-.11-.16-3.32-4.63-2.22-9.75-1.27-5.56"/>
        <path class="cls-1" d="M794.75,531.71l-.04,2.57-.06,4.12-2.69,6.51-5.16,5.99-7.35,5.17-5.07,3.63-.67.48-4.67,3.34-1.89,1.35-1.39,1-.09.06-3.42,4.25-1.4,1.74-.54.67-.39.49-3.5,4.35-3.17,9.48-.37,1.09-.63,1.87v5.01l-.68,4.19-.02.11"/>
        <path class="cls-1" d="M774.38,554.69l-.06,4.01-.61,1.48"/>
        <path class="cls-1" d="M758.09,496.41l-8.48,4.9-6.51,4.9-4.09,5.71-1.4,6.13,1.4,6.13,4.09,5.71,6.51,4.9,8.66,5,2.91,1.68,4.37,2.53,4.33,3.14,2.99,3.62,1.51,3.92"/>
        <path class="cls-1" d="M1868.32,113.25l-.05-.48-.08-.75-1.04-9.95-.07-.7-.41-3.89-.04-.33-1-9.53-4.75-8.8-4.75-8.8-3.73-6.91-7.23-6.91-2.23-2.13-7.23-6.91-6.3-6.02-8.66-5-8.66-5-8.66-5-5.45-3.15-9.44-3.3-9.44-3.3-9.44-3.3-9.7-3.39-9.84-1.77-9.84-1.77-9.84-1.77-9.84-1.77-3.06-.55-9.99-.35-9.99-.35-9.99-.35-9.99-.35-4.38-.15-9.94,1.05-9.94,1.05-9.94,1.05-9.95,1.05-3.93.42-9.68,2.52-9.68,2.52-9.68,2.52-9.68,2.52-1.81.47-9.11,4.12-9.11,4.12-9.11,4.12-7.65,3.46-8.66,5-8.66,5-8.66,5-8.66,5-8.66,5-8.66,5-8.66,5-8.66,5-8.66,5-8.66,5-8.66,5-8.66,5-8.66,5-8.66,5-8.66,5-8.66,5-8.66,5-8.66,5-8.66,5-8.66,5-8.66,5-8.66,5-8.66,5-8.66,5-8.66,5-8.66,5-8.66,5-8.66,5-8.66,5-8.66,5-8.66,5-8.66,5-8.66,5-8.66,5-8.66,5-8.66,5-8.66,5-8.66,5-8.66,5-8.66,5-8.66,5-8.66,5-8.66,5-8.66,5-8.66,5-8.66,5-8.66,5-8.66,5-8.66,5-8.66,5-8.66,5-8.66,5-8.66,5-8.66,5-8.66,5-8.66,5-8.66,5-8.66,5-8.66,5-8.66,5-8.66,5-8.66,5-8.66,5-8.66,5-8.66,5-8.66,5-8.66,5-8.66,5-8.66,5-8.66,5-8.66,5-8.66,5-8.66,5-8.66,5-8.66,5-8.66,5-8.66,5-8.66,5-8.66,5-8.66,5-8.66,5-8.66,5-8.66,5-8.66,5-8.66,5-8.66,5-8.66,5-8.66,5-8.66,5-8.66,5-10.65,6.16-3.26,2.45-2.05,2.85-.7,3.06v5.02l-.28,1.73-.09.58-.05.34-.02.14-.25,1.54"/>
        <path class="cls-1" d="M1868.26,112.76l-.08-8.58-1.47-6.66-.08-.38"/>
        <path class="cls-1" d="M1092.35,592.18l-1,4.37-.05.23v.02s-.03.02-.03.02l-3.04,4.24-4.88,3.68-8.66,5-8.66,5-8.66,5-8.66,5-8.66,5-5.11,2.95-8.66,5-1.52.88-4.24,1.88-4.94,1.18-5.3.4-5.3-.4-4.94-1.18-4.24-1.88-8.66-5-7.28-4.21-9.06-4.17-9.64-2.66-.81-.22-9.92-1.27-1.39-.18-10,.05h-1.58s-9.91,1.38-9.91,1.38l-1.36.19-9.61,2.76-.76.22-8.95,4.25-1.24.58-1.37.64-7.01,3.27-7.46,3.48-1.87.5-9.66,2.6-2.1.56-2.58.69-3.69.99-9.94,1.11-9.94,1.11-1.67.19-10-.31-9.99-.31-1.92-.06-9.85-1.74-9.85-1.74-1.29-.23-9.45-3.28-9.36-3.25-6.58-3.8-1.42-.82-7.51-4.34-1.11-1.07-7.21-6.93-2.99-2.87-4.68-8.84-.94-1.78-.38-.72-.41-.78-.64-6.99-.52-5.67"/>
        <path class="cls-1" d="M1868.32,113.25l-.04.14-.08.27-.27.84-3.02,9.53-3.02,9.53-1.57,4.95-6.15,7.89-2.67,3.43-6.14,7.89-3.27,4.2-8.05,5.94-8.05,5.94-8.05,5.94-.83.61-.05.04-1.97,1.45-.41.3-8.66,5-2.78,1.61-8.66,5-8.66,5-8.66,5-8.66,5-8.66,5-8.66,5-8.66,5-8.66,5-8.66,5-8.66,5-8.66,5-8.66,5-8.66,5-8.66,5-8.66,5-8.66,5-8.66,5-8.66,5-8.66,5-8.66,5-8.66,5-8.66,5-8.66,5-8.66,5-8.66,5-8.66,5-8.66,5-8.66,5-8.66,5-8.66,5-8.83,5.1-8.66,5-.16.09-8.66,5-8.66,5-8.66,5-8.66,5-8.66,5-8.66,5-8.66,5-8.66,5-8.66,5-8.66,5-8.66,5-6.75,3.9-6.36,2.82-7.41,1.77-7.95.6-7.95-.6-7.41-1.77-6.36-2.82-8.66-5-8.66-5-8.66-5-8.66-5-8.66-5-3.22-1.86-4.17-2.41-9.14-4.05-9.14-4.05-2.92-1.3-2.35-.56-9.72-2.33-9.73-2.33-2.9-.69-9.97-.76-9.97-.76-6.56-.5-9.97.76-9.97.76-6.56.5-9.73,2.33-9.72,2.33-5.25,1.26-9.14,4.05-9.14,4.05-2.92,1.3-8.66,5-8.66,5-8.66,5-8.66,5-8.66,5-8.66,5-8.66,5-8.66,5-8.66,5-8.66,5-8.66,5-8.66,5-8.66,5-8.66,5-8.66,5-8.66,5-8.66,5-5.05,2.92-7.99,6.02-7.99,6.02-.3.22-5.83,8.13-4.4,6.14-2.22,9.75-1.27,5.57"/>
        <path class="cls-1" d="M794.75,531.71l-2.51-6.53-4.99-6.04-7.21-5.24-8.66-5-7.28-4.21-3.26-2.45-.24-.33-1.81-2.52-.68-2.98-.02-.08"/>
        <path class="cls-1" d="M905.63,593.48l-2.14,9.4-.02.1-2.25,3.14-4.09,5.71-4.5,3.39-.2.15-3.69,2.78-1.71,1.29-9.14,4.05-3.13,1.39-.08.04-.35.16-.21.09-.23.1-1.81.43-.53.13-3.82.91-.24.06h-.01s-.02,0-.02,0l-.13.03-.19.04-1.06.25-1.32.32-.16.04-.66.16-5.38,1.29-3.02.23-1.82.14-9.97.76-1.62.12-9.97-.76-4.3-.33-1.7-.13-.46-.03-6.82-1.63-.48-.11-1.52-.36-.13-.03-.14-.03-.85-.2-2.61-.63-1.85-.44-.38-.09-.55-.13-.73-.33-.06-.03-9.14-4.05-3.22-1.43-1.71-1.29-3.88-2.92-4.5-3.39-4.64-6.47-1.71-2.38-2.16-9.5"/>
        <path class="cls-1" d="M778.66,593.48l2.16-9.49,5.83-8.13.52-.72,7.99-6.02,2.1-1.58,9.14-4.05,4.01-1.78,9.72-2.33,5.59-1.34,9.97-.76,6.46-.49,9.97.76,6.46.49,9.73,2.33,5.59,1.34,9.14,4.05,4.01,1.78,7.99,6.02,2.1,1.58,5.83,8.13.52.72,2.16,9.49"/>
        <path class="cls-1" d="M1815.08,54.93l-.15.68-.8,3.52-.44,1.93-4.09,5.71-3.71,2.8-2.8,2.11-8.48,3.76-5.14,1.23-.98.24-.88.21-.28.07-.25.06-2.34.56-9.97.76-.63.05-3.43-.26-1.93-.15-5.24-.4-4.74-1.13-.21-.05-1.06-.25h-.03s-3.84-.93-3.84-.93l-8.48-3.76-2.8-2.11-3.71-2.8-4.09-5.71-1.24-5.45-.15-.68"/>
        <path class="cls-1" d="M1733.16,54.93l1.4-6.13,4.09-5.71,6.51-4.9,8.48-3.76,9.72-2.33.15-.04,9.97-.76.63-.05,9.97.76.63.05,8.76,2.1,1.11.27,8.48,3.76,1.35,1.02,5.16,3.89,4.09,5.71,1.4,6.13"/>
        <path class="cls-1" d="M737.61,518.05v16.7"/>
        <path class="cls-1" d="M1025.63,541.09l.32-1.39,5.83-8.13,2.36-3.29,7.99-6.02,5.03-3.79,8.66-5,8.66-5,8.66-5,8.66-5,8.66-5,8.66-5,8.66-5,8.66-5,8.66-5,8.66-5,8.66-5,8.66-5,8.66-5,8.66-5,8.66-5,8.66-5,8.66-5,5.05-2.92,9.14-4.05,7.82-3.47,9.72-2.33,9.73-2.33.31-.07,9.97-.76,9.97-.76,1.26-.1,9.97.76,3.34.25,7.89.6,8.02,1.92,9.72,2.33,2.01.48,9.14,4.05,7.82,3.47,8.66,5,8.66,5,8.66,5,8.66,5,8.66,5,7.39,4.27,8.11,3.59,2.5,1.11,9.73,2.33,1.49.36,1.13.27,9.97.76,3.28.25,9.97-.76,3.28-.25,9.72-2.33,2.62-.63,9.14-4.05,1.46-.65,8.66-5,8.66-5,8.66-5,8.66-5,8.66-5,8.66-5,8.66-5,8.66-5,8.66-5,8.66-5,8.66-5,8.66-5,9.79-5.66,5.67-3.28,4.47-2.58,8.66-5,7.15-4.13,8.66-5,8.66-5,8.66-5,8.66-5,8.66-5,8.66-5,8.66-5,8.66-5,8.66-5,8.66-5,8.66-5,8.66-5,8.66-5,8.66-5,8.66-5,8.66-5,8.66-5,8.66-5,8.66-5,8.66-5,8.66-5,8.66-5,8.66-5,8.66-5,8.66-5,8.66-5,8.66-5,8.66-5,8.74-5.05,8.05-5.94,8.05-5.94,8.05-5.94,1.16-.86.4-.29h.01s2.69-2,2.69-2l.4-.29,1.64-1.21,6.15-7.89,6.15-7.89,6.14-7.89,1.83-2.35.13-.41,3.02-9.53,3.02-9.53,2.72-8.58v-21.73"/>
        <path class="cls-1" d="M749.74,832.21l9.57,2.9,9.57,2.9.36.11.35.08,9.77,2.14,9.77,2.14,1.04.23,9.9,1.41,9.9,1.41,1.57.22,9.98.7,9.97.7,1.9.13h22.01l9.97-.7,9.98-.7,1.9-.13,9.9-1.41,9.9-1.41,1.57-.22,9.77-2.14,9.77-2.14,1.04-.23.35-.08,9.57-2.9,9.57-2.9.44-.13,9.29-3.7,8.91-3.55,8.9-4.56,7.65-3.92,8.66-5,7.49-4.33,8.66-5,7.49-4.33,8.66-5,7.49-4.33,8.66-5,7.49-4.33,8.66-5,7.49-4.33,8.66-5,7.49-4.33,8.66-5,7.49-4.33,8.66-5,7.49-4.33,8.66-5,7.49-4.33,8.66-5,7.49-4.33,8.66-5,7.49-4.33,8.66-5,7.49-4.33,8.66-5,7.49-4.33,8.66-5,7.49-4.33,8.66-5,7.49-4.33,8.66-5,7.49-4.33,8.66-5,7.49-4.33,8.66-5,7.49-4.33,8.66-5,7.49-4.33,8.66-5,7.49-4.33,8.66-5,7.49-4.33,8.66-5,7.49-4.33,8.66-5,7.49-4.33,8.66-5,7.49-4.33,8.66-5,7.49-4.33,8.66-5,7.49-4.33,8.66-5,7.49-4.33,8.66-5,7.49-4.33,8.66-5,7.49-4.33,8.66-5,7.49-4.33,8.66-5,7.49-4.33,8.66-5,7.49-4.33,8.66-5,7.49-4.33,8.66-5,7.49-4.33,8.66-5,7.49-4.33,8.66-5,7.49-4.33,8.66-5,7.49-4.33,8.66-5,7.49-4.33,8.66-5,7.49-4.33,8.66-5,7.49-4.33,8.66-5,7.49-4.33,8.66-5,7.49-4.33,8.66-5,7.49-4.33,8.66-5,7.49-4.33,8.66-5,7.49-4.33,8.66-5,7.49-4.33,8.66-5,7.49-4.33,8.66-5,7.49-4.33,8.66-5,7.49-4.33,8.66-5,7.49-4.33,8.66-5,7.49-4.33,8.66-5,7.49-4.33,8.38-5.46,6.29-4.1,7.67-6.42,4.89-4.1.56-.5,6.72-7.4,3.59-3.95.47-.72"/>
        <path class="cls-1" d="M760.19,826.02l1.58.55,1.01.31,9.84,1.77,9.84,1.77,9.84,1.77,9.84,1.77,6.41,1.15,9.99.35,9.99.35,9.99.35,9.99.35,7.88.28,9.95-1.05,9.94-1.05,9.95-1.05,9.94-1.05,7.39-.78,9.68-2.52,9.68-2.52,9.68-2.52,9.68-2.52,5.01-1.3,1.27-.39,9.11-4.12,9.11-4.12,9.11-4.12,9.11-4.12,1.77-.8,8.66-5,8.66-5,8.66-5,8.66-5,8.66-5,3.37-1.95,8.66-5,8.66-5,8.66-5,8.66-5,8.66-5,3.37-1.95,8.66-5,8.66-5,8.66-5,8.66-5,8.66-5,3.37-1.95,8.66-5,8.66-5,8.66-5,8.66-5,8.66-5,3.37-1.95,8.66-5,8.66-5,8.66-5,8.66-5,8.66-5,3.37-1.95,8.66-5,8.66-5,8.66-5,8.66-5,8.66-5,3.37-1.95,8.66-5,8.66-5,8.66-5,8.66-5,8.66-5,3.37-1.95,8.66-5,8.66-5,8.66-5,8.66-5,8.66-5,3.37-1.95,8.66-5,8.66-5,8.66-5,8.66-5,8.66-5,3.37-1.95,8.66-5,8.66-5,8.66-5,8.66-5,8.66-5,3.37-1.95,8.66-5,8.66-5,8.66-5,8.66-5,8.66-5,3.37-1.95,8.66-5,8.66-5,8.66-5,8.66-5,8.66-5,3.37-1.95,8.66-5,8.66-5,8.66-5,8.66-5,8.66-5,3.37-1.95,8.66-5,8.66-5,8.66-5,8.66-5,8.66-5,3.37-1.95,8.66-5,8.66-5,8.66-5,8.66-5,8.66-5,3.37-1.95,8.66-5,8.66-5,8.66-5,8.66-5,8.66-5,3.37-1.95,8.66-5,8.66-5,8.66-5,8.66-5,8.66-5,3.37-1.95,8.66-5,8.66-5,8.66-5,8.66-5,8.66-5,3.37-1.95,8.05-5.94,8.05-5.94,4.97-3.67,4.32-3.18.3-.22,4.25-3.14,1.6-1.49,6.15-7.89,6.15-7.89,6.14-7.89,1.67-2.15,1.12-2.17,3.02-9.53,3.02-9.53,2.84-8.94.4-2.53v-11l-1.04-9.95-1.04-9.95-.9-8.59-4.75-8.8-1.04-1.93"/>
        <path class="cls-1" d="M849.36,820.36l-9.99-.35-9.99-.35-9.99-.35-9.99-.35-1.89-.07-9.84-1.77-4-.72"/>
        <path class="cls-1" d="M1888.76,224.28l-3.02,9.53-3.02,9.53-2.85,9-6.15,7.89-6.14,7.89-1.16,1.49-2.7,3.47-.26.33-1.47,1.89-2.38,3.05-8.05,5.93-8.05,5.94-8.05,5.94-6.3,4.65-8.66,5-8.66,5-8.66,5-8.66,5-8.66,5-8.66,5-8.66,5-8.66,5-8.66,5-8.66,5-8.66,5-8.66,5-8.66,5-8.66,5-8.66,5-8.66,5-8.66,5-8.66,5-8.66,5-8.66,5-8.66,5-8.66,5-8.66,5-8.66,5-8.66,5-8.66,5-8.66,5-8.66,5-8.66,5-8.66,5-8.66,5-8.66,5-8.66,5-8.66,5-8.66,5-8.66,5-8.66,5-8.66,5-8.66,5-8.66,5-8.66,5-8.66,5-8.66,5-8.66,5-8.66,5-8.66,5-8.66,5-8.66,5-8.66,5-8.66,5-8.66,5-8.66,5-8.66,5-8.66,5-8.66,5-8.66,5-8.66,5-8.66,5-8.66,5-8.66,5-8.66,5-8.66,5-8.66,5-8.66,5-8.66,5-8.66,5-8.66,5-8.66,5-8.66,5-8.66,5-8.66,5-8.66,5-8.66,5-8.66,5-8.66,5-8.66,5-8.66,5-8.66,5-8.66,5-8.66,5-8.66,5-8.66,5-8.66,5-8.66,5-8.66,5-8.66,5-8.66,5-8.66,5-8.66,5-8.66,5-8.66,5-8.66,5-8.66,5-8.66,5-8.66,5-8.66,5-8.73,5.04-9.11,4.12-9.11,4.12-9.11,4.12-9.11,4.12-2.43,1.1-9.68,2.52-9.68,2.52-7.79,2.02"/>
        <path class="cls-1" d="M496.69,826.73l7.23-6.9.87-.83,8.65-5.01,8.66-5.01,8.66-5.01,8.65-5.01,8.66-5.01,5.19-3,8.66-5.01,8.66-5.01,8.66-5.01,8.66-5,8.66-5.01,1.51-.87,9.45-3.27,5.58-1.93,8.66-5,2.19-1.27.8-.46,1.68-1.41,1.86-1.56,1.03-.86.12-.1.31-.26,5.82-4.87,2.08-2.99,5.19-7.46.48-.68,2.07-9.78.45-2.13-2.36-9.72-.53-2.17-2.97-4.06-5.12-7-8.03-5.97-4.72-3.51-9.16-4.02-7.39-3.24-9.73-2.3-9.49-2.24-9.97-.74-9.97-.74-.66-.05-9.97.77-9.97.77-.65.05-9.72,2.34-9.46,2.27-9.14,4.06-7.33,3.26-8.66,5-8.66,5-8.66,5-8.66,5-8.66,5-8.66,5-8.66,5-8.66,5-8.66,5-8.66,5-8.66,5-8.66,5-8.66,5-8.66,5-9.12,5.27-8,6-4.56,3.42-5.88,8.09-2.09,2.88-2.36,9.72-.5,2.06,2.02,9.79.42,2.01,5.65,8.25.09.14,1.83,2.67,6.31,4.94.32.25.05.04.12.1,5.41,4.24,9.07,4.21,6.97,3.24,9.69,2.49,9.12,2.34,9.88,1.55,3.66.57,9.99.5,3.65.18,9.98-.58,3.4-.2,9.85-1.71,2.92-.51,9.56-2.93,2.29-.7,9.06-4.23,1.51-.71,8.09-5.49.91-.62"/>
        <path class="cls-1" d="M372.58,824.46l-.1-.14-.03-.04-.24-.33-5.83-8.13-.39-1.72-2.05-9,2.22-9.75.22-.97,5.83-8.13,1.34-1.86,7.99-6.02,3.4-2.56,8.66-5,8.66-5,8.66-5,8.66-5,8.66-5,8.66-5,8.66-5,8.66-5,8.66-5,8.66-5,8.66-5,8.66-5,8.66-5,8.66-5,9.12-5.27,9.14-4.05,5.7-2.53,9.73-2.33,7.56-1.81,9.97-.76,8.58-.65,9.97.76,8.58.65,9.72,2.33,7.56,1.81,9.14,4.05,5.7,2.53,7.99,6.02,3.4,2.56,5.83,8.13,1.34,1.86,2.22,9.75.22.97-2.22,9.75-.22.97-5.83,8.13-.24.34-.02.03-.83,1.15"/>
        <path class="cls-1" d="M497.6,826.11l7.11-7.03.08-.08"/>
        <path class="cls-1" d="M45.11,1012.5l9.38-3.46,9.38-3.46,9.38-3.46,9.38-3.46,3.23-1.19,9.29-3.69,9.29-3.69,9.29-3.69,9.29-3.69,6.3-2.5,9.16-4.01,9.16-4.01,9.16-4.01,9.16-4.01,9.16-4.01,9.16-4.01,9.16-4.01,9.16-4.01,9.16-4.01,8.33-3.64,8.97-4.41,8.97-4.41,8.98-4.41,8.97-4.41,8.97-4.41,8.97-4.41,8.97-4.41,8.97-4.41,8.98-4.41,8.97-4.41,2.92-1.43,8.84-4.68,8.84-4.67,8.84-4.67,8.84-4.68,8.84-4.67,4.3-2.27,8.77-4.81,8.77-4.81,8.77-4.81,8.77-4.81,8.77-4.81,7.73-4.24"/>
        <path class="cls-1" d="M687.12,573.38l-8.66,5-8.66,5-8.66,5-8.66,5-8.66,5-8.66,5-8.66,5-8.66,5-8.66,5-8.66,5-8.66,5-8.66,5-8.66,5-8.66,5-8.66,5-8.66,5-8.66,5-8.66,5-8.66,5-8.66,5-8.66,5-8.66,5-8.66,5-8.66,5-8.66,5-8.66,5-8.66,5-8.66,5-8.66,5-8.66,5-8.66,5-8.66,5-8.66,5-8.66,5-8.66,5-8.66,5-8.66,5-8.66,5-8.66,5-8.66,5-8.66,5-8.66,5-8.66,5-8.66,5-8.66,5-8.66,5-8.66,5-8.66,5-8.66,5-8.66,5-13.04,7.53-8.39,5.43-8.39,5.44-8.39,5.43-8.39,5.43-8.39,5.44-8.39,5.43-8.39,5.43-3.36,2.17-7.74,6.33-7.74,6.33-7.74,6.33-7.74,6.33-7.74,6.33-7.74,6.33-7.38,6.04-6.88,7.26-6.88,7.26-6.88,7.26-6.88,7.26-6.88,7.26-6.88,7.26-3.55,3.74-5.77,8.17-5.77,8.17-5.77,8.17-5.77,8.16-5.77,8.17-5.77,8.17-.64.91-4.14,9.1-4.14,9.1-4.14,9.1-4.14,9.1-2.39,5.26-3.05,9.52-3.05,9.52-3.05,9.52-3.05,9.52-1.58,4.94-1.9,9.82-1.9,9.82-1.9,9.82-1.9,9.82-.94,4.85-.73,9.97-.73,9.97-.73,9.97-.73,9.97-.36,4.92-.04,9.84,9.77-2.11,9.77-2.11,9.77-2.11,3.6-.78,9.68-2.51,9.68-2.51,9.68-2.51,6.64-1.72,9.59-2.84,9.59-2.84,9.59-2.84,9.67-2.87,9.5-3.13,9.5-3.13,9.5-3.13,9.5-3.13,3.06-1.01,9.41-3.38,9.41-3.38,9.41-3.38,9.41-3.38,5.75-2.07,9.33-3.6,9.33-3.6,9.33-3.6,9.33-3.6,7.89-3.05,9.21-3.9,9.21-3.9,9.21-3.9,9.21-3.9,9.21-3.9,9.21-3.9,9.21-3.9,9.21-3.9,9.21-3.9,9.21-3.9,1.25-.53,9.04-4.28,9.04-4.28,9.04-4.28,9.04-4.28,9.04-4.28,9.04-4.28,9.04-4.28,9.04-4.28,9.04-4.28,9.04-4.28,3.69-1.75,8.87-4.62,8.87-4.62,8.87-4.62,8.87-4.63,8.87-4.62,8.87-4.62,8.87-4.62,8.87-4.62,8.87-4.63,8.87-4.62,6.97-3.63,8.76-4.82,8.76-4.82,8.76-4.82,8.76-4.82,8.76-4.82,6.51-3.58,8.72-4.9,8.72-4.9,8.72-4.9,8.72-4.9,8.71-4.9,8.72-4.9,1.03-.58,8.68-4.96,8.68-4.96,8.68-4.96,8.68-4.96,8.68-4.96,8.68-4.96,5.13-2.93,8.67-4.99,8.66-4.99,8.67-4.99,8.67-4.99,8.66-4.99,8.66-4.99,8.67-4.99,1.32-.76-5.01-8.66-.17-.29-4.4-8.98-2.26-4.63-.06-.46-.99-8.09-.52-4.25"/>
        <path class="cls-1" d="M732.66,608.29l-2.11.16-3.74-.03-2.16-.02-5.83-.52-.26-.04-4.18-.73-.72-.13-.27-.05-.21-.04-.19-.05-.92-.25-.3-.08-.72-.19-1.53-.41-1.69-.45-.85-.32-.2-.08-3.9-1.46-4.46-2.24-5.82-4.21-3.23-3.85-.84-1-2.12-5.25-.06-5.39.79-2.08"/>
        <path class="cls-1" d="M635.55,744.08l2.08.69,9.5,3.13,2.26.74,9.5,3.13,2.97.98,1.15.38.44.15.63.21,9.5,3.13,9.5,3.13,7.15,2.36,9.5,3.13,9.5,3.13,9.5,3.13,9.5,3.13,9.5,3.13,7.19,2.37"/>
        <path class="cls-1" d="M729.64,826.16l.32-2.01,1.32-8.24.33-2.05.32-1.98,3.34-9.43,2.15-6.07,4.18-9.08,3.31-7.18,8.45-5.35,5.12-3.25,9.33-3.6,7.42-2.86,9.79-2.03,9.16-1.9,9.98-.58,10.05-.59,9.97.83,9.97.83,9.73,2.29,8.92,2.1,9.9,1.41,9.9,1.41,3.79.54,6.68.43,6.61-.07,6.38-.84,6.26-1.87,8.89-4.57,5.6-2.88,8.54-5.2.85-.52,8.48-5.3,2.8-1.75,8.47-5.32,4.83-3.03,8.48-5.3,6.9-4.31,8.5-5.27,8.5-5.27,3.41-2.11,8.5-5.27,8.03-4.97,6.63-7.48,1.02-1.15"/>
        <path class="cls-1" d="M372.57,824.2l6.58-4.94,8.66-5,8.66-5,8.66-5,8.66-5,8.66-5,8.66-5,8.66-5,8.66-5,8.66-5,8.66-5,8.66-5,8.66-5,8.66-5,8.66-5,9.12-5.27,9.14-4.06,7.33-3.26,9.72-2.34,9.46-2.27,9.97-.77,9.97-.77.65-.05,9.97.74,9.97.74.66.05,9.73,2.3,9.49,2.24,9.16,4.02,7.39,3.24,6.93,5.15"/>
        <path class="cls-1" d="M629.1,749.01l-.07-.1-1-1.39-7.99-6.02-3.4-2.56-9.14-4.05-5.7-2.53-9.73-2.33-7.56-1.81-9.97-.76-8.58-.65-9.97.76-8.58.65-9.72,2.33-7.56,1.81-9.14,4.05-5.7,2.53-8.66,5-8.66,5-8.66,5-8.66,5-8.66,5-8.66,5-8.66,5-8.66,5-8.66,5-8.66,5-8.66,5-8.66,5-8.66,5-8.66,5-9.12,5.27-7.99,6.02-3.4,2.56-.98,1.37-.09.12"/>
        <path class="cls-1" d="M731.14,838.51l.8-2.07,5.49-2.57,7.46,1.41,4.84-3.07,1.61-1.02.07-.05,4.13-2.62,2.91-1.84.35-.13,1.38-.53,2.95-1.14,9.33-3.59,2.75-1.06,9.79-2.03,8.63-1.79.53-.11,9.98-.58,10.05-.59,9.97.83,9.97.83,9.73,2.29,5.48,1.29,3.44.81,9.9,1.4,9.9,1.41,3.79.54,6.68.43,6.61-.07,6.38-.84,6.26-1.87,8.89-4.57,5.6-2.88,6.39-3.89,3-1.83,8.48-5.3,2.8-1.75,8.47-5.32,4.83-3.03,8.48-5.3,6.9-4.31,8.5-5.27,8.5-5.27,8.5-5.27,8.5-5.26,2.94-1.82,6.63-7.48,6.63-7.48,6.63-7.48,1.87-2.11,3.72-9.28,3.72-9.28,2.94-7.35.39-.97v-17.65"/>
        <path class="cls-1" d="M626.41,751.72l-2.48,1.87"/>
        <path class="cls-1" d="M1374.03,463.39l-8.66,5-8.66,5-8.66,5-8.66,5-8.66,5-8.66,5-8.66,5-8.66,5-8.66,5-8.66,5-8.66,5-8.66,5-8.66,5-8.66,5-8.66,5-8.66,5-8.66,5-8.66,5-8.66,5-8.66,5-8.66,5-8.66,5-8.66,5-8.66,5-8.66,5-8.66,5-8.66,5-8.66,5-8.66,5-10.11,5.84"/>
        <path class="cls-1" d="M1387.74,467.18l-8.66,5-8.66,5-8.66,5-8.66,5-8.66,5-8.66,5-8.66,5-8.66,5-8.66,5-8.66,5-8.66,5-8.66,5-8.66,5-8.66,5-8.66,5-8.66,5-8.66,5-8.66,5-8.66,5-8.66,5-8.66,5-8.66,5-8.66,5-8.66,5-8.66,5-8.66,5-8.66,5-8.66,5-8.66,5-8.66,5-8.66,5-6.51,3.76"/>
      </g>
    </g>
  </g>
</svg>