<?xml version="1.0" encoding="UTF-8"?>
<svg id="Layer_2" data-name="Layer 2" xmlns="http://www.w3.org/2000/svg" viewBox="0 0 1715.63 1035.39">
  <defs>
    <style>
      .cls-1 {
        fill: none;
        stroke: #000;
        stroke-linecap: round;
        stroke-linejoin: round;
      }
    </style>
  </defs>
  <g id="Layer_1-2" data-name="Layer 1">
    <g id="ViewLayer_LineSet" data-name="ViewLayer LineSet">
      <g id="strokes">
        <path class="cls-1" d="M1698.8,367.78l.73-.25.41-.15.56-.31,1.37-.77,1.37-.79,2.08-1.45,1.64-1.25,1.83-1.8,1.58-2.13,1.12-1.78,1.29-2.4,1.01-2.68.73-2.95.44-3.19.15-3.38v-1.56s-.13-3.4-.13-3.4l-.43-3.53-.7-3.63-.97-3.69-1.23-3.71-1.48-3.7-1.72-3.67-1.93-3.58-2.13-3.46-2.31-3.32-2.47-3.13-2.6-2.93-2.71-2.69-2.79-2.42-2.85-2.14-2.93-1.94-3.02-1.83-3.2-1.85-8.66-5-8.66-5-8.66-5-8.66-5-8.66-5-8.66-5-8.66-5-8.66-5-8.66-5-8.66-5-8.66-5-8.66-5-8.66-5-8.66-5-8.66-5-8.66-5-8.66-5-8.66-5-8.66-5-8.66-5-8.66-5-8.66-5-8.66-5-8.66-5-8.66-5-8.66-5-8.66-5-6.28-3.63-8.66-5-8.66-5-8.66-5-8.66-5-8.66-5-8.66-5-.77-.44-8.66-5-8.66-5-8.58-4.96-7.14-4.12-8.66-5-8.66-5-8.66-5-8.66-5-8.66-5-8.66-5-8.66-5-8.66-5-8.66-5-8.66-5-8.66-5-8.66-5-8.66-5-8.66-5-8.66-5-8.66-5-8.66-5-7.12-4.11-3.2-1.85-1.35-.77-3.05-1.68-3.03-1.49-2.98-1.21-2.92-.84-2.83-.47-2.72-.09-2.11.07-2.64.31-2.48.69-1.91.79-2.3,1.08-1.37.79-.81.5-.33.2-.78.48"/>
        <path class="cls-1" d="M15.7,668.01l-.56.31-1.38.76-1.37.79-2.08,1.45-1.63,1.26-1.84,1.79-1.58,2.14-1.12,1.78-1.29,2.4-1.01,2.69-.73,2.94-.44,3.18-.14,3.39v1.56s.13,3.4.13,3.4l.42,3.53.7,3.62.97,3.69,1.24,3.72,1.48,3.7,1.71,3.66,1.93,3.58,2.13,3.46,2.31,3.31,2.47,3.14,2.6,2.92,2.71,2.69,2.8,2.42,2.85,2.13,2.93,1.94,3.02,1.83,3.2,1.85,8.66,5,8.66,5,8.66,5,8.66,5,8.66,5,8.66,5,4.25,2.46,8.56,4.95,8.66,5,8.66,5,8.66,5,8.66,5,8.66,5,8.66,5,8.66,5,8.66,5,8.66,5,8.66,5,8.66,5,8.66,5,7.68,4.44,8.66,5,8.69,5.02,8.66,5,8.66,5,8.66,5,8.66,5,8.66,5,3.08,1.78,8.66,5,8.66,5,8.66,5,8.66,5,8.66,5,3.08,1.78,8.66,5,8.66,5,8.66,5,8.66,5,8.66,5,1.89,1.09,8.66,5,2.98,1.72,8.66,5,2.4,1.39,8.66,5,2.39,1.38,8.66,5,2.4,1.39,8.66,5,2.4,1.39,8.66,5,3.61,2.08,6.02,3.48,8.56,4.95,8.66,5,8.66,5,8.66,5,8.66,5,8.66,5,8.66,5,8.66,5,5.19,3,3.2,1.85,1.35.78,3.05,1.67,3.03,1.49,2.99,1.22,2.92.85,2.83.46,2.73.09,2.1-.08,2.65-.3,2.48-.69,1.9-.8,2.3-1.08,1.37-.79.81-.49.65-.41.44-.27,2.56-1.59"/>
        <path class="cls-1" d="M524.15,998.09l-.04.46-.2,2.56-.03.43-.81,3.03-1.33,2.51-1.8,1.93-2.22,1.28-2.57.6-2.85-.12-3.03-.81-3.12-1.49-8.66-5-5.3-3.06-3.12-2.12-3.03-2.69-2.85-3.17-2.57-3.57-2.22-3.84-1.8-4-1.33-4.04-.81-3.97-.27-3.76.27-3.45.81-3.03,1.33-2.52,1.8-1.93,2.22-1.28,2.57-.59,2.85.11,3.03.81.38.18,2.3,1.1.45.22,2.21,1.27,8.66,5,3.1,1.79,3.12,2.12,3.03,2.69,2.85,3.18,2.57,3.56,2.22,3.84,1.8,4,1.33,4.05.81,3.97.17,2.41.1,1.35"/>
        <path class="cls-1" d="M552.6,1030.26l.47-.29,2.65-1.61,3.21-2.16,3.56-2.45.35-.24,1.02-.7,1.9-1.3"/>
        <path class="cls-1" d="M563.84,1022.81l1.8-1.21,3.08-1.85,3.28-1.89,8.66-5,8.66-5,8.66-5,8.66-5,8.66-5,8.66-5,8.66-5,8.66-5,8.66-5,8.66-5,8.66-5,8.66-5,8.66-5,8.66-5,8.66-5,8.66-5,8.66-5,8.66-5,8.66-5,8.66-5,8.66-5,8.66-5,8.66-5,8.66-5,8.66-5,8.66-5,8.66-5,8.66-5,8.66-5,8.66-5,8.66-5,8.66-5,8.66-5,8.66-5,8.66-5,8.66-5,8.66-5,8.66-5,8.66-5,8.66-5,8.66-5,8.66-5,8.66-5,8.66-5,8.66-5,8.66-5,8.66-5,8.66-5,8.66-5,8.66-5,8.66-5,8.66-5,8.66-5,8.66-5,8.66-5,8.66-5,8.66-5,8.66-5,8.66-5,8.66-5,8.66-5,8.66-5,8.66-5,13.13-7.59,8.66-5,8.66-5,8.66-5,8.66-5,8.66-5,8.66-5,8.66-5,8.66-5,8.66-5,8.66-5,8.66-5,8.66-5,8.66-5,8.66-5,8.66-5,8.66-5,8.66-5,8.66-5,8.66-5,8.66-5,8.66-5,8.66-5,8.66-5,8.66-5,8.66-5,8.66-5,8.66-5,8.66-5,8.66-5,8.66-5,8.66-5,8.66-5,8.66-5,8.66-5,8.66-5,11.02-6.37,7.13-4.12,8.66-5,8.66-5,8.66-5,8.66-5,8.66-5,8.66-5,8.66-5,8.66-5,8.66-5,8.66-5,8.66-5,8.66-5,8.66-5,8.66-5,8.66-5,8.66-5,8.66-5,8.66-5,8.66-5,6.67-3.85,7.14-4.12,8.66-5,8.66-5,8.66-5,8.66-5,8.66-5,8.66-5,7.15-4.13,3.27-1.89,2.73-1.51.98-.43.53-.23.65-.28,1.37-.45.18-.06.73-.16"/>
        <path class="cls-1" d="M1691.75,330.36l-.28.21-3.26,1.88-8.66,5-8.66,5-8.66,5-5.66,3.27-.13.07-.14.08-.57.33-.49.28-8.66,5-8.66,5-8.81,5.09-7.14,4.12-8.66,5-8.66,5-8.66,5-8.66,5-8.66,5-8.66,5-8.66,5-8.66,5-8.66,5-8.66,5-8.66,5-8.66,5-8.66,5-8.66,5-8.66,5-8.66,5-8.66,5-8.66,5-8.66,5-6.67,3.85-7.14,4.12-8.66,5-8.66,5-8.66,5-8.66,5-8.66,5-8.66,5-8.66,5-8.66,5-8.66,5-8.66,5-8.66,5-8.66,5-8.66,5-8.66,5-8.66,5-8.66,5-8.66,5-8.66,5-8.66,5-8.66,5-8.66,5-8.66,5-8.66,5-8.66,5-8.66,5-8.66,5-8.66,5-8.66,5-8.66,5-8.66,5-8.66,5-8.66,5-8.66,5-8.66,5-8.66,5-11.02,6.37-8.66,5-8.66,5-8.66,5-8.66,5-8.66,5-8.66,5-8.66,5-8.66,5-8.66,5-8.66,5-8.66,5-8.66,5-8.66,5-8.66,5-8.66,5-8.66,5-8.66,5-8.66,5-8.66,5-8.66,5-8.66,5-8.66,5-8.66,5-8.66,5-8.66,5-8.66,5-8.66,5-8.66,5-8.66,5-8.66,5-8.66,5-8.66,5-8.66,5-8.66,5-8.66,5-8.66,5-8.66,5-8.66,5-8.66,5-8.66,5-8.66,5-8.66,5-8.66,5-8.66,5-8.66,5-8.66,5-8.66,5-8.66,5-8.66,5-8.66,5-8.66,5-8.66,5-8.66,5-8.66,5-8.66,5-8.66,5-8.66,5-8.66,5-8.66,5-8.66,5-8.66,5-8.66,5-8.66,5-13.13,7.59-3.26,1.88-2.9,1.23"/>
        <path class="cls-1" d="M565.02,981.06l-.23.03-2.76.32"/>
        <path class="cls-1" d="M555.73,979.72l-2.03-1.33-1.18-.77-2.9-2.63-2.58-3.06-2.64-3.35-2.79-3.14-2.9-2.87-2.99-2.59-3.05-2.29-3.08-2.04-3.07-1.86-3.2-1.85-8.66-5-8.66-5-8.66-5-8.66-5-8.66-5-8.66-5-8.66-5-5.19-3-8.56-4.95-6.02-3.48-8.66-5-3.61-2.08-8.66-5-2.4-1.39-8.66-5-2.4-1.39-8.66-5-2.39-1.38-8.66-5-2.4-1.39-8.66-5-2.98-1.72-8.66-5-8.66-5-8.66-5-2.58-1.49-8.66-5-.21-.12-4.05-2.34-3.71-2.14-8.66-5-8.66-5-8.66-5-7.69-4.44-4.05-2.34-8.59-4.96-.08-.04-8.66-5-8.66-5-8.66-5-8.66-5-8.66-5-3.08-1.78-8.66-5-8.69-5.02-8.66-5-8.66-5-8.66-5-8.66-5-8.66-5-8.66-5-8.66-5-8.66-5-8.66-5-8.66-5-8.66-5-8.66-5-7.67-4.43-8.56-4.95-8.66-5-8.66-5-8.66-5-8.66-5-4.65-2.69-.09-.05-.08-.05-.04-.02-.16-.1-8.66-5-7.9-4.56-3.2-1.85-3.07-1.69-3.08-1.52-3.05-1.24-2.99-.86-2.9-.48-.27-.04-2.12-.06h-.05s-.08,0-.08,0l-.55-.02-1.18.14-1.48.17-.37.08-1.11.25-.51.12-.32.1h-.02s-.06.02-.06.02l-.2.07-.88.31.41-.15.47-.16"/>
        <path class="cls-1" d="M562.1,981.41h-.07s-3.22-.54-3.22-.54h0s-3.21-1.24-3.21-1.24l-1.91-1.24"/>
        <path class="cls-1" d="M208.69,815.82l-.34,2.85-1.02,2.25-1.62,1.5-2.12.65-2.45-.24-2.65-1.13-8.66-5-8.66-5-8.66-5-8.66-5-8.66-5-8.66-5-8.66-5-8.66-5-8.66-5-5.75-3.32-2.64-1.93-2.46-2.6-2.11-3.09-1.63-3.38-1.02-3.43-.34-3.24.34-2.85,1.02-2.25,1.63-1.5,2.11-.66,2.46.24,2.64,1.13.75.43,8.66,5,8.66,5,8.66,5,8.66,5,8.66,5,8.66,5,8.66,5,8.66,5,8.66,5,5,2.89,2.65,1.93,1.71,1.81.74.78,2.12,3.1,1.62,3.37.68,2.29h0l.34,1.14.3,2.8.05.45"/>
        <path class="cls-1" d="M372.95,900.3l-1.07-.45h-.06s-.94-.1-.94-.1l-.86.26-.66.6-.41.91-.14,1.16v11.29l.14,1.31.41,1.39.66,1.37.86,1.25,1,1.05,1.07.78,1.07.45,1,.1.86-.26.66-.61.39-.87.02-.04.14-1.15v-11.36s-.14-1.25-.14-1.25l-.41-1.39-.66-1.37-.86-1.25h0s-.99-1.05-.99-1.05l-.79-.57-.28-.21"/>
        <path class="cls-1" d="M377.08,907.41v10.74l-.12,1.01-.36.79-.57.53-.75.23-.86-.09-.93-.4-.93-.68-.87-.92-.75-1.1-.57-1.19-.36-1.21-.12-1.15v-11.29l.12-1,.36-.79.57-.54.75-.23.87.08.69.3"/>
        <path class="cls-1" d="M377.08,915.94l-.26-.28-.75-1.1-.57-1.19-.36-1.22-.12-1.15v-8.87"/>
        <path class="cls-1" d="M384.01,906.69l-1.07-.45h-.06s-.65-.07-.65-.07l-.29-.03-.86.26-.66.61-.41.91-.14,1.16v11.29l.13,1.31.41,1.39.66,1.37.86,1.25,1,1.06,1.07.78,1.07.45,1,.1.86-.26.66-.61.39-.87.02-.04.14-1.15v-11.36s-.14-1.25-.14-1.25l-.41-1.39-.66-1.37-.86-1.25h0s-.99-1.05-.99-1.05l-.79-.58-.28-.21"/>
        <path class="cls-1" d="M388.14,913.8v10.74l-.12,1.01-.36.79-.57.53-.75.23-.86-.09-.93-.4-.93-.68-.87-.92-.75-1.1-.57-1.19-.36-1.21-.12-1.15v-11.29l.12-1,.36-.79.57-.54.24-.07.51-.15.87.08.69.3"/>
        <path class="cls-1" d="M388.14,922.33l-.26-.28-.75-1.1-.57-1.19-.36-1.21-.12-1.15v-8.87"/>
        <path class="cls-1" d="M395.07,913.08l-1.07-.45h-.06s-.65-.07-.65-.07l-.28-.03-.86.26-.66.6-.41.91-.14,1.16v11.29l.14,1.31.41,1.39.66,1.37.86,1.25,1,1.05,1.07.78,1.07.45,1,.1.86-.26.66-.61.39-.87.02-.04.14-1.15v-11.36s-.14-1.25-.14-1.25l-.41-1.39-.66-1.37-.86-1.25h0s-.99-1.05-.99-1.05l-.78-.58-.29-.21"/>
        <path class="cls-1" d="M399.2,920.19v10.74l-.12,1.01-.36.79-.57.53-.75.23-.86-.09-.93-.4-.93-.68-.87-.91-.75-1.1-.57-1.19-.36-1.21-.12-1.15v-11.29l.12-1,.36-.8.57-.53.24-.07.51-.15.87.08.69.3"/>
        <path class="cls-1" d="M399.2,928.72l-.26-.28-.75-1.1-.57-1.19-.36-1.21-.12-1.15v-8.87"/>
        <path class="cls-1" d="M406.13,919.47l-1.07-.45h-.06s-.65-.07-.65-.07l-.29-.03-.86.26-.66.6-.41.91-.14,1.16v11.29l.14,1.31.41,1.39.66,1.37.86,1.25,1,1.05,1.07.78,1.07.45,1,.1.86-.26.66-.61.39-.87.02-.04.14-1.15v-11.36s-.14-1.25-.14-1.25l-.41-1.39-.66-1.37-.86-1.25h0s-.99-1.06-.99-1.06l-.79-.57-.28-.21"/>
        <path class="cls-1" d="M410.26,926.58v10.74l-.12,1.01-.36.79-.57.53-.75.23-.86-.09-.93-.4-.93-.68-.87-.91-.75-1.1-.57-1.19-.36-1.22-.12-1.15v-11.29l.12-1,.36-.79.57-.53.24-.07.51-.15.87.08.69.3"/>
        <path class="cls-1" d="M410.26,935.11l-.26-.28-.75-1.1-.57-1.19-.36-1.21-.12-1.15v-8.87"/>
        <path class="cls-1" d="M417.19,925.86l-1.07-.45h-.06s-.65-.07-.65-.07l-.29-.03-.86.26-.66.6-.41.91-.14,1.16v11.29l.13,1.31.41,1.39.66,1.37.86,1.25,1,1.05,1.07.78,1.07.45,1,.1.86-.26.66-.61.39-.87.02-.04.14-1.15v-11.36s-.14-1.25-.14-1.25l-.41-1.39-.66-1.37-.86-1.25h0s-.99-1.06-.99-1.06l-.78-.57-.28-.21"/>
        <path class="cls-1" d="M421.32,932.97v10.74l-.12,1.01-.36.79-.57.53-.74.24-.87-.09-.93-.4-.93-.68-.87-.91-.75-1.1-.57-1.19-.36-1.22-.12-1.15v-11.29l.12-1,.36-.79.57-.53.24-.07.51-.15.87.08.69.3"/>
        <path class="cls-1" d="M421.32,941.5l-.26-.28-.75-1.1-.57-1.19-.36-1.21-.12-1.15v-8.87"/>
        <path class="cls-1" d="M428.25,932.25l-1.07-.45h-.06s-.65-.07-.65-.07l-.28-.03-.86.26-.66.6-.41.92-.14,1.15v11.29l.14,1.32.41,1.39.66,1.37.86,1.25,1,1.05,1.07.78,1.07.45,1,.1.86-.26.66-.61.39-.87.02-.04.14-1.15v-11.36s-.14-1.25-.14-1.25l-.41-1.39-.66-1.37-.86-1.25h0s-.99-1.06-.99-1.06l-.78-.57-.29-.21"/>
        <path class="cls-1" d="M432.38,939.36v10.74l-.12,1.01-.36.8-.58.52-.75.23-.86-.09-.93-.4-.93-.68-.87-.91-.75-1.1-.57-1.19-.36-1.21-.12-1.15v-11.29l.12-1,.36-.79.57-.54.24-.07.51-.15.87.08.69.3"/>
        <path class="cls-1" d="M432.38,947.89l-.26-.28-.75-1.1-.57-1.19-.36-1.22-.12-1.15v-8.87"/>
        <path class="cls-1" d="M223.2,824.2l-.16,1.04-.07.48-.66,1.11-1.03.59h-1.29s-1.43-.55-1.43-.55l-1.43-1.09-1.29-1.5-1.03-1.78-.66-1.87-.23-1.79.23-1.52.66-1.11,1.03-.59h1.29s.44.16.44.16l.99.39.38.29,1.05.79,1.16,1.36.13.16,1.03,1.78.07.19.59,1.68.17,1.31.06.47"/>
        <path class="cls-1" d="M216.11,816.62l.86-.5h1.09s.88.34.88.34"/>
        <path class="cls-1" d="M223.14,823.73l-.14.93-.56.94-.87.5h-1.09s-1.21-.47-1.21-.47l-1.21-.92-1.09-1.27-.86-1.5-.56-1.58-.19-1.5.19-1.29.56-.94"/>
        <path class="cls-1" d="M222.38,820.74l-.25-.29-.86-1.5-.12-.34"/>
        <path class="cls-1" d="M106.04,755.69l.32-2.65.95-2.09,1.51-1.4,1.96-.6,2.29.23,2.49,1.06"/>
        <path class="cls-1" d="M208.64,815.37l-.28,2.26-.95,2.09-1.51,1.4-1.96.6-2.29-.23-2.5-1.06"/>
        <path class="cls-1" d="M106.04,756.51l.05-.38.25-2.06.88-1.93,1.39-1.3,1.82-.55,2.11.21,2.36,1.01,8.66,5,8.66,5,8.66,5,8.66,5,8.66,5,8.66,5,8.66,5,8.66,5,8.66,5,5.56,3.21,2.36,1.72.94.99,1.18,1.25,1.81,2.65,1.39,2.9.84,2.81.04.13.3,2.79-.3,2.45-.88,1.93-1.39,1.29-1.81.56-2.12-.21-2.36-1h0s-8.66-5.01-8.66-5.01l-8.66-5-8.66-5-8.66-5-8.66-5-8.66-5-8.66-5-8.66-5-8.66-5-5.57-3.22-2.36-1.73-2.11-2.23-1.82-2.66-1.39-2.9-.88-2.95-.3-2.79v-.82"/>
        <path class="cls-1" d="M198.39,820l.76.44"/>
        <path class="cls-1" d="M199.09,804.92l.38.29,1.05.8,1.16,1.36.13.15,1.03,1.78.07.19.59,1.68.17,1.31.06.47"/>
        <path class="cls-1" d="M199.09,804.92l-1-.39-.44-.17h-1.29s-1.03.6-1.03.6l-.66,1.11-.23,1.52.23,1.79.66,1.87,1.03,1.78,1.29,1.5,1.43,1.09,1.43.57h1.29s1.03-.6,1.03-.6l.66-1.11.07-.48.16-1.04"/>
        <path class="cls-1" d="M196.64,805.37l.86-.5h1.09s.88.34.88.34"/>
        <path class="cls-1" d="M203.67,812.48l-.14.93-.56.94-.87.5h-1.09s-1.21-.47-1.21-.47l-1.21-.92-1.09-1.27-.86-1.5-.56-1.58-.19-1.5.19-1.29.56-.94"/>
        <path class="cls-1" d="M202.91,809.49l-.25-.29-.86-1.5-.12-.34"/>
        <path class="cls-1" d="M524.06,996.75l-.15,1.91-.65,2.43-.06.24-1.17,2.21-1.58,1.69h0s-1.96,1.13-1.96,1.13l-2.26.52-.38-.02"/>
        <path class="cls-1" d="M482.19,959.61l.88-.51,1.07-.62,2.26-.52,2.51.1.22.06,2.45.66,2.82,1.34"/>
        <path class="cls-1" d="M480.43,961.63l.17-.33,1.58-1.7"/>
        <path class="cls-1" d="M513.4,1007.25l.67.03,1.77-.41.42-.1.54-.21.36-.2,1.54-.89,2.26-1.31"/>
        <path class="cls-1" d="M520.96,1004.16l1.53-1.64.76-1.43"/>
        <path class="cls-1" d="M483.43,959.65l-1.9,1.1-.37.21-.45.37-.29.31-1.24,1.33-.24.44-.21.41-.89,1.71"/>
        <path class="cls-1" d="M478.74,963.81l-.69,1.3-.21.41-.68,2.55-.24,2.89.24,3.17.02.29.67,3.26,1.07,3.34,1.47,3.3,1.83,3.16,2.12,2.93,2.33,2.61,2.48,2.22,2.7,1.85,3.4,1.99,3.43,1.98,3.44,1.99,3.42,1.95.34.19,2.75,1.3,2.55.69,2.22.08h.17"/>
        <path class="cls-1" d="M1109.47,88.96l-.06.41v9.39"/>
        <path class="cls-1" d="M1248.63,88.96l.06.41-.63,4.7-.22,1.6-2.56,6.14-4.17,5.83-2,1.88-.1.09-.11.1-.43.41-3.07,2.9-7.1,4.8-8.31,4.1-9.32,3.3-9.73,2.32-.37.09-9.9,1.38-.72.1-9.99.45-.9.04-9.99-.45-.91-.04-9.91-1.38-.72-.1-9.72-2.33-.36-.09-9.32-3.3-8.31-4.1-7.1-4.8-5.71-5.38-4.18-5.83-2.56-6.14-.22-1.6-.63-4.69"/>
        <path class="cls-1" d="M1248.68,98.76v-9.39"/>
        <path class="cls-1" d="M988.75,158.7l-.06.41v9.39"/>
        <path class="cls-1" d="M1127.91,158.71l.06.41-.63,4.7-.22,1.6-2.55,6.13-4.18,5.84-5.71,5.38-7.1,4.8-8.3,4.1-9.32,3.3-9.73,2.32-.37.09-9.91,1.38-.71.1-9.99.45-.91.04-9.99-.45-.9-.04-9.91-1.38-.72-.1-9.73-2.32-.37-.09-9.32-3.3-8.31-4.11-7.11-4.8-5.71-5.38-4.17-5.83-2.55-6.14-.22-1.62-.64-4.67"/>
        <path class="cls-1" d="M1127.97,168.51v-9.39"/>
        <path class="cls-1" d="M868.12,228.4l-.06.41v6.98s0,2.4,0,2.4"/>
        <path class="cls-1" d="M1007.29,228.4l.06.41-.64,4.7-.22,1.6-2.56,6.13-4.18,5.84-5.71,5.38-7.09,4.8-5.36,2.64-2.96,1.46-8.56,3.03-.76.27-9.73,2.33-.38.09-3.35.47-7.26,1.01h-.01s-9.99.46-9.99.46l-.91.04-9.99-.45-.9-.04-9.9-1.38-.73-.1-9.72-2.33-.36-.09-2.04-.72-4.13-1.46-.44-.15-2.7-.96-2.84-1.4-3.98-1.97-1.48-.73-7.1-4.8-5.71-5.38-4.18-5.83-2.55-6.14-.22-1.6-.64-4.69"/>
        <path class="cls-1" d="M1244.49,153.57h0v4.94"/>
        <path class="cls-1" d="M1339.12,157.53v.82s-.03.09-.03.09l-1.41,4.62-1.58,2.51-.07.11-.08.12-.31.48-.8,1.28-4.14,4.14-5.32,3.67-6.34,3.07-7.16,2.39-7.78,1.64-8.15.83h-8.28s-8.16-.83-8.16-.83l-7.78-1.63-7.17-2.4-6.34-3.07-5.32-3.67-4.14-4.14-2.83-4.5-1.41-4.63-.02-.08v-4.78"/>
        <path class="cls-1" d="M1120.48,225.22h0v4.94"/>
        <path class="cls-1" d="M1120.48,230.16v4.12"/>
        <path class="cls-1" d="M1215.11,229.18v.82l-.02.08-1.42,4.63-2.83,4.49-4.15,4.14-5.32,3.67-6.35,3.07-7.16,2.39-7.78,1.64-8.15.83h-8.28s-8.15-.83-8.15-.83l-7.78-1.63-7.17-2.4-6.34-3.07-5.33-3.67-4.14-4.14-2.83-4.5-1.41-4.63-.03-.08v-4.78"/>
        <path class="cls-1" d="M1227.93,117.21l-8.26,4.07-9.25,3.27-9.72,2.33-.3.07-9.91,1.37-.64.09-9.99.46-.83.04-9.99-.46-.83-.04-9.91-1.37-.64-.09-9.72-2.33-.3-.07-9.25-3.27-8.26-4.07"/>
        <path class="cls-1" d="M1107.22,186.95l-8.26,4.07-9.25,3.27-9.73,2.33-.29.07-9.9,1.37-.65.09-9.99.46-.83.04-9.99-.46-.83-.04-9.91-1.37-.64-.09-9.72-2.33-.3-.07-9.25-3.27-8.25-4.07"/>
        <path class="cls-1" d="M986.6,256.65l-5.37,2.65-2.89,1.42-4.88,1.73-4.37,1.55-9.72,2.33-.29.07-1.25.17-7.58,1.05-1.72.24-9.99.45-.82.04-9.99-.46-.83-.04-9.9-1.37-.64-.09-9.73-2.33-.31-.07-3.2-1.13-2.77-.98-.86-.31-2.41-.85-2.78-1.37-4.52-2.23-.95-.47"/>
        <path class="cls-1" d="M1325.03,174.75l-6.27,3.04-7.09,2.37-7.7,1.62-8.07.82h-8.19s-8.07-.82-8.07-.82l-7.7-1.62-7.09-2.37-6.27-3.04"/>
        <path class="cls-1" d="M1201.02,246.4l-6.28,3.04-7.09,2.37-7.7,1.62-8.07.82h-8.19l-8.06-.82-7.71-1.62-7.09-2.37-6.26-3.04"/>
        <path class="cls-1" d="M553.06,1029.97l.09-.04.31-.17,4.22-2.39,8.66-5,1.52-.88,8.66-5,8.66-5,8.66-5,8.66-5,8.66-5,8.66-5,8.66-5,8.66-5,8.66-5,8.66-5,8.66-5,8.66-5,8.66-5,8.66-5,8.66-5,8.66-5,8.66-5,8.66-5,8.66-5,8.66-5,8.66-5,8.66-5,8.66-5,8.66-5,8.66-5,8.66-5,8.66-5,8.66-5,8.66-5,8.66-5,8.66-5,8.66-5,8.66-5,8.66-5,8.66-5,8.66-5,8.66-5,8.66-5,8.66-5,8.66-5,8.66-5,8.66-5,8.66-5,8.66-5,8.66-5,8.66-5,8.66-5,8.66-5,8.66-5,8.66-5,8.66-5,8.66-5,8.66-5,8.66-5,8.66-5,8.66-5,8.66-5,8.66-5,8.66-5,8.66-5,8.66-5,8.66-5,8.66-5,13.13-7.59,8.66-5,8.66-5,8.66-5,8.66-5,8.66-5,8.66-5,8.66-5,8.66-5,8.66-5,8.66-5,8.66-5,8.66-5,8.66-5,8.66-5,8.66-5,8.66-5,8.66-5,8.66-5,8.66-5,8.66-5,8.66-5,8.66-5,8.66-5,8.66-5,8.66-5,8.66-5,8.66-5,8.66-5,8.66-5,8.66-5,8.66-5,8.66-5,8.66-5,8.66-5,8.66-5,8.66-5,8.66-5,8.66-5,8.66-5,8.66-5,8.66-5,8.66-5,8.66-5,8.66-5,8.66-5,8.66-5,8.66-5,8.66-5,8.66-5,8.66-5,8.66-5,8.66-5,8.66-5,8.66-5,8.66-5,8.66-5,8.66-5,8.66-5,8.66-5,8.66-5,8.66-5,8.66-5,8.66-5,13.13-7.59,8.66-5,1.52-.88,2.57-1.52.23-.15.37-.24"/>
        <path class="cls-1" d="M1698.1,368.41l.21-.12.16-.12.32-.4.03-.04-.05-.19"/>
        <path class="cls-1" d="M1241.02,87.88v-1.47l-.77-5.6-.76-1.83-.88-2.11-.63-1.52-3.72-5.19-5.08-4.79-6.32-4.27-.71-.41-7.26-3.58h-.02s-8.15-2.9-8.15-2.9l-8.84-2.11-9.3-1.29-9.54-.43-9.54.43-9.3,1.29-7.48,1.79-1.36.33-.09.03-.13.05-1.5.53-2.02.72-4.42,1.56h-.02s-7.26,3.59-7.26,3.59l-.71.41-6.31,4.27-2.68,2.53-.52.49-.11.11-.25.23-.27.26-1.25,1.18-3.72,5.19-.63,1.52-.89,2.12-.76,1.82-.76,5.6v1.47"/>
        <path class="cls-1" d="M1142.6,115.36l-7.37-3.64-6.31-4.27-5.08-4.79-3.72-5.19-2.28-5.46-.66-4.82-.11-.78"/>
        <path class="cls-1" d="M1241.02,86.41l-.11.79-.66,4.82-2.28,5.46-3.72,5.19-2.67,2.52-.1.09-.11.1-.43.41-1.77,1.67-6.32,4.27-7.33,3.62"/>
        <path class="cls-1" d="M1120.3,157.63v-1.47l-.76-5.6-.76-1.82-.89-2.12-.63-1.52-3.72-5.19-5.08-4.79-6.32-4.27-.71-.41-7.26-3.58h-.02s-8.16-2.9-8.16-2.9l-8.84-2.11-9.3-1.29-9.54-.43-9.54.43-9.3,1.29-8.84,2.11-1.86.66-.45.16-.4.14-.18.07-.85.3-4.42,1.56h-.02s-7.26,3.59-7.26,3.59l-.71.41-6.31,4.27-2.68,2.53-.52.49-.11.1-.25.23-.27.26-1.25,1.18-3.72,5.19-.63,1.52-.89,2.12-.76,1.82-.76,5.6v1.53"/>
        <path class="cls-1" d="M1021.84,185.09l-7.32-3.62-6.32-4.27-5.08-4.79-3.72-5.19-2.27-5.47-.66-4.82-.11-.78"/>
        <path class="cls-1" d="M1120.3,156.15l-.11.78-.66,4.82-2.28,5.46-3.72,5.19-5.08,4.79-6.32,4.27-7.32,3.62"/>
        <path class="cls-1" d="M999.68,227.36v-1.51l-.76-5.6-.76-1.83-.88-2.11-.63-1.52-3.72-5.19-5.08-4.79-6.32-4.27-.71-.41-7.21-3.56-.06-.03-8.16-2.89-8.83-2.12-9.3-1.29-9.53-.44-9.54.43-9.3,1.29-8.83,2.11-1.86.66-.45.16-.41.14-.18.06-.85.3-4.41,1.56h-.02s-7.26,3.59-7.26,3.59l-.71.41-6.31,4.27-2.68,2.53-.52.49-.11.11-.25.23-.27.26-1.25,1.18-3.72,5.19-.63,1.51-.88,2.12-.76,1.82-.76,5.6v1.47"/>
        <path class="cls-1" d="M901.26,254.8l-2.36-1.16-5.01-2.47-4.48-3.03-1.83-1.24-5.08-4.79-3.44-4.8-.28-.39-2.28-5.46-.66-4.82-.11-.78"/>
        <path class="cls-1" d="M999.68,225.85l-.11.79-.65,4.81-2.28,5.46-.29.4-3.44,4.79-5.08,4.79-1.83,1.24-4.48,3.03-4.91,2.43-.67.33-1.74.86"/>
        <path class="cls-1" d="M1333.2,153.67v-1.57l-1.26-4.12-2.2-3.49-.28-.44-3.2-3.21-.41-.41-4.66-3.2-.71-.41-5.33-2.58-.09-.04-6.12-2.04-6.63-1.39-6.96-.71h-7.06l-6.96.71-4.01.84-.19.04-.21.04-.84.17-.7.15-.68.14-6.12,2.04-.13.06-5.29,2.56-.71.41-4.66,3.2-.41.41-3.2,3.21-.28.44-2.2,3.49-1.26,4.12v1.57"/>
        <path class="cls-1" d="M1267.85,173.8l-5.41-2.63-4.66-3.2-3.62-3.63-2.48-3.93-1.26-4.12v-4.19"/>
        <path class="cls-1" d="M1250.42,153.67h0v3.29"/>
        <path class="cls-1" d="M1333.2,152.11v1.56s0,2.63,0,2.63l-1.26,4.12-1.27,2.02-.07.11-.08.12-.3.48-.76,1.2-3.62,3.62-4.67,3.21-5.4,2.62"/>
        <path class="cls-1" d="M1209.18,228.6v-4.84l-1.26-4.12-2.2-3.49-.28-.44-3.21-3.21-.41-.41-4.65-3.21-.71-.41-5.29-2.56-.13-.06-6.13-2.04-6.64-1.39-6.96-.71h-7.07s-6.96.71-6.96.71l-6.64,1.4-6.12,2.04-.13.06-5.28,2.56-.71.41-4.66,3.2-.41.41-3.21,3.21-.28.44-2.2,3.49-1.26,4.12v1.57"/>
        <path class="cls-1" d="M1126.4,225.32h0v3.29"/>
        <path class="cls-1" d="M1143.83,245.45l-5.42-2.63-4.66-3.2-3.62-3.63-2.47-3.93-1.26-4.12v-4.19"/>
        <path class="cls-1" d="M1209.18,227.94h0l-1.26,4.12-2.48,3.93-3.62,3.62-4.66,3.2-5.42,2.63"/>
        <path class="cls-1" d="M1135.94,60.68l-6.21,4.2-2.71,2.55-.52.49-.11.1-.52.49-1.14,1.07-3.66,5.11-.86,2.08-.47,1.13-.9,2.16-.75,5.51.75,5.51,2.23,5.37,3.66,5.11,5,4.71,6.21,4.2,7.28,3.59,8.16,2.89,8.84,2.11,9.3,1.29,9.54.43,9.54-.43,9.3-1.29,8.84-2.11,8.15-2.89,7.27-3.59,6.21-4.2,1.32-1.24.43-.41.11-.1.1-.09,3.05-2.87,3.66-5.11,2.23-5.37.75-5.51-.75-5.51-.9-2.16-.47-1.13-.86-2.08-3.66-5.11-5-4.71-6.21-4.2"/>
        <path class="cls-1" d="M1015.22,130.42l-6.21,4.2-2.71,2.55-.52.49-.11.1-.52.49-1.14,1.07-3.66,5.11-.86,2.08-.47,1.13-.9,2.16-.75,5.51.76,5.51,2.23,5.38,3.66,5.11,5,4.71,6.21,4.2,7.27,3.59,8.16,2.89,8.84,2.11,9.3,1.29,9.53.44,9.54-.43,9.3-1.29,8.84-2.11,8.16-2.89,7.27-3.59,6.21-4.2,5-4.71,3.66-5.11,2.23-5.37.75-5.51-.75-5.51-.9-2.16-.47-1.13-.86-2.08-3.66-5.11-5-4.71-6.21-4.21"/>
        <path class="cls-1" d="M894.6,200.11l-6.21,4.21-2.71,2.55-.52.49-.11.11-.52.49-1.14,1.08-3.66,5.11-.86,2.06-.48,1.14-.9,2.16-.75,5.51.75,5.51.94,2.27,1.29,3.1,1.28,1.79,2.38,3.32,5,4.71,1.51,1.02,4.7,3.18,5.43,2.67h0s1.85.91,1.85.91l1.25.44,3.78,1.34,3.12,1.11,6.49,1.55,2.35.56,9.3,1.29,9.54.43,1.42-.07,6.57-.3,1.55-.07,9.3-1.29,8.84-2.11,7.81-2.77.35-.12,1.93-.96h0s.06-.03.06-.03l.4-.19,4.87-2.41,5.19-3.51,1.02-.69,5-4.71,2.38-3.33,1.27-1.78,1.29-3.09.96-2.29.75-5.51-.76-5.51-.9-2.17-.47-1.14-.86-2.07-3.67-5.1-4.99-4.72-6.21-4.2"/>
        <path class="cls-1" d="M1263.14,136.81l-4.54,3.12-3.54,3.54-.22.35-2.19,3.48-.4,1.33-.82,2.7v4.08l1.23,4.02,2.41,3.83,3.54,3.54,4.55,3.13,5.41,2.62,6.12,2.04,6.64,1.4,6.96.7h7.06l6.96-.71,6.63-1.39,6.12-2.05,5.41-2.62,4.55-3.13,3.54-3.54.51-.8.3-.48.08-.12.07-.11,1.46-2.32,1.23-4.02v-4.08s-.82-2.7-.82-2.7l-.4-1.32-2.2-3.49-.22-.35-3.54-3.54-4.54-3.12"/>
        <path class="cls-1" d="M1139.13,208.46l-4.55,3.13-3.53,3.53-.22.35-2.2,3.49-.41,1.33-.82,2.7v4.08l1.23,4.02,2.41,3.83,3.54,3.54,4.55,3.13,5.41,2.62,1.94.65,4.19,1.4,6.64,1.4,6.96.7h7.06l6.96-.71,6.64-1.4,4.2-1.4,1.91-.64,5.42-2.63,4.54-3.12,3.54-3.54,2.42-3.84,1.22-4.02v-4.08s-.81-2.68-.81-2.68l-.41-1.33-2.2-3.49-.22-.35-3.53-3.54-4.54-3.12"/>
        <path class="cls-1" d="M1698.83,367.74l-.69.2-.27.09-1.18.4-2.03.96-2.58,1.43-3.25,1.88-8.66,5-8.66,5-8.66,5-8.66,5-8.66,5-8.66,5-8.66,5-8.66,5-8.66,5-8.66,5-8.66,5-8.66,5-8.66,5-8.66,5-8.66,5-8.66,5-8.66,5-8.66,5-8.66,5-8.66,5-8.66,5-8.66,5-8.66,5-8.66,5-8.66,5-8.66,5-8.66,5-8.66,5-8.66,5-8.66,5-8.66,5-8.66,5-8.66,5-8.66,5-8.66,5-8.66,5-8.66,5-8.66,5-8.66,5-8.66,5-8.66,5-8.66,5-8.66,5-8.66,5-8.66,5-8.66,5-8.66,5-8.66,5-8.66,5-8.66,5-8.66,5-8.66,5-8.66,5-8.66,5-8.66,5-8.66,5-8.66,5-8.66,5-8.66,5-8.66,5-8.66,5-8.66,5-8.66,5-13.13,7.59-8.66,5-8.66,5-8.66,5-8.66,5-8.66,5-8.66,5-8.66,5-8.66,5-8.66,5-8.66,5-8.66,5-8.66,5-8.66,5-8.66,5-8.66,5-8.66,5-8.66,5-8.66,5-8.66,5-8.66,5-8.66,5-8.66,5-8.66,5-8.66,5-8.66,5-8.66,5-8.66,5-8.66,5-8.66,5-8.66,5-8.66,5-8.66,5-8.66,5-8.66,5-8.66,5-8.66,5-8.66,5-8.66,5-8.66,5-8.66,5-8.66,5-8.66,5-8.66,5-8.66,5-8.66,5-8.66,5-8.66,5-8.66,5-8.66,5-8.66,5-8.66,5-8.66,5-8.66,5-8.66,5-8.66,5-8.66,5-8.66,5-8.66,5-8.66,5-8.66,5-8.66,5-8.66,5-8.66,5-13.13,7.59-3.25,1.88-2.91,1.75-2.59,1.67"/>
        <path class="cls-1" d="M1227.93,117.21l.36-.2,7.1-4.8,2.16-2.04.37-.35.43-.41.11-.1.1-.09,2.54-2.39,4.17-5.83,2.56-6.14.16-1.19.16-1.2.47-3.5.06-.41v-.52l-.85-6.29-2.56-6.14-4.17-5.83-5.71-5.38-7.1-4.8-2.17-1.19-7.95-3.92-8.9-3.16-9.65-2.31-9.9-1.38-.26-.04-9.99-.45-.43-.02-9.99.45-.43.02-9.91,1.37-.26.04-9.65,2.31-8.91,3.15-7.94,3.92-2.17,1.19-7.1,4.8-5.71,5.38-4.17,5.83-.02.05-.1.25-.02.05-.05.12-.05.13-2.31,5.53-.85,6.3v.52l.06.41.47,3.5.16,1.2.16,1.19,2.56,6.14,4.18,5.83,5.71,5.38,7.1,4.8.36.21"/>
        <path class="cls-1" d="M1248.68,88.03l-.09.67-.63,4.7-.13.93-2.56,6.14-.29.41-3.88,5.43-2.88,2.71-.1.09-.11.1-.43.41-2.19,2.07-7.1,4.8-8.31,4.1-9.32,3.3-9.73,2.32-.37.09-9.9,1.38-.72.1-9.99.45-.9.04-9.99-.45-.91-.04-9.91-1.38-.73-.1-9.72-2.33-.36-.09-9.32-3.3-8.31-4.1-7.1-4.8-5.71-5.38-3.87-5.39-.31-.43-2.55-6.14-.13-.93-.63-4.69-.09-.67"/>
        <path class="cls-1" d="M1129.8,117l.19.1,8.12,4.01,9.32,3.3,9.72,2.33.36.09,9.91,1.38.73.1,9.99.45.91.04,9.99-.45.9-.04,9.91-1.38.72-.1,9.73-2.32.37-.09,9.32-3.3,8.12-4,.2-.1"/>
        <path class="cls-1" d="M1107.22,186.95l.36-.21,7.1-4.8,5.71-5.38,4.18-5.84,2.55-6.13.16-1.19.16-1.2.47-3.5.06-.41v-.52l-.85-6.29-2.55-6.14-4.18-5.83-5.71-5.38-7.1-4.8-2.17-1.19-7.94-3.92-8.91-3.15-9.65-2.31-9.91-1.38-.25-.04-9.99-.45-.43-.02-9.99.45-.43.02-8.61,1.19-.23.03-.2.03h-.09s-.43.07-.43.07l-.59.08-9.65,2.31-8.91,3.15-7.94,3.92-2.17,1.19-7.09,4.8-5.71,5.39-4.17,5.83-.02.05-.1.25-.02.05-.05.12-.06.13-2.31,5.53-.85,6.3v.52l.06.41.47,3.48.16,1.19.16,1.21,2.55,6.14,4.17,5.83,5.71,5.38,7.11,4.8.36.21"/>
        <path class="cls-1" d="M1127.97,157.78l-.09.67-.63,4.69-.12.93-2.55,6.14-.3.42-3.88,5.41-5.71,5.38-7.1,4.8-8.3,4.1-9.32,3.3-9.73,2.32-.37.09-9.91,1.38-.71.1-9.99.45-.91.04-9.99-.45-.9-.04-9.91-1.38-.72-.1-9.73-2.32-.37-.09-9.32-3.3-8.31-4.11-7.11-4.8-5.71-5.38-3.88-5.43-.29-.41-2.55-6.14-.13-.95-.64-4.67-.09-.67"/>
        <path class="cls-1" d="M1009.1,186.74l.19.1,8.11,4.01,9.32,3.3,9.73,2.32.37.09,9.91,1.38.72.1,9.99.45.9.04,9.99-.45.91-.04,9.9-1.38.71-.1,9.73-2.32.37-.09,9.32-3.3,8.11-4,.2-.1"/>
        <path class="cls-1" d="M986.6,256.65l.36-.21,7.09-4.8,5.71-5.38,4.18-5.84,2.56-6.13.16-1.19.16-1.19.48-3.51.06-.41v-.52l-.86-6.29-2.56-6.14-4.17-5.83-5.71-5.38-7.1-4.8-2.17-1.19-7.94-3.92-8.91-3.15-9.65-2.31-9.9-1.38-.25-.04-9.99-.46-.42-.02-9.99.45-.43.02-8.61,1.2-.23.03-.21.03h-.09s-.43.07-.43.07l-.59.08-9.65,2.31-8.91,3.15-7.94,3.92-2.17,1.19-7.1,4.8-5.71,5.38-4.18,5.84-.02.05-.1.25-.02.05-.05.12-.05.13-2.3,5.53-.86,6.3v.52l.06.41.48,3.5.16,1.19.16,1.19,2.55,6.14,4.18,5.83,5.71,5.38,7.1,4.8.36.21"/>
        <path class="cls-1" d="M1007.35,227.47l-.09.67-.64,4.7-.13.93-2.56,6.13-.3.42-3.88,5.41-5.71,5.38-7.09,4.8-5.98,2.95-2.33,1.15-2.56.91-6.76,2.39-9.23,2.21-.88.21-7.55,1.05-3.07.43-9.99.45-.91.04-9.99-.45-.9-.04-9.9-1.38-.73-.1-9.72-2.33-.36-.09-3.55-1.26-1.82-.64-1.24-.44-2.7-.96-2.22-1.1-4.88-2.41-1.21-.6-7.1-4.8-5.71-5.38-3.87-5.39-.31-.43-2.55-6.14-.13-.93-.64-4.69-.09-.67"/>
        <path class="cls-1" d="M888.47,256.44l.19.1,1.11.55,4.54,2.24,2.47,1.22,2.7.96.91.32,2.65.94,3.05,1.08,9.72,2.33.36.09,9.91,1.38.73.1,9.99.45.9.04,9.99-.45.91-.04,1.89-.26,7.69-1.07,1.04-.14,9.73-2.33.38-.09,4.44-1.57,4.88-1.73,2.57-1.27,5.54-2.74.19-.1"/>
        <path class="cls-1" d="M1226.12,58.39l6.78,4.59,5.47,5.14.9,1.26.33.47,2.76,3.85,2.44,5.87.81,6.02-.16,1.18-.65,4.84-2.44,5.87-3.99,5.57-3.98,3.75-.1.09-.11.1-.43.41-.84.8-6.78,4.59-7.95,3.92-8.9,3.16-9.65,2.31-9.9,1.37-.26.04-9.99.45-.43.02-9.99-.45-.43-.02-9.91-1.37-.26-.04-9.65-2.31-8.91-3.15-7.94-3.92-6.79-4.59-5.46-5.15-4-5.57-2.44-5.87-.65-4.84-.16-1.18.81-6.02,2.07-4.97.1-.25.02-.05.1-.25.14-.34,2.76-3.85.33-.47.9-1.26,5.46-5.15,6.79-4.59"/>
        <path class="cls-1" d="M1105.41,128.13l6.79,4.59,5.46,5.15.9,1.26.31.43,2.78,3.88,2.44,5.87.81,6.02-.16,1.17-.66,4.85-2.44,5.87-4,5.57-5.47,5.14-6.78,4.59-7.95,3.92-8.91,3.16-9.65,2.31-9.91,1.38-.25.04-9.99.45-.43.02-9.99-.46-.42-.02-9.91-1.38-.26-.04-9.65-2.3-8.9-3.16-7.95-3.92-6.78-4.59-5.47-5.14-3.99-5.58-2.44-5.87-.66-4.84-.16-1.18.81-6.02,2.07-4.97.1-.25.02-.05.1-.25.14-.34,2.76-3.85.33-.46.9-1.26,5.46-5.15,6.79-4.59"/>
        <path class="cls-1" d="M984.78,197.83l6.79,4.59,5.46,5.15.89,1.23.33.46,2.78,3.88,2.44,5.87.82,6.01-.16,1.18-.65,4.83-2.44,5.87-4,5.58-5.46,5.14-1.93,1.3-3.63,2.46-1.22.83-6.39,3.15-1.56.77-.9.32-1.02.36-6.99,2.48-5.63,1.35-4.03.96-9.9,1.37-.25.03-9.18.42-1.24.06-9.99-.46-.42-.02-6.34-.88-3.82-.53-9.65-2.31-3.51-1.24-4.2-1.49-.29-.1-.91-.32-1.45-.72-6.49-3.2-1.23-.83-3.6-2.43-1.96-1.32-5.46-5.15-4-5.57-2.44-5.87-.66-4.84-.16-1.18.82-6.02,2.06-4.97.1-.25.02-.05.1-.25.14-.34,2.77-3.86.33-.46.9-1.26,5.46-5.15,6.79-4.59"/>
        <path class="cls-1" d="M1134.37,111.4l-6.44-4.36-5.17-4.89-3.2-4.46-.5-.69-.1-.14-2.31-5.57-.78-5.71.59-4.33.19-1.38,2.32-5.57,2.2-3.06.23-.33.05-.07.23-.32,1.09-1.51,5.18-4.88,6.43-4.36,7.54-3.71,8.45-3,9.16-2.19,9.63-1.34,9.89-.45,9.89.45,9.63,1.34,9.16,2.19,8.45,2.99,7.54,3.72,6.43,4.35,5.19,4.89,3.8,5.29,2.31,5.57.19,1.38.6,4.34-.78,5.71-2.31,5.57-.1.14-.5.69-3.2,4.46-3.42,3.22-.1.09-.11.1-.43.41-1.13,1.07-6.43,4.36-.39.19-7.16,3.53-.65.23-7.8,2.77-9.16,2.19-9.63,1.33-9.89.45-9.89-.45-9.63-1.34-9.16-2.19-7.77-2.75-.69-.25-7.14-3.53-.39-.19"/>
        <path class="cls-1" d="M1013.66,181.14l-6.44-4.36-5.18-4.88-3.19-4.45-.5-.7-.1-.14-2.3-5.57-.79-5.71.59-4.34.19-1.37,2.32-5.57,2.19-3.06.23-.32.05-.07.23-.32,1.08-1.51,5.19-4.89,6.43-4.36,7.55-3.72,8.45-2.99,2.62-.63.56-.13.12-.03.56-.13,5.3-1.27,9.64-1.34,9.88-.45,9.89.45,9.63,1.33,9.16,2.19,8.46,2.99,7.54,3.72,6.43,4.35,5.18,4.89,3.8,5.29,2.31,5.57.19,1.38.6,4.34-.78,5.71-2.32,5.57-.1.14-.49.69-3.2,4.46-5.18,4.88-6.43,4.36-.39.19-7.15,3.52-.64.23-7.81,2.77-9.15,2.19-9.64,1.34-9.88.45-9.89-.45-9.64-1.33-9.16-2.19-7.81-2.77-.64-.23-7.14-3.53-.39-.19"/>
        <path class="cls-1" d="M893.03,250.84l-3.62-2.45-2.82-1.91-5.17-4.89-1.75-2.45-1.44-2.02-.5-.69-.1-.14-2.31-5.57-.78-5.71.59-4.33.19-1.38,2.32-5.57,2.19-3.06.23-.32.05-.07.23-.32,1.09-1.52,5.18-4.88,6.44-4.36,7.54-3.71,8.45-3,2.62-.63.56-.13.12-.03.56-.13,5.29-1.27,9.64-1.34,9.88-.45,9.89.45,9.64,1.33,9.16,2.19,8.45,2.99,7.54,3.72,6.44,4.35,5.19,4.89,3.79,5.29,2.31,5.57.19,1.36.6,4.35-.78,5.71-2.32,5.57-.09.13-.49.69-1.46,2.04-1.75,2.44-5.19,4.88-2.81,1.91-3.62,2.45-.39.19-5.32,2.62-.74.36-.32.16-.78.38-.65.23-.15.05-.23.08-4.14,1.47-3.29,1.16-9.16,2.19-7.27,1.01-2.37.33-4.31.2-5.58.25-1.72-.08-6.26-.29-1.91-.09-9.63-1.34-9.16-2.19-1.12-.4-2.18-.77-2.97-1.05-1.13-.4-.37-.13-.69-.24-.66-.32-1.07-.53-5.41-2.67-.39-.19"/>
        <path class="cls-1" d="M1325.03,174.75l.36-.21,5.32-3.67,4.14-4.14.17-.27.25-.4.3-.48.08-.12.07-.11,1.96-3.11,1.29-4.21.15-.5h0v-5.31s-1.44-4.71-1.44-4.71l-2.83-4.49-4.15-4.14-5.32-3.67-1.08-.62-6.14-2.98-6.94-2.31-7.53-1.59-7.89-.8h-8.02l-7.88.8-6.84,1.44-.19.04-.21.04-.3.06-.46.15-.61.2-5.87,1.95-6.14,2.98-1.07.62-5.32,3.66-4.14,4.14-2.83,4.5-1.43,4.71v5.3l.15.49,1.28,4.22,2.83,4.5,4.14,4.14,5.32,3.67.36.21"/>
        <path class="cls-1" d="M1339.12,157.01h0s-.23.76-.23.76l-1.21,3.95-.43.69-1.77,2.8-.07.11-.08.12-.3.48-.18.29-4.14,4.14-5.32,3.67-6.34,3.07-7.16,2.39-7.78,1.64-8.15.83h-8.28s-8.16-.83-8.16-.83l-7.78-1.63-7.17-2.39-6.34-3.07-5.32-3.67-4.14-4.14-2.4-3.81-.43-.69-1.2-3.96-.23-.75"/>
        <path class="cls-1" d="M1258.22,174.54l.2.1,6.15,2.98,7.17,2.39,7.78,1.63,8.16.83h8.28s8.15-.83,8.15-.83l7.78-1.64,7.16-2.39,6.15-2.98.2-.1"/>
        <path class="cls-1" d="M1201.02,246.4l.36-.21,5.32-3.67,4.15-4.14,2.83-4.49,1.29-4.22.15-.49h0v-5.31l-1.44-4.71-2.83-4.49-4.15-4.14-5.32-3.66-1.08-.62-6.14-2.98-6.94-2.31-7.53-1.59-7.89-.8h-8.01s-7.89.8-7.89.8l-7.53,1.58-6.94,2.31-6.14,2.98-1.07.62-5.33,3.67-4.14,4.14-2.83,4.5-1.43,4.71v1.34s0,3.25,0,3.25v.71l.15.49,1.29,4.22,2.83,4.5,4.14,4.14,5.33,3.67.36.21"/>
        <path class="cls-1" d="M1215.11,228.66h0l-.23.75-1.21,3.96-.44.69-2.39,3.8-4.15,4.14-5.32,3.67-6.35,3.08-7.16,2.39-7.78,1.64-8.15.83h-8.28s-8.15-.83-8.15-.83l-7.78-1.63-7.17-2.39-6.34-3.08-5.33-3.66-4.14-4.14-2.38-3.78-.45-.71-1.21-3.96-.23-.75"/>
        <path class="cls-1" d="M1134.21,246.19l.2.1,6.14,2.98,7.17,2.4,7.78,1.63,8.15.83h8.28s8.15-.83,8.15-.83l7.78-1.64,7.16-2.39,6.15-2.98.2-.1"/>
        <path class="cls-1" d="M1324.32,134.59l5.15,3.55,4,4.01,2.75,4.35.02.06.26.85,1.11,3.65v2.62s0,2.01,0,2.01l-1.38,4.56-2.49,3.95-.07.11-.08.12-.11.17-.27.27-3.73,3.74-5.16,3.55-6.14,2.98-6.94,2.31-7.53,1.59-7.89.8h-8.01s-7.9-.8-7.9-.8l-7.53-1.59-6.94-2.31-6.14-2.98-5.16-3.55-4-4.01-2.75-4.35-1.38-4.56v-4.63l1.12-3.67.26-.84v-.04s2.75-4.35,2.75-4.35l4-4.01,5.15-3.55"/>
        <path class="cls-1" d="M1200.3,206.25l5.15,3.54,4,4.01,2.75,4.35.02.06.26.85,1.11,3.65v4.62l-1.39,4.56-2.75,4.35-4,4.01-5.15,3.54-6.14,2.98-6.95,2.32-7.53,1.59-7.89.8h-7.74s-.27,0-.27,0l-7.89-.81-7.53-1.58-6.94-2.31-6.14-2.98-5.16-3.55-4-4.01-2.74-4.35-1.39-4.56v-4.63l1.12-3.67.26-.84v-.04s2.75-4.35,2.75-4.35l4.01-4.02,5.15-3.54"/>
        <path class="cls-1" d="M1261.57,170.84l-4.8-3.3-3.73-3.73-1.58-2.51-.39-.62-.57-.91-1.29-4.24v-4.31s1.04-3.41,1.04-3.41l.26-.84,2.55-4.04,3.73-3.73,4.79-3.29,5.71-2.77,6.46-2.16.6-.13.84-.18.21-.04.19-.04,5.16-1.08,7.35-.75h7.46s7.34.75,7.34.75l7,1.47,6.46,2.16,5.71,2.77,4.79,3.3,3.73,3.73,2.55,4.05.26.84,1.04,3.4v4.3l-1.3,4.25-.57.91-.39.62-.92,1.45-.07.11-.08.12-.3.48-.22.35-3.73,3.73-4.79,3.3-.39.19-5.32,2.57-.56.19-5.9,1.97-7,1.47-7.35.75h-7.45l-7.34-.75-7.01-1.48-5.89-1.96-.56-.19-5.32-2.58-.39-.19"/>
        <path class="cls-1" d="M1137.56,242.5l-4.79-3.3-3.73-3.73-1.58-2.51-.41-.65-.56-.89-1.3-4.24v-4.31l1.04-3.4.26-.84,2.55-4.04,3.73-3.73,4.79-3.3,5.71-2.77,6.45-2.15,7.01-1.48,7.34-.75h7.46s7.34.75,7.34.75l7,1.47,6.46,2.16,5.71,2.77,4.79,3.3,3.72,3.73,2.55,4.05.26.84,1.04,3.4v4.3l-1.29,4.24-.57.91-.39.62-1.59,2.52-3.72,3.73-4.79,3.3-.39.19-5.32,2.58-.56.19-5.89,1.97-.32.07-6.68,1.41-1.36.14-5.98.61h-7.46s-5.99-.61-5.99-.61l-1.35-.14-6.68-1.4-.34-.07-5.89-1.96-.56-.19-5.31-2.58-.39-.19"/>
        <path class="cls-1" d="M1223.34,111.59l6.01-4.07,1.38-1.3.37-.35.43-.41.11-.1.1-.09,2.7-2.55,3.73-5.21,2.28-5.48.56-4.1v-.05s.1-.69.1-.69l.11-.78-.76-5.62-.62-1.48-1.67-4-3.73-5.21-5.09-4.81-6.34-4.28-7.41-3.67-.7-.25"/>
        <path class="cls-1" d="M1143.2,57.1l-.7.25-7.42,3.66-6.34,4.29-3.13,2.95-.52.49-.11.1-.52.49-.82.77-3.73,5.21-1.67,4-.62,1.48-.76,5.62.11.78.09.69v.05s.56,4.1.56,4.1l2.28,5.48,3.73,5.21,5.09,4.81,6.01,4.07"/>
        <path class="cls-1" d="M1102.62,181.34l6.01-4.07,5.09-4.81,3.73-5.21,2.28-5.48.56-4.1v-.05s.1-.69.1-.69l.11-.78-.76-5.62-.62-1.48-1.67-4-3.73-5.21-5.09-4.81-6.34-4.29-7.42-3.66-.7-.25"/>
        <path class="cls-1" d="M1022.49,126.84l-.7.25-7.42,3.66-6.33,4.29-3.13,2.95-.52.49-.11.1-.52.49-.82.77-3.73,5.21-1.66,3.99-.62,1.48-.77,5.62.11.79.1.74v.02s.56,4.08.56,4.08l2.28,5.48,3.73,5.21,5.1,4.8,6.01,4.07"/>
        <path class="cls-1" d="M982,251.03l3.41-2.31.6-.4,2.01-1.36,5.09-4.81,3.2-4.47.53-.74,2.28-5.48.56-4.08v-.03s.1-.73.1-.73l.11-.78-.77-5.61-.62-1.49-1.66-3.99-3.73-5.21-5.1-4.8-6.34-4.29-7.42-3.66-.65-.23"/>
        <path class="cls-1" d="M901.86,196.53l-.7.25-7.42,3.66-6.34,4.29-3.13,2.95-.52.49-.11.11-.52.49-.82.77-3.74,5.21-1.66,4-.61,1.48-.76,5.62.11.78.09.69v.05s.56,4.1.56,4.1l2.28,5.48.52.73,3.21,4.48,5.09,4.81,2,1.35.08.06,2.9,1.96,1.04.7"/>
        <path class="cls-1" d="M1321.65,171.04l4.36-3,3.64-3.64.48-.76.25-.4.3-.48.08-.12.07-.11,1.31-2.08,1.06-3.49.2-.65h0v-4.2l-1.26-4.14-2.02-3.2-.47-.75-3.64-3.64-4.68-3.21-5.57-2.71-.61-.2"/>
        <path class="cls-1" d="M1268.43,134.25l-.57.19-5.58,2.7-4.67,3.22-3.65,3.64-.47.75-2.01,3.2-1.26,4.14v4.2l.2.65,1.06,3.49,2.48,3.95,3.64,3.64,4.36,3"/>
        <path class="cls-1" d="M1333.2,153.02l.19.64v2.64"/>
        <path class="cls-1" d="M1144.41,205.9l-.56.19-5.57,2.7-4.68,3.22-3.65,3.64-.47.75-2.01,3.2-1.26,4.14v4.21l.2.65,1.06,3.49,2.48,3.95,3.65,3.64,4.36,3"/>
        <path class="cls-1" d="M1209.38,227.95h0l-.2.65h0l-1.06,3.49-2.49,3.95-3.64,3.64-4.35,3"/>
        <path class="cls-1" d="M1209.38,227.95v-4.2l-1.26-4.14-2.02-3.2-.47-.75-3.64-3.64-4.67-3.22-5.58-2.71-.56-.19"/>
        <path class="cls-1" d="M1209.18,224.65l.2.65v2.64"/>
        <path class="cls-1" d="M307.15,872.71l-.38,3.04-.35.77-.74,1.65-1.75,1.6-2.26.71-2.64-.27-2.83-.98-2.84-1.43-2.69-1.55-8.66-5-6.76-3.91-8.66-5-6.75-3.9-2.7-1.56-2.84-1.85-2.83-2.3-2.64-2.78-2.26-3.32-1.74-3.62-1.09-3.67-.39-3.48.39-3.05,1.09-2.42,1.74-1.6,2.26-.7,1.81.18.83.08,2.83.99,2.84,1.42,1.14.66,1.56.9,8.66,5,6.75,3.9,8.66,5,6.76,3.91,2.69,1.55,2.84,1.86,2.83,2.29,2.64,2.79,2.26,3.32,1.75,3.62,1.08,3.67.18,1.7.14,1.25.06.54"/>
        <path class="cls-1" d="M306.55,874.8l-.74-.07-2.62-.93-2.77-1.4-2.69-1.55-8.66-5-6.76-3.91-8.66-5-6.75-3.9-2.7-1.56-2.77-1.8-2.61-2.09-2.38-2.5-2.03-2.97-1.56-3.25-.98-3.3-.34-3.13.34-2.73.3-.67"/>
        <path class="cls-1" d="M258.28,831.41l-2.36-1.2-.38-.19-2.19-.77-.42-.15-.74-.08-1.64-.17-2.03.64-1.56,1.44-.98,2.18-.34,2.73.34,3.13.98,3.3,1.56,3.25,2.03,2.97,2.38,2.5,2.61,2.09,2.77,1.8,2.7,1.56,8.66,5,6.75,3.9,8.66,5,6.76,3.91,2.69,1.55,2.77,1.4,2.62.93,2.37.24,2.03-.63,1.56-1.44.68-1.5.3-.67.06-.46.18-1.51"/>
        <path class="cls-1" d="M306.9,873.67l-1.37-.14-2.47-.88-2.67-1.36-2.66-1.54-8.66-5-6.76-3.91-8.66-5-6.75-3.9-2.67-1.54-2.67-1.73-2.46-1.97-2.18-2.29-1.83-2.7-1.41-2.93-.88-2.98-.31-2.83.31-2.47.56-1.25"/>
        <path class="cls-1" d="M306.95,870.92l-.41-.04-2.23-.79-2.54-1.29-2.62-1.51-8.66-5-6.76-3.91-8.66-5-6.75-3.9-2.63-1.52-2.54-1.65-2.23-1.79-1.86-1.96-1.53-2.25-1.18-2.46-.74-2.5-.26-2.36.26-2.07.31-.69"/>
        <path class="cls-1" d="M520.44,1005.23l-1.07.62-2.21.51"/>
        <path class="cls-1" d="M564.69,980.92l.47-.1,2.92-1.24,3.25-1.88,8.66-5,8.66-5,8.66-5,8.66-5,8.66-5,8.66-5,8.66-5,8.66-5,8.66-5,8.66-5,8.66-5,8.66-5,8.66-5,8.66-5,8.66-5,8.66-5,8.66-5,8.66-5,8.66-5,8.66-5,8.66-5,8.66-5,8.66-5,8.66-5,8.66-5,8.66-5,8.66-5,8.66-5,8.66-5,8.66-5,8.66-5,8.66-5,8.66-5,8.66-5,8.66-5,8.66-5,8.66-5,8.66-5,8.66-5,8.66-5,8.66-5,8.66-5,8.66-5,8.66-5,8.66-5,8.66-5,8.66-5,8.66-5,8.66-5,8.66-5,8.66-5,8.66-5,8.66-5,8.66-5,8.66-5,8.66-5,8.66-5,8.66-5,8.66-5,8.66-5,8.66-5,8.66-5,8.66-5,13.13-7.59,8.66-5,8.66-5,8.66-5,8.66-5,8.66-5,8.66-5,8.66-5,8.66-5,8.66-5,8.66-5,8.66-5,8.66-5,8.66-5,8.66-5,8.66-5,8.66-5,8.66-5,8.66-5,8.66-5,8.66-5,9.3-5.37,8.66-5,8.66-5,8.66-5,8.66-5,8.66-5,8.66-5,8.66-5,8.66-5,8.66-5,8.66-5,8.66-5,8.66-5,8.66-5,8.66-5,7.76-4.48,8.66-5,8.66-5,8.66-5,8.66-5,8.66-5,8.66-5,8.66-5,8.66-5,8.66-5,8.66-5,8.66-5,8.66-5,8.66-5,8.39-4.85,8.66-5,8.66-5,8.66-5,8.66-5,8.66-5,8.66-5,8.66-5,8.66-5,8.66-5,8.66-5,6.22-3.6.49-.28.57-.33.14-.08.13-.07,8.66-5,8.66-5,8.66-5,6.1-3.52,3.15-1.82.1-.06,2.6-1.95.18-.17.04-.03.18-.24,1.58-2.08.27-.35,1.45-3.19.69-3.48-.16-3.68-1.04-3.61-1.88-3.31-2.64-3.35-2.79-3.14-2.91-2.88-3-2.61-3.05-2.28-3.08-2.04-3.07-1.87-3.2-1.85-8.66-5-8.66-5-8.66-5-8.66-5-8.66-5-8.66-5-8.66-5-8.66-5-8.66-5-8.66-5-8.66-5-8.66-5-8.66-5-8.66-5-8.66-5-8.66-5-8.66-5-8.66-5-8.66-5-8.66-5-8.66-5-8.66-5-8.66-5-8.66-5-8.66-5-8.66-5-8.66-5-6.29-3.64-8.66-5-8.66-5-8.66-5-8.66-5-8.66-5-8.66-5-8.66-5-8.66-5-8.66-5-8.66-5-8.66-5-8.66-5-4.09-2.36-8.66-5-8.66-5-8.66-5-8.66-5-8.66-5-8.66-5-8.66-5-8.66-5-8.66-5-8.66-5-8.66-5-8.66-5-8.66-5-8.66-5-8.66-5-2.19-1.27-3.2-1.85-3.08-1.69-3.08-1.52-3.05-1.25-3-.86-2.91-.49-2.79-.08-2.64.29-.43.06-2.45.76-2.65,1.25-.12.06-.3.17-4.23,2.39-8.66,5-1.52.88-8.66,5-8.66,5-8.66,5-8.66,5-8.66,5-8.66,5-8.66,5-8.66,5-8.66,5-8.66,5-8.66,5-8.66,5-8.66,5-8.66,5-4.99,2.89-8.66,5-8.66,5-8.66,5-8.66,5-8.66,5-8.66,5-8.66,5-8.66,5-8.66,5-8.66,5-8.66,5-8.66,5-8.66,5-8.39,4.85-8.66,5-8.66,5-8.66,5-8.66,5-8.66,5-8.66,5-8.66,5-8.66,5-8.66,5-8.66,5-8.66,5-8.66,5-8.66,5-8.66,5-7.76,4.49-8.66,5-8.66,5-8.66,5-8.66,5-8.66,5-8.66,5-8.66,5-8.66,5-8.66,5-8.66,5-8.66,5-8.66,5-8.66,5-8.66,5-8.66,5-8.66,5-8.66,5-8.66,5-8.66,5-8.66,5-9.3,5.37-8.66,5-8.66,5-8.66,5-8.66,5-8.66,5-8.66,5-8.66,5-8.66,5-8.66,5-8.66,5-8.66,5-8.66,5-8.66,5-8.66,5-8.66,5-8.66,5-8.66,5-8.66,5-8.66,5-8.66,5-8.66,5-8.66,5-8.66,5-8.66,5-8.66,5-8.66,5-8.66,5-8.66,5-8.66,5-8.66,5-8.66,5-8.66,5-8.66,5-8.66,5-8.66,5-8.66,5-8.66,5-8.66,5-8.66,5-8.66,5-8.66,5-8.66,5-8.66,5-8.66,5-8.66,5-8.66,5-8.66,5-8.66,5-8.66,5-8.66,5-8.66,5-8.66,5-8.66,5-8.66,5-8.66,5-8.66,5-8.66,5-8.66,5-8.66,5-8.66,5-8.66,5-8.66,5-8.66,5-13.13,7.59-8.66,5-1.52.88-2.57,1.53-.19.12"/>
        <path class="cls-1" d="M561.54,981.3l3.15-.38"/>
        <path class="cls-1" d="M17.93,666.74l-.36.21-.25.14-.16.12-.32.4"/>
        <path class="cls-1" d="M1248.68,98.1l-.04.33-.8,5.95"/>
        <path class="cls-1" d="M991.94,179.89l-2.39-5.75-.81-5.96"/>
        <path class="cls-1" d="M1127.97,167.85l-.04.33-.8,5.95"/>
        <path class="cls-1" d="M1007.35,237.54h0l-.04.33-.81,5.97-2.39,5.74"/>
        <path class="cls-1" d="M1244.49,162.63v-4.12"/>
        <path class="cls-1" d="M1339.12,162.64h0s-1.21,3.98-1.21,3.98l-.04.13"/>
        <path class="cls-1" d="M1215.11,234.29h0l-1.36,4.44"/>
        <path class="cls-1" d="M16.85,667.61l.1-.1,1.04-.32,1.4-.32.49-.11,1.19-.13,1.45-.16h.37s.08.01.08.01h.05s2.29.07,2.29.07l2.91.49,3,.86,3.05,1.25,3.08,1.52,3.07,1.69,3.2,1.85,8.66,5,7.95,4.6.16.09.04.02.17.09,8.66,5,8.66,5,8.66,5,8.66,5,8.66,5,8.66,5,8.66,5,8.66,5,8.66,5,8.66,5,8.66,5,8.66,5,8.66,5,2.54,1.47,8.66,5,8.66,5,8.66,5,8.66,5,8.66,5,8.66,5,8.66,5,8.66,5,8.66,5,8.66,5,8.66,5,8.66,5,4.09,2.36.13.08,8.59,4.96,8.66,5,8.66,5,8.66,5,8.66,5,8.66,5,2.18,1.26,8.66,5,.21.12,8.66,5,8.66,5,8.66,5,8.66,5,8.66,5,8.66,5,8.66,5,8.66,5,8.66,5,8.66,5,8.66,5,8.66,5,8.66,5,8.66,5,8.66,5,8.66,5,8.66,5,8.66,5,8.66,5,8.66,5,3.84,2.22,3.2,1.85,3.08,1.87,3.08,2.04,3.05,2.28,3,2.6,2.91,2.88,2.79,3.14,2.64,3.34,2.5,2.96,2.85,2.57,3.07,2,3.18,1.24,3.19.51,3.13-.32,2.26-.96.65-.28,3.25-1.88,8.66-5,8.66-5,8.66-5,8.66-5,8.66-5,8.66-5,8.66-5,8.66-5,8.66-5,8.66-5,8.66-5,8.66-5,8.66-5,8.66-5,8.66-5,8.66-5,8.66-5,8.66-5,8.66-5,8.66-5,8.66-5,8.66-5,8.66-5,8.66-5,8.66-5,8.66-5,8.66-5,8.66-5,8.66-5,8.66-5,8.66-5,8.66-5,8.66-5,8.66-5,8.66-5,8.66-5,8.66-5,8.66-5,8.66-5,8.66-5,8.66-5,8.66-5,8.66-5,8.66-5,8.66-5,8.66-5,8.66-5,8.66-5,8.66-5,8.66-5,8.66-5,8.66-5,8.66-5,8.66-5,8.66-5,8.66-5,8.66-5,8.66-5,8.66-5,8.66-5,8.66-5,8.66-5,8.66-5,13.13-7.59,8.66-5,8.66-5,8.66-5,8.66-5,8.66-5,8.66-5,8.66-5,8.66-5,8.66-5,8.66-5,8.66-5,8.66-5,8.66-5,8.66-5,8.66-5,8.66-5,8.66-5,8.66-5,8.66-5,8.66-5,9.3-5.37,8.66-5,8.66-5,8.66-5,8.66-5,8.66-5,8.66-5,8.66-5,8.66-5,8.66-5,8.66-5,8.66-5,8.66-5,8.66-5,8.66-5,7.76-4.49,8.66-5,8.66-5,8.66-5,8.66-5,8.66-5,8.66-5,8.66-5,8.66-5,8.66-5,8.66-5,8.66-5,8.66-5,8.66-5,8.39-4.85,8.66-5,8.66-5,8.66-5,8.66-5,8.66-5,8.66-5,8.66-5,8.66-5,8.66-5,8.66-5,6.41-3.7.57-.33.14-.08.13-.07,8.66-5,8.66-5,8.66-5,6.41-3.7,3.25-1.88,2.05-1.54.51-.38.02-.02"/>
        <path class="cls-1" d="M1248.68,96.31l.19,1.36-.86,6.31-.17.41-2.39,5.75h0s-1.54,2.16-1.54,2.16l-.07.1-.08.12-.33.47-.28.4-1.87,2.61-5.73,5.4-7.11,4.81-8.33,4.11-9.34,3.31-9.73,2.32-.4.1-9.91,1.38-.75.1-9.99.46-.93.04-9.99-.46-.93-.04-9.9-1.38-.75-.1-9.72-2.33-.4-.1-9.34-3.31-8.33-4.11-7.11-4.81-5.73-5.4-4.19-5.85-2.39-5.75-.13-.32-.04-.09"/>
        <path class="cls-1" d="M1110.09,103.98l-.86-6.31.18-1.36"/>
        <path class="cls-1" d="M1127.97,166.06l.18,1.36-.86,6.31-.04.09-.13.32-2.39,5.75-4.19,5.85-5.72,5.39-7.12,4.82-8.33,4.11-9.34,3.31-9.73,2.32-.4.1-9.91,1.38-.75.1-9.99.45-.93.04-9.99-.45-.94-.04-9.91-1.38-.75-.1-9.72-2.33-.39-.09-9.35-3.31-8.33-4.11-7.11-4.81-5.72-5.4-4.19-5.83h0"/>
        <path class="cls-1" d="M991.93,179.88l-2.56-6.15-.86-6.32.18-1.31"/>
        <path class="cls-1" d="M1007.35,235.8l.18,1.3-.86,6.31-2.56,6.15h0s-4.18,5.85-4.18,5.85l-5.73,5.4-7.11,4.81-3.54,1.75-4.8,2.37-9.33,3.31-9.73,2.33-.41.1-9.9,1.37-.74.1h-.31s-4.8.23-4.8.23l-5.81.27-9.99-.46-.93-.04-9.91-1.38-.75-.1-9.73-2.32-.4-.1-1.95-.69-3.87-1.37-3.52-1.25-4.66-2.3-3.68-1.81-7.11-4.82-5.73-5.4-4.19-5.85-2.39-5.75-.13-.32-.04-.09"/>
        <path class="cls-1" d="M868.75,243.41l-.86-6.31.18-1.3"/>
        <path class="cls-1" d="M1339.12,156.82l.18.58v4.8s-.18.56-.18.56h0s-1.18,3.86-1.18,3.86l-.04.13-.04.14v.03s-.1.14-.1.14l-.2.31-.25.4-2.31,3.66-4.15,4.16-5.34,3.68-6.36,3.08-7.19,2.4-7.81,1.64-8.18.83h-8.31s-8.18-.83-8.18-.83l-7.81-1.64-7.2-2.4-6.36-3.08-5.34-3.68-4.15-4.16-2.76-4.37-.09-.14"/>
        <path class="cls-1" d="M1245.76,166.93l-1.44-4.72v-4.81l.18-.58"/>
        <path class="cls-1" d="M1215.11,228.48l.18.58v4.8l-.18.58h0l-1.27,4.15-.09.14-2.75,4.37-4.16,4.16-5.34,3.68-6.37,3.09-7.19,2.4-7.81,1.65-8.18.83h-8.31s-8.18-.83-8.18-.83l-7.8-1.64-7.2-2.4-6.36-3.08-5.34-3.68-4.15-4.16-2.76-4.37-.09-.14"/>
        <path class="cls-1" d="M1121.74,238.59l-1.26-4.14-.18-.58v-4.81l.18-.58"/>
        <path class="cls-1" d="M1248,103.98l-.04.09-.13.32-2.4,5.76"/>
        <path class="cls-1" d="M481.53,960.75l1.54-1.64"/>
        <path class="cls-1" d="M868.92,243.82l-.81-5.95"/>
        <path class="cls-1" d="M875.64,226.63l.09-.69"/>
        <path class="cls-1" d="M996.27,156.94l.1-.73"/>
        <path class="cls-1" d="M999.68,225.9l.1.73"/>
        <path class="cls-1" d="M1007.35,237.54v-1.74s0-6.99,0-6.99"/>
        <path class="cls-1" d="M1110.26,104.38l-.8-5.95-.05-.33"/>
        <path class="cls-1" d="M1116.98,87.19l.09-.69"/>
        <path class="cls-1" d="M1120.3,156.25l.09.69"/>
        <path class="cls-1" d="M1121.83,238.73l-1.35-4.44h0"/>
        <path class="cls-1" d="M1126.2,225.31l.2-.65"/>
        <path class="cls-1" d="M1215.11,234.44v-4.43"/>
        <path class="cls-1" d="M1241.02,86.5l.09.69"/>
        <path class="cls-1" d="M1244.49,158.51v-.66"/>
        <path class="cls-1" d="M1245.85,167.07l-1.35-4.44"/>
        <path class="cls-1" d="M1250.22,153.66l.2-.66"/>
        <path class="cls-1" d="M1339.12,162.77v-4.42"/>
      </g>
    </g>
  </g>
</svg>