<?xml version="1.0" encoding="UTF-8"?>
<svg id="Layer_2" data-name="Layer 2" xmlns="http://www.w3.org/2000/svg" viewBox="0 0 1258.43 1178.73">
  <defs>
    <style>
      .cls-1 {
        fill: none;
        stroke: #000;
        stroke-linecap: round;
        stroke-linejoin: round;
      }
    </style>
  </defs>
  <g id="Layer_2-2" data-name="Layer 2">
    <path class="cls-1" d="M1083.98,880.35l3.56-1.02.27-.08,2.08-.6,1.05.02,4.34.06,1.34.02,6.34,1.64.96.25,5.9,2.8,1.7.8,5.23,3.56,2.38,1.61,5.9,5.27,1.43,1.27,2.96,3.36,3.82,4.3,5.74,8.19.21.3,2.34,4.32,2.56,4.67,1.99,4.97,1.09,2.72.58,1.46,2.24,8.97.56,6.33.19,2.11-.14,1.4-.63,6.19-2.26,6.45-3.21,4.44-.45.62-2.67,1.88-2.24,1.58"/>
    <path class="cls-1" d="M1124.42,971.4l1.95.5,2.87.03,3.91.03,5.96-1.73"/>
    <path class="cls-1" d="M1144.48,966.15l-2.47.71-6.74-.09-7.31-1.88-.31-.15"/>
    <path class="cls-1" d="M1081.83,893.84l.37-3.74,2.22-6.43,3.11-4.34"/>
    <path class="cls-1" d="M1083.98,880.35l-3.78,2.67-1.06.75-2.58,3.6-.36.5-.66.92-1.54,4.45v.03"/>
    <path class="cls-1" d="M1252.86,737.2l-.21-3.15-3.83-8.88-2.4-3.89-5.73-5.81-1.18-1.15"/>
    <path class="cls-1" d="M1211.83,750.11l-.92.49-3.09-9.51-3.12-9.6-4.33-9.01-2.49-5.17-.76-1.59-.91-1.91-.49-.78-2.24-3.55-5.35-8.45-2.13-3.36-6.06-7.95-5.08-6.67-6.53-7.57-4.78-5.54-6.84-7.3-4.12-4.4-7.19-6.95-2.05-1.98-.31-.3-1.43-1.38-7.61-6.48-2.65-2.26-1.4-1.19-8.02-5.97-3.21-2.38-1.75-1.3-6.66-4.39-.87-.57-2-1.32-.27-.18-4.76-3.13-5.72-3.48h0s-1.55-.95-1.55-.95l-4.9-2.98-2.76-1.68-2.49-1.44-1.26-.73-2.1-1.21-.8-.46-.3-.18-2.39-1.38-1.35-.78-.33-.19-1.28-.74-.79-.46-.66-.38"/>
    <path class="cls-1" d="M1118.09,587.32l-.44-6.55-2.3-1.51-8.44-5.36-.51-.32-7.35-3.55-2.22-.15-3.97.16-3.58.44-5.4,2.8-7.4,4.27-.11.07-.03.02-.03.02-2.55,1.47-.31.18-5.52,3.19-8.61,4.97-7.57,4.37-5.51,4.29-3.18,4.86-2.39,5.03-.49,1.03-1.22,3.74-.22.67-.1.65-.06.39h0s-.1.6-.1.6l-.43,2.69-.07.45-1.07,6.65-.24,4.23-.02.44-.54,9.53-.09,7-.13,10-.13,10-.12,9.53-.05,10-.04,6.74v.72s-.06,10-.06,10l-.04,6.85v10s-.02,10-.02,10v10s-.02,10-.02,10v1.2s0,2.82,0,2.82v1.65s0,6.01,0,6.01v1.88s0,.6,0,.6v.95s0,.31,0,.31v1.76s0,2.67,0,2.67v3.83s0,10,0,10v2.35s0,1.24,0,1.24v.9s0,3.13,0,3.13h0s0,10,0,10v4.65s0,10,0,10v10s-.01,9.49-.01,9.49v1.55s0,.92,0,.92v1.56s0,10,0,10v10s-.01,6.04-.01,6.04v10s-.01,10-.01,10v10s-.01,10-.01,10v6.51s0,4.03,0,4.03v9.14s-.01,10-.01,10v10s0,1.02,0,1.02v1.99s0,10,0,10v4.35s0,.82,0,.82v10s-.01,6.93-.01,6.93v7.07s0,1.99,0,1.99v10s0,8.72,0,8.72v6.66s0,.5,0,.5v11.58s.01,4.05.01,4.05v3.07s.01.26.01.26v1.3s0,.15,0,.15v2.03s.05,10,.05,10l.04,10,.02,5.83.15,9.49.05,3.02.07,4.39.02,1.57.02,1.38.02.96.09,5.76.45,9.99.33,7.33.84,9.96v.17s1.42,6.66,1.42,6.66l2.8,3.73.19.24.61.77,2.96,3.73,7.02,4.88,8.4,5.42,2.46,1.58,8.48,5.3,5.14,3.21,8.62,5.07,6.26,3.68,8.85,4.66,5.79,3.05,9.2,3.92,4.03,1.72,9.6,2.79,2.47.72,9.91,1.34,1.6.22,4.61.15,10-.27,1.49-.04,9.86-1.68,1.98-.34,9.44-3.3,2.12-.74,5.74-2.37,7.45-4.3,8.47-4.89,8.42-4.85,7.28-4.2,5.31-3.3,8.48-5.3,1.21-.75,3.15-3.3,6.57-7.54.91-1.05,3.89-9.21,1.33-3.16,1.77-9.84,1.53-8.52.7-9.98.7-9.97.48-6.9.27-10,.27-10,.27-10,.21-7.62.12-10,.12-10,.12-10,.12-10,.11-9.18.04-10,.04-10,.04-10,.04-10,.04-10,.02-5.91-.05-10-.05-10-.05-10-.05-10-.05-10-.03-6.4-.16-10-.16-10-.16-10-.16-10-.16-10v-.67s-.31-10-.31-10l-.3-9.99-.3-10-.3-9.99-.31-10.32-.7-9.98-.7-9.97-.7-9.97-.37-5.24-.04-.56"/>
    <path class="cls-1" d="M1232.97,740.94l-1.69-5.65-.15-.51-.18-.62-.9-3.43-.14-.53-2.14-8.19-.88-3.34-1.27-2.73-.19-.41-4.21-9.07-2.6-5.6-5.21-8.54-4.69-7.69-.04-.07-5.92-8.06-2.57-3.49-2.38-3.23-6.4-7.68-2.02-2.42-2.16-2.58-.11-.14-.37-.44-6.73-7.4-4.02-4.42-6.18-6.08-4.68-4.61-1.64-1.41-7.66-6.58-2.3-1.98-8.03-5.96-.32-.24-4.64-3.44-8.38-5.45-6.27-4.08-6.91-4.12-8.18-4.88-1.69-.95-.36-.2-.76-.43-.27-.15-1.91-1.08-8.71-4.91-.38-.21,5.8-3.35,1.79-1.03.85-.49.59-.34.43-.25.88-.45.67-.35,3.86-1.99.09-.05,3.65-.39"/>
    <path class="cls-1" d="M1226.18,742.35l-1.6.92"/>
    <path class="cls-1" d="M1249,730.75l-2.76,2.42-4.92,2.95-.08.05-2.56,1.48-.83.48-2.17,1.25-.75.43-.61.35-1.35.78"/>
    <path class="cls-1" d="M1073.7,601.44l.67-.39,1.98-1.15,4.2-2.42.84-.49,6.57-3.79,2.19-1.26"/>
    <path class="cls-1" d="M1225.27,739.39l.91,2.96-.42-.03"/>
    <path class="cls-1" d="M1225.1,740.4l.67,1.92-1.12.65"/>
    <path class="cls-1" d="M1226.89,718.68l.87,3.34,1.15,4.4,1,3.8.14.52.9,3.43"/>
    <path class="cls-1" d="M1147.54,935.88l-.09.98-.43,4.3"/>
    <path class="cls-1" d="M1147.02,929.99l.03.37.36,4.05.13,1.47"/>
    <path class="cls-1" d="M1147.46,934.91l.08.97-.5,5.02"/>
    <path class="cls-1" d="M1036.24,608.55l-2.81-1.63-4.43-2.57"/>
    <path class="cls-1" d="M1036.14,619.33l.1-10v-.78s.44-.25.44-.25l4-2.3"/>
    <path class="cls-1" d="M630.19,310.62l-8.66,5-8.66,5-.24.14"/>
    <path class="cls-1" d="M639.58,316.05l-8.66,5-.15.09-.21.12-.21.12-.04.02-.26.15-8.66,5-2.03,1.17"/>
    <path class="cls-1" d="M658.37,326.91l-8.66,5-.15.09-.21.12-.21.12-.04.02-.26.15-8.69,5.01-.21.12-.21.12-.04.02-.26.15-1.8,1.04"/>
    <path class="cls-1" d="M677.16,337.76l-8.66,5-.15.09-.21.12-.21.12-.04.02-.26.15-6.96,4.02-1.73,1-.21.12-.21.12-.04.02-.26.15-2.29,1.32"/>
    <path class="cls-1" d="M695.95,348.62l-8.66,5-.15.09-.21.12-.21.12-.04.02-.26.15-8.69,5.01-.21.12-.21.12-.04.02-.26.15-2.29,1.32"/>
    <path class="cls-1" d="M714.74,359.09l-8.66,5-.15.09-.21.12-.13.07h0s-.08.05-.08.05l-.04.02-.13.07h0s-.13.07-.13.07l-2.93,1.69-5.75,3.32-.21.12-.13.07h0l-.08.05-.04.02-.13.07h0l-.13.07-1.96,1.13"/>
    <path class="cls-1" d="M714.74,359.48l-8.66,5-.15.09-.21.12-.21.12-.04.02-.26.15-2.93,1.69-5.75,3.32-.21.12-.21.12-.04.02-.26.15-1.66.96"/>
    <path class="cls-1" d="M724.14,364.52l-8.66,5-.15.09-.21.12-.13.07h0l-.08.05-.04.02-.13.07h0l-.13.07-8.68,5.01-.21.12-.13.07h0s-.08.05-.08.05l-.04.02-.13.07h0s-.13.07-.13.07l-2.22,1.28"/>
    <path class="cls-1" d="M733.53,369.95l-8.66,5-.15.09-.21.12-.13.07h0l-.08.05-.04.02-.13.07h0s-.13.07-.13.07l-8.69,5.01-.21.12-.13.07h0l-.08.05-.04.02-.13.07h0l-.13.07-2.22,1.28"/>
    <path class="cls-1" d="M733.53,370.34l-8.66,5-.15.09-.21.12-.21.12-.04.02-.26.15-8.69,5.01-.21.12-.21.12-.04.02-.26.15-1.88,1.09"/>
    <path class="cls-1" d="M742.93,375.38l-8.66,5-.15.09-.21.12-.13.07h0l-.08.05-.04.02-.13.07h0l-.13.07-8.69,5.01-.21.12-.13.07h0l-.08.05-.04.02-.13.07h0s-.13.07-.13.07l-1.93,1.11"/>
    <path class="cls-1" d="M761.72,386.24l-8.66,5-.15.09-.21.12-.13.07h0l-.08.05-.04.02-.13.07h0l-.13.07-7.03,4.05-1.66.96-.21.12-.13.07h0l-.08.05-.04.02-.13.07h0l-.13.07-2.12,1.22"/>
    <path class="cls-1" d="M761.72,386.63l-8.66,5-.15.09-.21.12-.21.12-.04.02-.26.15-7.03,4.05-1.66.96-.21.12-.21.12-.04.02-.26.15-1.78,1.03"/>
    <path class="cls-1" d="M771.11,391.67l-8.66,5-.15.09-.21.12-.13.07h0l-.08.05-.04.02-.13.07h0l-.13.07-8.69,5.01-.21.12-.13.07h0l-.08.05-.04.02-.13.07h0l-.13.07-2.12,1.22"/>
    <path class="cls-1" d="M780.51,397.1l-8.66,5-.15.09-.21.12-.13.07h0l-.08.05-.04.02-.13.07h0l-.13.07-8.68,5.01-.21.12-.13.07h0l-.08.05-.04.02-.13.07h0l-.13.07-2.12,1.22"/>
    <path class="cls-1" d="M780.51,397.48l-8.66,5-.15.09-.21.12-.21.12-.04.02-.26.15-8.68,5.01-.21.12-.21.12-.04.02-.26.15-1.78,1.03"/>
    <path class="cls-1" d="M799.3,408.34l-8.66,5-.15.09-.21.12-.21.12-.04.02-.26.15-4.36,2.51-4.33,2.5-.21.12-.21.12-.04.02-.26.15-2.67,1.54"/>
    <path class="cls-1" d="M818.09,419.2l-8.66,5-.15.09"/>
    <path class="cls-1" d="M58.99,141.2l4.27-1.19.65-.18,2.06.07,3.58.1,6.14,1.7,1.34.67,1.02.51,4.05,1.99,6.43,4.52,2.84,2.61,3.36,3.08,5.72,6.66,5.02,7.37.69,1.31,1.08,2.03,2.36,4.44,3.08,7.92,1.9,7.74.65,7.26-.23,2.41-.39,4.1-1.86,5.5-2.27,3.36-.77,1.14-3.81,2.49"/>
    <path class="cls-1" d="M97.4,220.36l3.23.08,5.29-1.62"/>
    <path class="cls-1" d="M110.5,215.19l-.91.26-5.7-.14-5.28-1.44"/>
    <path class="cls-1" d="M58.86,150.33l.14-1.46,1.88-5.51,2.38-3.36"/>
    <path class="cls-1" d="M58.99,141.2l-1.74,1.24-2.3,1.64-.49.71-2.36,3.38"/>
    <path class="cls-1" d="M167.39,59l-1.95,1.09-1.07.6-.27.15-.36.2-2.85,1.59-2.13,1.19-.26.15-4.73,2.64-.83.46-1.29.72-.98.54-8.58-5.13-4.1-2.46-1.15-.69-6.13-3.48-3.64-2.07-.32-.18-3.47-1.97-1.42-.81-8.56-4.42-2.34-1.21-3.59-1.86-.09-.04-.85-.37-3-1.29-8.85-3.81-9.53-3.02-1.81-.57-9.82-1.9-.72-.14-9.97-.81-.4-.03-10,.21h-.61s0,.01,0,.01l-2.55.48-.63.12-.85.16-3.79.71-2.58.48-1.55.74-7.95,3.81-1.13.67-4.42,2.64-.82.8-2.78,2.72-1.37,1.39-6.09,6.18-5,8.66-1.36,2.35-3.07,4.43-.22,2.77-.77,9.97-.77,9.97-.77,10.01-.36,9.99-.36,9.99-.36,9.99-.36,9.99-.11,3.02-.05,2.91-.17,10-.17,10-.16,10-.17,10-.16,9.82-.02,2.92-.06,10-.06,10-.06,10-.06,10-.06,10-.03,5.39v2.93s.01,10,.01,10l.02,10,.02,10,.02,10,.02,10,.02,8.62.1,10,.1,10,.09,10,.1,10,.1,10,.03,3.68.28,10,.28,10,.28,10,.09,3.24.6,9.98.6,9.98.54,9,1.38,9.9,1.38,9.91.22,1.59,2.58,9.66,1.95,7.31,3.75,9.27,2.73,6.75,4.66,8.85,3.86,7.32,5.37,8.44,4.79,7.53,2.7,3.83,5.8,8.15,5.08,7.14,6.27,7.79,4.44,5.52,6.84,7.29,4.07,4.34,7.45,6.67,4.26,3.82,7.99,6.01,5.12,3.85,8.39,5.44,6.36,4.13,8.62,5.07,6.54,3.85,8.75,4.83,5.21,2.87,8.83,4.7,2.34,1.25,7.22,3.49,4,.15,2.84-.22"/>
    <path class="cls-1" d="M161.88,609.56l-1.4-9.8-.44-9.99-.32-7.31-.14-10-.14-10-.09-6.54-.03-10-.03-10-.03-10-.02-6.67v-10s0-10,0-10v-10s0-10,0-10v-9.3s0-10,0-10v-10s.01-10,.01-10v-10s.01-10,.01-10v-3.35s0-10,0-10v-10s.01-10,.01-10v-10s.01-10,.01-10v-8.51s.01-10,.01-10v-10s.01-10,.01-10v-10s.01-10,.01-10v-8.49s.01-10,.01-10v-10s.01-10,.01-10v-10s.01-10,.01-10v-3.23s.01-10,.01-10v-10s.02-10,.02-10v-10s.02-3.91.02-3.91l.05-10,.05-10,.05-10,.02-4.33.11-10,.11-10,.11-10,.07-5.93"/>
    <path class="cls-1" d="M159.99,134.5l.03-2.3.12-4.69.26-9.87,1.58-9.87.23-1.44"/>
    <path class="cls-1" d="M163.01,92.58l.74-.83,3-3.35.24-.26,5.77-3.54,3.39-1.89,4.31-2.4,8.75-4.88,3.34-1.86,1.57-.88,3.74-2.08,5.11-2.85.07-.04,1.16-.65.92-.51.31-.17,1.68-.84.88-.44,2.72-1.36.22-.11,4.84-1.08,1,.65"/>
    <path class="cls-1" d="M219.15,79.02l-.97-9.33-1.42-6.47-3.67-4.49"/>
    <path class="cls-1" d="M174.49,55.24l5.43-3.03,4.14-2.31,1.94-.96,3.65-1.82,4.46-.76,8.48,5.3,3.58,2.24,6.91,4.83-1.14-.79-7.07-4.79"/>
    <path class="cls-1" d="M41.82,39.86h.86s5.3.01,5.3.01h4.3s3.33.35,3.33.35l.99.1h.03s5.92.6,5.92.6l9.79,2.05.69.15,9.51,3.1,1.83.6,8.54,3.7,4.28,1.85.46.24,8.89,4.57,3.28,1.68,1.93.99,8.72,4.9,6.34,3.56,8.61,5.08,5.31,3.14,8.55,5.18,2.61,1.58,7.22,4.71,1.88,2.2,2.03,2.38-2.56,7.46"/>
    <path class="cls-1" d="M167.39,59l-3.96-2.43"/>
    <path class="cls-1" d="M186.15,61.54l-1.03-.55-1.81-.98-8.83-4.76-.68-.42-7.74-4.74-5.41-3.31-8.65-5.01-6.17-3.57-1.84-.97-1.41-.74-2.01-1.05-8.86-4.64-.28-.15-9.18-3.96-3.59-1.55-9.55-2.98-1.86-.58-9.83-1.81-.84-.15-9.86-.67"/>
    <path class="cls-1" d="M175.53,112.8l4.21,2.51"/>
    <path class="cls-1" d="M181.14,109.67l-5.62,3.13.05,6.12"/>
    <path class="cls-1" d="M164.09,60.84l-.06-.36-.61-3.91-.03-.19-.22-1.4-1.67-1.12-5.43-3.64-8.61-5.09-6.28-3.71-1.91-1.04-3.18-1.73-2.83-1.54-1.23-.67-5.35-2.91-5.03-2.5-9.1-4.14-3.7-1.68"/>
    <path class="cls-1" d="M121.16,31.44l-.64-.37-7.7-3.84-3.99-1.99-7.88-2.72-3.59-1.24-9.77-2.15-.87-.19-.15-.03-9.95-1-.74-.07-3.53.03-7.47.06-9.88,1.55-1,.16-9.25,3.79-.84.35-8.01,4.47-7.53,6.58-.85.74-4.79,8.77-1.41,2.58-.02.15"/>
    <path class="cls-1" d="M117.58,38.76l-.07-.04-4.53-2.83h-.03s-.57-.27-.57-.27l3.95-2.2,4.15-2.31.05-.03v.05s.03.5.03.5"/>
    <path class="cls-1" d="M148.65,63.08l-8.09-4.22-8.65-5.01-6.39-3.7-5.85-3.12-7.28-3.89-1.5-.8-9.08-4.19-3.9-1.8-9.42-3.37-2.14-.76-9.73-2.29-.99-.23-9.94-1.13-.57-.07-9.24-.04h-1.48s-5.5.82-5.5.82l-5.03.76-9.21,3.89-.45.19-7.34,6.79-.76.7-.65,1.3"/>
    <path class="cls-1" d="M127.06,54.51l.37.19,3.27,1.87"/>
    <path class="cls-1" d="M35.91,28.22l9.27-3.75.54-.22,9.9-1.44.69-.1,5.32.03h2.18s3.24.03,3.24.03l9.94,1.12.56.06,9.75,2.24.91.21,9.44,3.29,1.99.69,9.11,4.12,3.67,1.66.05.02"/>
    <path class="cls-1" d="M126.97,43.83l4.38-2.45,4.69-2.61"/>
    <path class="cls-1" d="M121.77,31.69l-.51.29-1.13.63-2.55,1.42-.24.14-.78.44-1.88,1.05.03.56"/>
    <path class="cls-1" d="M114.67,35.65l.48.31,3.47,2.22-3.92-1.97"/>
    <path class="cls-1" d="M126.97,43.83l-6.2-3.28-7.58-4-.73-.39,5.12,2.59,3.28,1.77,6.11,3.3"/>
    <path class="cls-1" d="M159.31,52.99l-8.45-5.52-8.63-5.06-6.19-3.63"/>
    <path class="cls-1" d="M150.5,57.9l-8.02-5.12-.53-.34-.65-.38-8.67-4.98-5.65-3.25,8.74-4.87.34-.19-2.99-1.61-8.81-4.73-2.6-1.39"/>
    <path class="cls-1" d="M137.97,60.74l4.43,2.54,8.99,4.39.24.12"/>
    <path class="cls-1" d="M163.18,54.99l-3.87-1.99-8.81,4.91-.99,2.77-.86,2.4,4.27,3.99"/>
    <path class="cls-1" d="M120.56,31.63l.7.35"/>
    <path class="cls-1" d="M121.77,31.69l-.61-.25"/>
    <path class="cls-1" d="M112.94,35.87l3.42-1.91,4.2-2.34-7.61,4.24"/>
    <path class="cls-1" d="M66.81,149.33l-2.4,3.8"/>
    <path class="cls-1" d="M53.18,226.66l.87.61.32.23,1.34.66-.18.97-.21,1.16.35.51,1.57,2.29,5.22,2.57,6.53,1.78,6.02.15,5.28-1.49,1.2-.67,7.18-4,4.33-3.07,3.22-4.54,1.17-3.45.81-2.38.4-4.11.27-2.78-.27-3.15-.1-1.2-.29-3.33-1.97-8.19-3.21-8.38-4.32-8.25-5.27-7.8-6.02-7.05-6.53-6.03-5.59-3.94-.89-.63-.3-.21-5.25-2.58-1.54-.76-4.9-1.33-.32-.09-1.32-.36-6.02-.15-5.28,1.49-7.18,4.01-1.2.67-4.33,3.07-3.22,4.54-1.98,5.83-.49,5.05,1.11,2.15.56,1.09,1.1.43,1.07.42-.15,1.57.04.45.09,1.07"/>
    <path class="cls-1" d="M83.88,211.77l1.23,1.19.09.02,1.19.2,3.93.67,1.2-.67.17,1.92-.12,1.27"/>
    <path class="cls-1" d="M55.4,156.17l1.52.75,1.45,1.02-1.2.67-1.43,3.42-.42,1.01-.07.16.39,1.52"/>
    <path class="cls-1" d="M22.18,174.44l.07.81-1.2.67.51,5.9,1.98,8.19,3.21,8.38,4.32,8.25,5.27,7.8,6.02,7.05,6.53,6.03,2.87,2.02,2.53,1.78,1.2-.67.19.13"/>
    <path class="cls-1" d="M86.39,213.18l.07.84-.11,1.15"/>
    <path class="cls-1" d="M85.12,213.82l1.23,1.34,5.22,1.21-1.2.67"/>
    <path class="cls-1" d="M53.78,160.95l1.37.67.59.41"/>
    <path class="cls-1" d="M55.53,229.13l-.42-.21-1.26-.88"/>
    <path class="cls-1" d="M54.05,227.27l-.2.76,1.63,2.63"/>
    <path class="cls-1" d="M23.93,178.13l-.14-1.61.05-.56"/>
    <path class="cls-1" d="M85.15,215.84l5.22,1.21-.55,5.61-1.98,5.83-3.22,4.54-4.33,3.07"/>
    <path class="cls-1" d="M85.2,212.97l-.08.85-1.2.67"/>
    <path class="cls-1" d="M83.92,214.49l1.23,1.34-.49,5.06-1.79,5.25-2.9,4.09-3.9,2.77-4.75,1.34-5.42-.13-5.88-1.6-2.19-1.08-2.51-1.24"/>
    <path class="cls-1" d="M53.12,163.23l1.29.64,1.23.87,2.96,2.08,1.59,1.12,5.56,5.14,3.16,3.71,1.96,2.3,4.49,6.64,3.68,7.02.06.15,2.68,6.99,1.51,6.25.18.73.42,4.91.14,1.64-.11,1.08-.47,4.78-1.69,4.96-2.74,3.86-3.69,2.62-4.49,1.27-5.12-.12-5.56-1.51-3.45-1.7-.99-.49"/>
    <path class="cls-1" d="M54.32,162.56l-.54-1.61,1.62-4.78-1.2.67"/>
    <path class="cls-1" d="M31.1,153.82l5.28-1.49,6.02.15,6.53,1.78,5.27,2.6-1.62,4.77"/>
    <path class="cls-1" d="M22.74,175.54l.25-2.53.2-2.02,1.79-5.25,2.9-4.08,3.9-2.77,4.75-1.35,5.42.13,5.88,1.6,4.75,2.34.54,1.61"/>
    <path class="cls-1" d="M24.91,176.39l.11-1.1.31-3.2,1.69-4.96,2.74-3.86,3.69-2.62,4.49-1.27,5.13.12,5.56,1.52,4.49,2.21,1.2-.67.99.49"/>
    <path class="cls-1" d="M57.17,158.61l.72.5,2.05,1.45,2.57,1.81,2.77,2.56,3.76,3.47,6.01,7.05,5.27,7.8,4.32,8.25,3.21,8.38.37,1.52,1.6,6.64v.03s.43,4.88.43,4.88l.08.89"/>
    <path class="cls-1" d="M24.79,178.4l-.87-.27-1.67-2.88"/>
    <path class="cls-1" d="M21.05,175.92l1.67,2.88"/>
    <path class="cls-1" d="M54.27,231.34l-1.63-2.63-4.86-3.42-5.88-5.43-5.42-6.35-4.75-7.03-3.89-7.43-2.89-7.55-1.78-7.38-.46-5.32,2.17.67.43,5.03,1.68,6.98,2.73,7.14,3.68,7.03,4.49,6.64,5.12,6.01,5.56,5.14,4.59,3.23-.54,2.04"/>
    <path class="cls-1" d="M55.25,163.21l1.38.97,2.09,1.47,1.34.94,5.88,5.43,2.1,2.46,3.32,3.89,4.75,7.03,3.89,7.43.77,2.02,2.12,5.53,1.52,6.3.26,1.08.29,3.41.15,1.79"/>
    <path class="cls-1" d="M1193.46,709.49l1.79,2.69.45.85"/>
    <path class="cls-1" d="M1211.62,749.91v-4.42s-3.14-9.49-3.14-9.49l-3.02-9.08-2.54-5.07-4.48-8.94-1.68-3.36-5.47-8.37-4.91-7.5-6.16-7.88-5.11-6.53-6.61-7.51-4.8-5.45-6.94-7.2-1.35-1.4-2.78-2.89-5.33-4.94-5.82-5.4-7.76-6.31-.89-.72-2.67-2.17-.52-.42-8.14-5.81-4.99-3.56-7.37-4.73-5.47-3.51-1.82-1.17-5.2-3.11-6.46-3.86-3.34-2-3.44-2.28-2.91-1.93-.82-.54"/>
    <path class="cls-1" d="M1134.51,630.73l7.73,6.35.92.75,3.07,2.52,7.31,6.82,3.77,3.51,2.45,2.55,6.93,7.21,1.67,1.73,6.61,7.5,4.81,5.46,6.18,7.86.85,1.09,4.3,5.48,1.94,2.93,4.48,6.78,4.11,6.23,1.92,3.74,4.56,8.9,2.51,4.9,2.07,5.91.21.6,3.3,9.44,1.03,2.93"/>
    <path class="cls-1" d="M1224.72,737.6l-.24-.7-.52-1.52-3.05-8.97-.63-1.85-2.02-5.93-4.44-8.96-4.31-8.71-5.37-8.44-4.88-7.66-6.03-7.97-5.01-6.62-5.11-6-6.06-7.11-6.84-7.3-3.65-3.9-.38-.4-7.25-6.88-3.71-3.52-7.71-6.37-3.97-3.28-8.12-5.84-4.91-3.53-8-5.11-3.03-1.93-3.64-2.33-8.62-5.08-4.54-2.68-1.93-1.14-4.12-2.16-4.49-2.35"/>
    <path class="cls-1" d="M1211.38,750.35l13.12-6.61.08-.47.05-.3.45-2.57.18-1.01.03-.16.08-.46.02-.08.12-.67.1-.58v-.02s-.8-2.49-.8-2.49l-2.5-7.74-.55-1.7-.79-2.44-1.38-4.27-4.35-9-4.11-8.5-5.33-8.46-4.77-7.57-2.13-2.82-6.02-7.99-2.84-3.77-6.48-7.62-4.67-5.49-2.24-2.39-4.22-4.5-3.99-4.26-.43-.46-7.27-6.86-3.74-3.53-.02-.02-7.74-6.33-.86-.7-3.2-2.61-4.4-3.12-8.16-5.79-.62-.44-7.41-4.68-5.12-3.24-2.25-1.42-8.63-5.05-5.88-3.44-.65-.38-5.4-2.79-1.92-.99-.04-.02-.76-.39-.12-.05-1.66-.71"/>
    <path class="cls-1" d="M1197.11,715.71l.89,1.7,4.65,8.86,1.52,2.89,3.38,9.41,3.38,9.41.69,1.92.21.2"/>
    <path class="cls-1" d="M1083.53,598.37l6.61,3.55,1.9,1.02,4.62,2.78,6.02,3.62,4.3,2.58,8.25,5.35,6.3,4.08.41.3.98.71,8.1,5.86,3.2,2.31.29.21"/>
    <path class="cls-1" d="M1127.58,622.02v-.69s-.04-.7-.04-.7l-.34-.49h0l-.15-.22-.65-.47-3.26,1.88-.19-.15-.45-.36-.55-.3"/>
    <path class="cls-1" d="M1129.47,616.17l.49.31,1.61,1.15.99.9.44.86-.02.53-.1.18-.17.29-.55.39-.2.14-.51.16-.22.07-.81.05-.12-.02-.75-.12h-.01s-.12-.04-.12-.04l-.46-.15v.02s.05,1.07.05,1.07"/>
    <path class="cls-1" d="M1121.96,620.5l4.27-2.46,3.24-1.87-.02,1.26"/>
    <path class="cls-1" d="M1092.19,593.38l-3.23,1.86-5.43,3.13-2.21,2.29-.81.85-.83.86"/>
    <path class="cls-1" d="M1129.1,621.66l-.02.3v.1s-.03.1-.03.1l-.11.54-.13.46-.15.5-.14.6-.11.62-1.29-.73-.17-.09"/>
    <path class="cls-1" d="M1127.11,624.14l.26-.92.16-.69.05-.53"/>
    <path class="cls-1" d="M1127.59,621.32l-.06.35-.05.3-.1.39-.45,1.68"/>
    <path class="cls-1" d="M1130.38,617.99l1.16.7.72.51.48.52.13.38"/>
    <path class="cls-1" d="M1129.42,621.02h.1s.52.06.52.06l.61-.12.62-.38.16-.5"/>
    <path class="cls-1" d="M1127.21,620.13l.16-.09.02-1.02v-.1s0-.04,0-.04l.44-.25.54-.31,1.31-.75.07-.04.64.47.39.28.62.71.04.44-.23.3-.05.06-.49.27-.61.1-.74-.12-.56-.23-.48-.3-.13-.08-.77-.55"/>
    <path class="cls-1" d="M1127.36,620.04h0l.76.47.61.32.22.07"/>
    <path class="cls-1" d="M1122.96,621.17l4.21-2.43,2.27-1.31.22.14"/>
    <path class="cls-1" d="M1129.1,621.66l-.03-.4-.11-.4"/>
    <path class="cls-1" d="M1129,621.96l.04.21"/>
    <path class="cls-1" d="M1131.43,620.07v-.65"/>
    <path class="cls-1" d="M1123.15,621.32l.82.68,2.97,2.46,1.42,1.18,5.86,4.85.29.24-.29-.24-5.86-4.84-1.42-1.17-2.98-2.46-1.45-1.2"/>
    <path class="cls-1" d="M1135.46,952.72l4.11-1.18,3.38-2.39,2.51-3.5,1.55-4.48h0s.03-.26.03-.26l.5-5.02-.08-.97"/>
    <path class="cls-1" d="M1095.32,894.74l-.07.11-2.02,3.36"/>
    <path class="cls-1" d="M1110.02,887.73l-4.69-.07-4.12,1.18-3.38,2.39-2.51,3.5"/>
    <path class="cls-1" d="M1082.74,972.2l.86.58.35.24,1.36.65-.18.99-.21,1.15.43.63,1.47,2.16,4.37,2.07.94.45,3.05.79,3.59.93,6.12.09,5.37-1.55,1.18-.68,7.06-4.08,4.41-3.12,1.49-2.08,1.78-2.49,1.45-4.19.57-1.66.69-6.9-.28-3.18-.08-.92-.31-3.58-2.01-8.17-3.27-8.35-4.4-8.21-5.36-7.75-6.12-6.99-6.64-5.97-5.18-3.53-1.28-.87-.45-.31-.29-.14-2.26-1.07-4.36-2.07-4.78-1.23-.58-.15-1.07-.28-.22-.06-1.97-.03-1.43-.02-2.56-.03h0s-.15,0-.15,0l-.91.26-2.07.6-1.73.5-.66.19-7.06,4.08-1.18.68-4.41,3.12-.18.25-.13.19-.09.12-1.88,2.62-1,1.39-.84,2.44-.07.19-.3.87-.45,1.29-.05.15-.05.13-.27.77-.28,2.85-.11,1.11-.11,1.09.33.6.53.96.08.14.14.26.11.21.35.64.23.42,1.08.41.7.27.41.16-.16,1.57.04.46.09,1.06"/>
    <path class="cls-1" d="M1113.98,957l1.27,1.17h.04s.7.12.7.12l.52.08,3.98.64,1.18-.68.17,1.92-.13,1.28"/>
    <path class="cls-1" d="M1051.08,920.12l.02.27.06.72-1.18.68v.07s.52,5.83.52,5.83l2.01,8.17.85,2.17.21.54.14.35.66,1.68,1.09,2.8.04.11.06.16.22.55.78,1.45.84,1.57.17.32.4.74.27.49,1.09,2.04.49.92.36.68,5.36,7.75,3.53,4.04,1.81,2.06.78.89,1.19,1.07,1.04.93,2.7,2.42,1.52,1.36.2.18,1.79,1.22,1.04.71,2.66,1.81,1.18-.68.36.25"/>
    <path class="cls-1" d="M1084.91,901.69l1.55.73,1.47,1.01-1.18.68-1.41,3.45-.42,1.02-.06.14.39,1.52"/>
    <path class="cls-1" d="M1116.51,958.38l.07.84-.11,1.15"/>
    <path class="cls-1" d="M1115.2,959.04l1.27,1.33,5.25,1.16-1.18.68"/>
    <path class="cls-1" d="M1083.32,906.48l1.39.66.62.42"/>
    <path class="cls-1" d="M1085.13,974.66l-.46-.22-1.28-.87"/>
    <path class="cls-1" d="M1083.6,972.79l-.2.78,1.59,2.61"/>
    <path class="cls-1" d="M1052.94,923.97l-.14-1.61.06-.57"/>
    <path class="cls-1" d="M1115.29,961.05l5.25,1.16-.56,5.62-2.02,5.84-3.28,4.57-4.41,3.12"/>
    <path class="cls-1" d="M1115.29,958.18l-.09.86-1.18.68"/>
    <path class="cls-1" d="M1114.02,959.72l1.27,1.33-.5,5.06-1.82,5.26-2.95,4.11-3.97,2.81-4.84,1.39-5.52-.08-4.51-1.16-1.48-.38-2.35-1.11-2.43-1.15"/>
    <path class="cls-1" d="M1082.67,908.77l1.31.62,1.26.86,2.17,1.48,2.46,1.68,1.15,1.03,4.51,4.05.9,1.03,4.32,4.93,4.57,6.6,3.75,6.99,1.07,2.75,1.71,4.36,1.65,6.72.06.24.43,4.91.14,1.64-.11,1.09-.48,4.79-1.72,4.98-2.79,3.89-3.75,2.65-4.57,1.32-5.22-.07-4.31-1.11-1.35-.35-3.54-1.68-.98-.46"/>
    <path class="cls-1" d="M1083.86,908.09l-.53-1.6,1.59-4.79-1.18.68"/>
    <path class="cls-1" d="M1060.22,899.58l5.37-1.54,5.27.07h.86s2.27.6,2.27.6l2.58.66,1.8.46,1.8.85,3.57,1.69-1.59,4.79"/>
    <path class="cls-1" d="M1051.78,921.38l.06-.59.16-1.65.02-.17.12-1.25.09-.89,1.31-3.8.51-1.46,2.95-4.11.98-.69,2.99-2.11,4.84-1.39,5.05.07h.46s2.65.69,2.65.69l2.59.67.74.19,2.84,1.35,1.99.95.53,1.6"/>
    <path class="cls-1" d="M1053.96,922.21l.11-1.09.17-1.71.15-1.5.25-.72.37-1.07,1.1-3.19,1.58-2.21,1.21-1.68,3.75-2.65,4.57-1.32,3.63.05,1.58.02,1.53.39,2.6.67,1.53.4,2.04.97,2.53,1.2,1.18-.68,1.06.5"/>
    <path class="cls-1" d="M1086.75,904.11l.71.48,1.42.97,2.13,1.45,1.18.81,1.48,1.33,5.16,4.64,6.12,6.99,5.36,7.75,4.4,8.21,3.27,8.35.62,2.54,1.38,5.62h0s.43,4.89.43,4.89l.08.89"/>
    <path class="cls-1" d="M1053.85,924.24l-.29-.09-.62-.18-1.73-2.81-.03-.06"/>
    <path class="cls-1" d="M1049.99,921.79l.03.05,1.73,2.81"/>
    <path class="cls-1" d="M1083.8,976.87l-1.6-2.61-2.11-1.44-2.84-1.94-.67-.6-2.7-2.43-2.62-2.35-.39-.45-5.12-5.85-4.83-6.98-.46-.87-1.59-2.96-.25-.47-.66-1.23-1-1.86-.41-1.05-.23-.58-1.75-4.48-.04-.1-.52-1.32-.46-1.86-1.35-5.5-.47-5.31,1.81.54.38.11.44,5.02,1.71,6.96.47,1.2.69,1.76.02.04.7,1.8.06.15.84,2.16.29.54,2.94,5.49.52.96,4.57,6.6,3.69,4.22,1.52,1.74,1.49,1.34,2.7,2.43,1.47,1.32,2.03,1.39,2.64,1.8-.53,2.05"/>
    <path class="cls-1" d="M1084.86,908.73l1.38.94,1.28.88,2.23,1.52,1.26,1.13,4.54,4.07.18.17,5.51,6.3,4.83,6.98,3.96,7.39,1.56,3.99,1.38,3.53,1.64,6.65.18.72.3,3.37.16,1.81"/>
    <path class="cls-1" d="M894,460.71l-1.19.74-7.26,4.48-.9.56-2.5,1.06"/>
    <path class="cls-1" d="M1076.2,565.18l-.04-2.47-.29-.6-.28-.32-.39-.34-.21-.18-.32-.23-8.67-4.99-8.67-4.99-.68-.39-6.11-3.56-7.07-4.11-8.66-5-3.99-2.31-.36-.11-.98-.12-1.68-.2-5.92-.7-1.49.86-.1.06-2.77,1.6-4.46,2.57-.38-.22-8.66-5-8.66-5-8.66-5-1.18-.68-.19.1-.06.04-.1.05-.43.23-.17.09-.55.3-.39.22-.63.34-.31.17-.94.51-.99.33-1.03-.44-8.64-5.03-8.64-5.03-8.64-5.03-8.64-5.03-8.64-5.03-8.64-5.03-6.04-3.52-.57-.33-.58-.36-.39-.24-8.51-5.25-8.51-5.25-8.51-5.25-.78-.48-1.19-.73-8.51-5.25-2.14-1.32-2.87.6-.2.04-3.51.19-3.74-.26h-.08s-3.99-.71-3.99-.71l-3.48-.98-.52-.15-2.89-1.12-.73-.29-.23-.09-.44-.22-3.13-1.59-.87-.57-2.27-1.49-2.59-2.23-1.94-2.31-.81-1.53-.41-.78v-.05s-.45-2.16-.45-2.16"/>
    <path class="cls-1" d="M252.06,89.73l8.66,5,8.66,5,8.66,5,8.66,5,8.66,5,8.66,5,8.66,5,8.66,5,8.66,5,8.66,5,8.66,5,8.66,5,8.66,5,8.66,5,8.66,5,8.66,5,8.66,5,8.66,5,8.66,5,8.66,5,8.66,5,8.66,5,8.66,5,8.66,5,8.66,5,8.66,5,8.66,5,8.66,5,8.66,5,8.66,5,8.66,5,8.66,5,8.66,5,8.66,5,8.66,5,8.66,5,8.66,5,8.66,5,8.66,5,8.66,5,8.66,5,8.66,5,8.66,5,8.66,5,8.66,5,8.66,5,8.66,5,8.66,5,8.66,5,8.66,5,8.66,5,8.66,5,8.66,5,8.66,5,8.66,5,8.66,5,8.66,5,8.66,5,8.66,5,8.66,5,8.66,5,8.66,5,8.66,5,8.66,5,8.66,5,8.66,5,8.66,5,8.66,5,8.66,5,10.83,6.26h0s-8.8,4.75-8.8,4.75l-.23.13-.97.52-1.84,1.44-1.11,1.77-.34,2.03"/>
    <path class="cls-1" d="M860.3,441.24l.98.57-.03-.02-.03-.02-.92-.54"/>
    <path class="cls-1" d="M861.25,441.79l1.62.93-1.59-.92"/>
    <path class="cls-1" d="M894,460.71l-.98-.56-1.59-.92-2.14-1.23-2.6-1.51-1.39-.8-.91-.53-.03-.02-.64-.37-.21-.12-.38-.22-2.63-1.52-.16-.09-.22-.13-2.01-1.18-.81-.47-.09-.05-.06-.04-.88-.5-.17-.09-2.32-1.32-.52-.3-.21-.12-2.49-1.44-2.97-1.71-2.6-1.5-3.78-2.18"/>
    <path class="cls-1" d="M273.68,109.02v.4"/>
    <path class="cls-1" d="M265.83,114.3l7.84-4.88,2.07,1.11"/>
    <path class="cls-1" d="M276.09,110.31l-.44-.24-1.97-1.06-8.19,5.1.35.19,1.29.69.78.42,7.84-4.88.35-.21"/>
    <path class="cls-1" d="M268.42,109.88l-.18.24-1.23,1.62-2.01-.38-2.1-.14-2.11.09-2.04.33-1.89.55-.82.37-.85.38-1.37.93-1.03,1.07-.65,1.16-.25,1.21v.28"/>
    <path class="cls-1" d="M277,117.62l-.02.11-.31,1.5-.87,1.54-1.37,1.41-.8.54-1.02.69-2.2,1-2.5.74-2.7.44-2.8.12-2.79-.19-2.67-.5-2.45-.79-1.82-.9-.31-.15-1.74-1.27-1.27-1.45-.76-1.56-.2-1.45-.02-.17"/>
    <path class="cls-1" d="M277,117.62l-.22-1.62-.76-1.56-1.27-1.45"/>
    <path class="cls-1" d="M274.74,113.28l1.27,1.44.76,1.56.2,1.45"/>
    <path class="cls-1" d="M273.47,117.86v-.28l-.17-1.22-.57-1.18-.78-.88-.18-.21,2.97-1.1v.28l-2.79,1.03"/>
    <path class="cls-1" d="M268.42,109.88l-2.67-.5-2.79-.19-2.8.13-2.7.44-2.5.74-1.41.64-.79.36-1.82,1.23-1.37,1.41-.87,1.54-.33,1.61"/>
    <path class="cls-1" d="M248.38,117.45l.31-1.5.87-1.54,1.37-1.41,1.82-1.23,2.2-1,2.5-.74,2.7-.44,2.8-.13,2.79.19,2.49.47"/>
    <path class="cls-1" d="M273.47,117.58l-.02.11-.23,1.1-.65,1.16-1.03,1.07-.4.27-.97.66-1.66.76-1.89.55-2.04.33-2.11.1-2.1-.14-2.01-.38-1.85-.6-1.35-.67-.26-.13-1.31-.96-.96-1.09-.57-1.18-.14-1.05-.02-.17"/>
    <path class="cls-1" d="M251.89,117.6l.17,1.22.57,1.18.96,1.09,1.31.96,1.61.79,1.85.6,2.01.38,2.1.15,2.11-.1,2.04-.33,1.89-.55,1.66-.76,1.37-.93,1.03-1.07.66-1.16.25-1.21"/>
    <path class="cls-1" d="M887.46,454.52l-.46-.09-.51-.1-.1-.02-1.14-.22-1.08-.21-.5-.1v.08s-.02,0-.02,0l-.04.22"/>
    <path class="cls-1" d="M887.46,454.52l-.71-.85-2.19-1.27-2.23-1.29-3.02-1.3"/>
    <path class="cls-1" d="M875.52,449.07l1.57.31,2.2.43-.06.34"/>
    <path class="cls-1" d="M877.47,450.19l-1.1-.21-.45-.09-.49-.28-.54-.31-.31-.18-.32-.18-.29-.17-.85-.49"/>
    <path class="cls-1" d="M884.53,454.27l-.26-.05-.64-.13-.65-.13-.3-.18-.54-.31-.48-.28-.32-.18-.11-.06-1.03-.59"/>
    <path class="cls-1" d="M886.48,454.33l.06-.33h0s-.56-.48-.56-.48l-2.19-1.27-2.23-1.29-1.35-.63-.97-.19-1.23-.24-1.57-.31v.08s-.07.3-.07.3"/>
    <path class="cls-1" d="M886.54,453.99h-.01s-.76-.15-.76-.15l-1.44-.28-1.08-.21-.49-.1"/>
    <path class="cls-1" d="M881.74,452.66l1.03.59-.02.09-.05.31"/>
    <path class="cls-1" d="M874.68,448.58l-1.55-.3"/>
    <path class="cls-1" d="M877.47,450.19l-.81-.47-.22-.13"/>
    <path class="cls-1" d="M875.45,449.47l.07-.4-.85-.49-.07.42"/>
    <path class="cls-1" d="M880.19,452.35l1.29.25.26.05-.02.09-.06.33"/>
    <path class="cls-1" d="M884.53,454.27l-.62-.36-.22-.13"/>
    <path class="cls-1" d="M597.68,301.95l-.19,1.11-.33.62-.23.44-.91.98-1.22.86-1.49.7-.57.18-1.13.35-1.84.32-1.92.11-1.92-.11-1.84-.32-1.7-.53-1.49-.71-1.22-.86-.91-.98-.23-.45-.32-.62-.19-1.11"/>
    <path class="cls-1" d="M597.68,301.95l-.19-1.11-.56-1.07-.91-.98-1.22-.86-1.49-.71-1.7-.52-1.84-.32-1.92-.11-1.92.11-1.84.32-1.7.52-1.49.71-1.22.86-.31.33-.6.65-.56,1.06-.19,1.11"/>
    <path class="cls-1" d="M283.92,117.38l-.14.81-.25,1.47-.13.25-1.02,1.94-1.87,2.02-1.99,1.4-.52.37-3.07,1.45-3.09.95-.41.13-.17.03-3.62.63-3.95.22-3.95-.23-3.64-.64-.16-.03-.42-.13-3.07-.95-3.07-1.46-2.52-1.77-1.87-2.02-1.03-1.95-.13-.24-.39-2.28"/>
    <path class="cls-1" d="M283.92,117.38l-.39-2.28-1.15-2.19-1.87-2.02-2.52-1.77-3.07-1.46-3.5-1.08-3.8-.67-3.95-.23-3.95.22-3.75.66h-.04s-.92.29-.92.29l-2.58.79-1,.47-2.07.98-2.4,1.69-.12.08-1.87,2.02-1.54,4.47"/>
    <path class="cls-1" d="M283.4,119.91v-1.43s-.38-2.22-.38-2.22l-.26-.71-1.11-2.11-1.8-1.94-2.42-1.7-2.95-1.4-.41-.19-3.24-1-3.51-.62-3.65-.21-3.65.21-3.51.61-1.54.47-1.57.48-.13.04-.41.19-1.44.68-.65.31-.86.4-1.09.77-.54.38-.78.55-1.8,1.94-.25.68-1.5,4.36v1.42"/>
    <path class="cls-1" d="M822.61,424.47l.32.63.69,1.37.09.19.03.06v.07h0v.09s.02.04.02.04l.02.14h0l.02.14v.02s.18,1.24.18,1.24l-.2,1.26-.16.45-.15.41-.4.58-.55.44-.74.44-.95.55-1.06.61-1.04.6-.08.04-.21.12-.13.07h0l-.08.05-.04.02-.13.07h0l-.13.07-.1.06-.77.41-.57.22-.88.16-.88.07-2.52.09-2.09-.16-.23-.02h0l-.23-.02h-.07s-.14-.02-.14-.02h0l-.19-.03h0s-.21-.04-.21-.04l-.1-.02h-.03s-.08-.02-.08-.02h-.04s-.13-.03-.13-.03h0l-.13-.02-2.99-.55-3.96-1.24-.71-.22-1.02-.44-.21-.09-.13-.05h0l-.08-.03-.04-.02-.13-.06h0l-.13-.05-1.51-.65-.15-.06h0l-.15-.06-.05-.02-.09-.04h0l-.15-.06-.24-.1-.08-.03-1.27-.55-1.48-.76-3.51-1.78-.21-.11-.13-.06h0l-.08-.04-.04-.02-.13-.06h0l-.12-.06h0s-2.19-1.21-2.19-1.21l-.13-.07h0l-.13-.07-.04-.02-.08-.05h0l-.13-.07-.21-.12-2.5-1.38-.89-.51-2.36-1.35-.21-.12-.13-.07h0l-.08-.05-.04-.02-.13-.07h0l-.13-.07-.64-.37-1.64-.95-.13-.07h0l-.13-.07-.04-.02-.08-.05h0l-.13-.07-.21-.12-1-.58-2.19-1.32-1.24-.85-.54-.57-.05-.48"/>
    <path class="cls-1" d="M822.61,424.47l-1.76-1.98-.69-.77-1.49-1.18-.21-.17-.21-.16-.04-.03-.26-.2-.2-.16-.22-.17-.04-.03-.18-.14-.18-.14-1-.79-4.98-3.31-1.9-1.16-.21-.13-.47-.29-.2-.12-2.38-1.45-4.57-2.66-1.56-.9-.21-.12-.39-.22-.21-.12-1.01-.58-2.3-1.25-1.55-.67-1.14-.23-1.07.11-1.23.44-.29.15-.21.11-.21.11-.04.02-.26.13-.35.18-2.35,1.33-.95.54-.71.41-1.05.61-3.03,1.75-.24.14-.21.12-.21.12-.04.03-.26.15-2.02,1.16-1,.58-1.56.9-1.39.81-.45.27"/>
    <path class="cls-1" d="M773.96,415.51l-.76.5-.36.24-.49.55"/>
    <path class="cls-1" d="M785.42,402.7l-.19-1.57-1.33-1.75-2.27-1.66-8.66-5-8.66-5-5.56-3.21-2.87-1.31-2.96-.76-.06-.02h-.15s-.21-.01-.21-.01h-.04s-.26-.01-.26-.01l-1.1-.05-.48-.02h-.08s-.39-.02-.39-.02h-.02s-.78.22-.78.22l-1.22.34-2.96,1.71-.2.11-1.46.84-.21.12-.21.12-.04.02-.26.15-6.6,3.81-1.34.77-.6.7-.15.18-.21.25-.02.02h0s.02.15.02.15h0s0,.02,0,.02v.07s.01.05.01.05l.02.14h0l.02.14.12,1.01.04.05,1.3,1.7,2.27,1.66,2.99,1.73.21.12.13.07h0l.08.05.04.02.13.07h0l.13.07,1.4.81.13.07h0s.13.08.13.08l.04.02.08.05h0s.13.08.13.08l.2.11h0s6.56,3.8,6.56,3.8l.21.12.13.07h0s.08.05.08.05l.04.02.13.07h0l.13.07,1.4.81.13.07h0l.13.07.04.02.08.05h0l.13.07.21.12,6.56,3.79.21.12.13.07h0l.08.05.04.03.13.07h0s.13.07.13.07l.38.22,1.02.47.13.06h0s.13.06.13.06l.04.02.08.04h0s.13.06.13.06l.21.1,1.13.52,3.03.77,2.72.11,1.81-.51.13-.04h0l.07-.02.06-.03.04-.02.08-.05h0l.13-.07.21-.12.82-.47,7.87-4.54.13-.07h0l.13-.07.04-.02.08-.05h0l.13-.07.21-.12,3.35-1.93.98-1.16"/>
    <path class="cls-1" d="M772.51,410.73l7.87-4.53.26-.15.04-.02.21-.12.21-.12.19-.11,3.16-1.83"/>
    <path class="cls-1" d="M745.17,378.54l-.17-1.63-1.35-1.8-2.32-1.7-8.66-5-8.66-5-6.14-3.55-2.95-1.34-3.12-.78-2.82-.1-2.09.6-.97.56-.21.12-.21.12-.04.02-.26.15-2.18,1.26-.75.43-5.75,3.32-.21.12-.21.12-.04.02-.26.15-1.55.89-1.26.73-1.04,1.2.17,1.63,1.35,1.8.36.27.18.14.11.08h0l.07.05.04.03.11.08h0l.11.08,1.33.97h0s.12.08.12.08h0l.13.07.04.02.08.05h0l.13.07.21.12,4.59,2.65,1.87,1.08.21.12.13.07h0l.08.05.04.02.13.07h0l.13.07,1.5.87.13.07h0l.13.07.04.02.08.05h0l.13.07.21.12,6.46,3.73.21.12.13.07h0l.08.05.04.02.13.07h0l.13.07,1.5.87.13.07h0l.13.07.04.02.08.05h0l.13.07.21.12,3.95,2.29,2.8,1.28.15.07.11.03.18.05h0l.11.03.06.02.18.04h0l.18.04.96.24.13.03h0l.13.03h.04s.08.03.08.03h0l.13.03.21.05.62.16,2.82.1,2.09-.6,1.26-.73,1.9-1.1.13-.07h0l.13-.07.04-.02.08-.05h0l.13-.07.21-.12,8.68-5.01.13-.07h0l.13-.07.04-.02.08-.05h0l.13-.07.21-.12.62-.36,1.04-1.2"/>
    <path class="cls-1" d="M731.5,387.04l1.9-1.1.26-.15.04-.02.21-.12.21-.12,6.16-3.55,2.53-1.46.26-.15.04-.02.21-.12.21-.12.62-.36"/>
    <path class="cls-1" d="M702.29,354.94l-.19-1.59-1.35-1.77-2.3-1.68-1.91-1.1-.78-.45-8.61-4.98-.78-.45-8.61-4.98-.78-.45-1.67-.97-2.9-1.33-3.06-.78-.98-.04h-.21s-.21-.02-.21-.02h-.04s-.26-.01-.26-.01l-1.06-.04-2.03.57-2.9,1.67-.35.2-2.35,1.35-.21.12-.21.12-.04.02-.26.15-5.36,3.09-1.79,1.04-.99,1.17.19,1.59,1.35,1.77,2.3,1.68,1.67.96.21.12.13.07h0l.08.05.04.02.13.07h0l.13.07,1.91,1.1.13.07h0l.13.07.04.02.08.05h0l.13.07.2.12h0s.13.08.13.08l5.92,3.42.21.12.13.07h0l.08.05.04.02.13.07h0l.13.07,1.91,1.1.13.07h0l.13.07.04.02.08.05h0l.13.07.21.12,6.06,3.5.21.12.13.07h0l.08.05.04.02.13.07h0l.13.07,1.91,1.1.07.04.06.03h0l.13.06.04.02.08.04h0l.13.06.21.1,2.25,1.03,3.06.78,2.76.11.61-.17.13-.04h0l.13-.04h.04s.08-.03.08-.03h0l.13-.04.21-.06.34-.1.37-.1,1.79-1.03,6.19-3.57.13-.07h0l.13-.07.04-.02.08-.05h0l.13-.07.21-.12,4.76-2.75.18-.21.82-.96"/>
    <path class="cls-1" d="M689.63,362.84l6.19-3.57.26-.15.04-.02.21-.12.21-.12,1.86-1.08,2.89-1.67"/>
    <path class="cls-1" d="M661.37,329.57l-.05-.46-.52-.54-1.18-.81-.67-.4-.21-.12-.2-.12h0s-.04-.03-.04-.03l-.09-.05-.04-.02h0s-.2-.12-.2-.12l-.2-.12-.43-.26-3.21-1.86-4.41-2.53-.34-.19-.21-.11-.19-.1h-.02s-.04-.04-.04-.04l-.1-.06-.04-.02-.04-.02-.18-.1-.21-.12-3.82-2.1-4.54-2.3-.21-.11-.21-.11-.04-.02-.26-.13h-.02s-.18-.1-.18-.1l-.09-.04-.05-.02-.24-.1-.24-.1-4.57-1.98-3.29-1.03-.21-.07-.21-.07h-.04s-.26-.09-.26-.09l-.46-.14-1.87-.36-.39-.07h-.06s-.31-.07-.31-.07l-.31-.06-.66-.13-2.74-.2-1.93.04-1.27.1-.56.1-.91.29-.66.36-.86.5-1.01.58-1.02.59-.91.53-.71.43-.52.42-.38.55-.29.8-.13.8-.06.39.24,1.64.2.39.09.19.06.11h0l.04.07.02.04.06.11h0l.06.11.56,1.11,2.35,2.62,3.37,2.66.18.14.11.08h0s.07.05.07.05l.04.03.07.05.04.03h0s.12.08.12.08l4.6,3.06,3.63,2.21.2.12.12.08h0l.08.05.04.02.12.08h0l.12.08.61.37.8.47.13.07h0l.13.07.04.02.08.05h0l.13.08.21.12,2.86,1.66,3.23,1.85.45.24.22.12.13.07h0l.08.04.04.02.13.07h0l.13.07,1.01.55.39.17.13.06h0l.13.05.04.02.08.04h0l.13.06.21.09.37.16,1.08.22,1.02-.1,1.17-.42,1.51-.78,2.02-1.15,1.51-.87.13-.07h0l.13-.07.04-.02.08-.05h0s.13-.07.13-.07l.21-.12.36-.21,2.89-1.67,2.98-1.72,2.3-1.33.16-.09.13-.07h0l.13-.08.04-.02.08-.05h0s.13-.07.13-.07l.21-.12.88-.51,1.07-.71.46-.52"/>
    <path class="cls-1" d="M789.77,427.61l.25.13.04.02.21.11.21.11,5,2.53"/>
    <path class="cls-1" d="M187.52,119.76v7.14s0,4.68,0,4.68v7.31s-.15,10-.15,10l-.15,10-.12,7.88-.05,3.5-.15,10-.15,10-.11,7.06-.06,4.11-.15,10-.15,10-.15,10-.15,10v.85s-.16,10-.16,10l-.15,10-.15,10-.15,10-.15,10-.15,10-.15,10-.15,10-.15,10-.15,10-.15,10-.15,10-.15,10-.15,10-.15,10-.15,10-.15,10-.04,2.54h0s-.1,7.06-.1,7.06l-.15,10-.15,10-.15,10-.15,10-.15,10-.15,10-.14,9.76-.15,10-.15,10-.06,4.08h0v.45s-.16,10-.16,10l-.15,10-.14,9.65-.11,7.25-.15,10-.09,6.07-.06,4.22-.06,3.91-.15,10-.04,2.48-.15,10-.15,10-.03,2.15-.13,8.68v10s0,1.43,0,1.43l8.66,5,4.52,2.61,8.66,5,8.66,5,8.66,5,8.66,5,8.66,5,8.66,5,8.66,5,8.66,5,8.66,5,8.66,5,8.66,5,8.66,5,8.66,5,8.66,5,8.66,5,8.66,5,8.66,5,8.66,5,8.66,5,8.66,5,8.66,5,8.66,5,8.66,5,8.66,5,8.66,5,8.66,5,8.66,5,8.66,5,8.66,5,8.66,5,8.66,5,8.66,5,8.66,5,8.66,5,8.66,5,8.66,5,8.66,5,8.66,5,8.66,5,8.66,5,8.66,5,8.66,5,8.66,5,8.66,5,8.66,5,8.66,5,8.66,5,8.66,5,8.66,5,8.66,5,8.66,5,8.66,5,8.66,5,8.66,5,8.66,5,8.66,5,8.66,5,8.66,5,8.66,5,8.66,5,8.66,5,8.66,5,8.66,5,8.66,5,8.66,5,8.66,5,8.66,5,8.66,5,8.66,5,8.66,5,8.66,5,8.66,5,8.66,5,8.66,5,8.66,5,8.66,5,8.66,5,8.66,5,8.66,5,8.66,5,8.66,5,8.66,5,8.66,5,8.66,5,8.66,5,8.66,5,8.66,5,8.66,5,8.66,5,8.66,5,8.66,5,8.66,5,12.3,7.11,8.66,5,5.57,3.22v-3.67s0-1.81,0-1.81v-7.34s-.16-10-.16-10l-.17-10-.17-10-.02-1.32-.1-6.25-.13-7.63-.17-10-.17-10-.17-10-.17-10-.17-10-.17-10-.17-10-.17-10-.17-10-.17-10-.17-10-.17-10-.17-10-.17-10-.17-10-.17-10-.17-10-.17-10-.17-10-.17-10-.17-10-.17-10-.17-10-.17-10-.17-10-.17-10-.17-10-.17-10-.17-10-.17-10-.22-12.96-.04-2.36-.07-4.4-.17-10-.17-10-.17-10-.17-10-.17-10-.17-10-.17-10-.17-10-.17-10-.17-10-.17-10-.17-10-.07-4.28v-7.31s0-4.68,0-4.68v-7.14s-8.65-5-8.65-5l-5.95-3.43-8.66-5-8.66-5-8.66-5-8.66-5-8.66-5-8.66-5-8.66-5-8.66-5-8.66-5-8.66-5-8.66-5-8.66-5-8.66-5-8.66-5-8.66-5-8.66-5-8.66-5-8.66-5-8.66-5-8.66-5-8.66-5-8.66-5-8.66-5-8.66-5-8.66-5-8.66-5-8.66-5-8.66-5-8.66-5-8.66-5-8.66-5-8.66-5-8.66-5-8.66-5-8.66-5-8.66-5-8.66-5-8.66-5-8.66-5-8.66-5-8.66-5-8.66-5-8.66-5-8.66-5-8.66-5-8.66-5-8.66-5-8.66-5-8.66-5-8.66-5-8.66-5-8.66-5-8.66-5-8.66-5-8.66-5-8.66-5-8.66-5-8.66-5-8.66-5-8.66-5-8.66-5-8.66-5-8.66-5-8.66-5-8.66-5-8.66-5-8.66-5-8.66-5-8.66-5-8.66-5-8.66-5-8.66-5-8.66-5-8.66-5-8.66-5-8.66-5-8.66-5-8.66-5-8.66-5-8.66-5-8.66-5-8.66-5-8.66-5-8.66-5-8.66-5-8.66-5-8.66-5-11.7-6.76-4.31-2.49-2.8-1.62-.53-.3-.27-.15-.59-.34-5.31-3.07-1.61-.93-.39-.22-1.04-.6-.26-.15-.33-.19-3.62-2.1-2.94-1.7-.53-.31-.34-.19-8.66-5-3.03-1.75-1.57-.91-1.68-.97-1.5-.87"/>
    <path class="cls-1" d="M175.58,118.92l-.61.35-2.81,1.61-.39.29-4.62,4.64-.24.33-.08.35-.03,10-.02,10-.03,10-.03,10-.03,10-.02,10-.03,10-.02,10-.03,10-.03,10-.03,10-.02,10-.03,10-.02,10-.03,10-.03,10-.03,10-.02,10-.03,10-.02,10-.03,10-.03,10-.02,10-.03,10-.03,10-.02,10-.03,10-.03,10-.02,10-.03,10-.03,10-.02,10-.03,10-.02,10-.03,10-.03,10-.03,10-.02,10-.03,10-.02,10-.03,10-.03,10-.03,10-.02,7.35-.03,10-.02,10-.03,10-.02,10-.02,7.72v7.64s-.01.1-.01.1v3.68s.08.33.08.33l4.35,5.94,6.8,6.85,8.54,5.21,8.54,5.21,8.66,5,8.66,5,8.66,5,8.66,5,8.66,5,8.66,5,8.66,5,8.66,5,8.66,5,8.66,5,8.66,5,8.66,5,8.66,5,8.66,5,8.66,5,8.66,5,8.66,5,8.66,5,8.66,5,8.66,5,8.66,5,8.66,5,8.66,5,8.66,5,8.66,5,8.66,5,8.66,5,8.66,5,8.66,5,8.66,5,8.66,5,8.66,5,8.66,5,8.66,5,8.66,5,8.66,5,8.66,5,8.66,5,8.66,5,8.66,5,8.66,5,8.66,5,8.66,5,8.66,5,8.66,5,8.66,5,8.66,5,8.66,5,8.66,5,8.66,5,8.66,5,8.66,5,8.66,5,8.66,5,8.66,5,8.66,5,8.66,5,8.66,5,8.66,5,8.66,5,8.66,5,8.66,5,8.66,5,8.66,5,8.66,5,8.66,5,8.66,5,8.66,5,8.66,5,8.66,5,8.66,5,8.66,5,8.66,5,8.66,5,8.66,5,8.66,5,8.66,5,8.66,5,8.66,5,8.66,5,8.66,5,8.66,5,8.66,5,8.66,5,8.66,5,8.66,5,8.66,5,8.66,5,8.66,5,8.66,5,8.66,5,8.66,5,12.31,7.11,8.65,5.01,4.6,2.66,8.65,5.01,4.41,2.55"/>
    <path class="cls-1" d="M1039.01,1127.32l.62-.11.52-.21,1.69-.97"/>
    <path class="cls-1" d="M926.88,489.65l-2.89-1.51v-.02s-1.31-.75-1.31-.75l-1.57-.91-8.66-5-8.66-5-7.03-4.06-.15-.08-.93-.54-.86-.5,8.66-5,.11-.06,4.02.78,3.79.74.19.06.41.24.3.29"/>
    <path class="cls-1" d="M911.58,467.8l-8.66-5-8.66-5-8.66-5-8.66-5-8.66-5-8.66-5-8.66-5-8.66-5-8.66-5-8.66-5-8.66-5-8.66-5-8.66-5-8.66-5-8.66-5-8.66-5-8.66-5-8.66-5-8.66-5-8.66-5-8.66-5-8.66-5-8.66-5-8.66-5-8.66-5-8.66-5-8.66-5-8.66-5-8.66-5-8.66-5-8.66-5-8.66-5-8.66-5-8.66-5-8.66-5-8.66-5-8.66-5-8.66-5-8.66-5-8.66-5-8.66-5-8.66-5-8.66-5-8.66-5-8.66-5-8.66-5-8.66-5-8.66-5-8.66-5-8.66-5-8.66-5-8.66-5-8.66-5-8.66-5-8.66-5-8.66-5-8.66-5-8.66-5-8.66-5-8.66-5-8.66-5-8.66-5-8.66-5-8.66-5-8.66-5-8.66-5-8.66-5-8.66-5-8.66-5-8.66-5-8.66-5-8.66-5-8.66-5-8.66-5-10.79-6.23-8.65-5.02-4.54-2.64-8.88-4.61-3.86-2-8-1.61-.43-.08-.38.07-6.18,3.56-8.66,5-8.66,5-8.66,5-2.92,1.68-.49.59-2.86,3.64-.06.07-1.37,1.74-1.32,1.68-1.86,2.36-.28.52-.25.51-.11.48-.27,1.22-.25,1.16-1.11,5.15-.03.16"/>
    <path class="cls-1" d="M1030.38,1129.5l-.97-.21-.34-.09,1.31.3,4.52,1.02.51.04.52-.08.48-.2,6.04-3.48"/>
    <path class="cls-1" d="M1075.71,563.07l-8.42-1"/>
    <path class="cls-1" d="M1032.2,582.32l-6.32,7.74-1.6,1.96"/>
    <path class="cls-1" d="M1012.7,538.6l8.09-4.65,7.01,1.33"/>
    <path class="cls-1" d="M1029.48,535.48l-8.66-5-8.66-5-8.66-5-8.66-5-8.66-5-8.66-5-8.66-5-8.66-5-8.66-5-8.66-5-8.66-5-8.66-5-8.66-5-3.17-1.83-1.45-.28-7.63-1.49-1.49.86-6.2,3.58-.36,1.04"/>
    <path class="cls-1" d="M1020.08,535.39l-2.56,1.71"/>
    <path class="cls-1" d="M896.97,471.28l.86.5,8.64,5.03,8.65,5.03,4.14,2.41,4.54,2.64,2.02,1.17.5.1.56.16,8.65,5.01,8.65,5.01,8.65,5.01,8.65,5.01,8.65,5.01,8.65,5.01,5.92,3.43.4.39.03.36,8.64,5.03,8.64,5.03,8.64,5.03,1.61.94v.85"/>
    <path class="cls-1" d="M895.67,471.78l7.17-4.14.33.06"/>
    <path class="cls-1" d="M892.81,461.45v-.43s-.04-.18-.04-.18l-.13-.16-.2-.14-.21-.12-1.59-.92-2.14-1.24-2.6-1.51-1.67-.96-1.31-.75-.14-.08-1.35-.78-1.44-.83-.3-.17-2.53-1.46-.82-.47-.62-.36-1.35-.78-1.38-.8-.06-.03-3.17-1.83-2.97-1.72-2.6-1.51-2.14-1.23-1.59-.92-.18-.11h-.02s-8.8,4.73-8.8,4.73l-.34.18-.11.09-1.7,1.34-1.02,1.63-.09.15-.03.17-.32,1.91v2.69"/>
    <path class="cls-1" d="M875.59,466.97l-9.55-2.95-3.18-.98-2.09-.64-.48-.23h-.02s-1.3-.63-1.3-.63l-1.48-1.04-1.1-1.19-.68-1.29-.23-1.34"/>
    <path class="cls-1" d="M879.29,456.68l-.23,1.34-.68,1.29-1.1,1.19-1.48,1.04-1.8.85-2.06.64-2.23.39-2.32.13-2.32-.13-2.2-.38"/>
    <path class="cls-1" d="M855.48,456.67l.23-1.34.68-1.29,1.1-1.19,1.48-1.04,1.8-.85,2.06-.64,2.23-.39,2.32-.13,2.32.13,2.23.39,2.06.64,1.8.86,1.48,1.04,1.1,1.19.68,1.29.23,1.34"/>
    <path class="cls-1" d="M860.27,442v-.04"/>
    <path class="cls-1" d="M892.17,460.44l.26.11"/>
    <path class="cls-1" d="M1076.34,577.63v-6.57s-.14-5.89-.14-5.89l-.05-2.33"/>
    <path class="cls-1" d="M926.88,489.65l8.65,5.01,8.65,5.01,8.66,5.01,8.65,5.01,8.65,5.01,8.65,5.01,5.92,3.43.41.4"/>
    <path class="cls-1" d="M582.4,300.14l.51.3,3.27,1.89v.6l1.75-1.01"/>
    <path class="cls-1" d="M587.94,301.32v.59s-3.79-2.19-3.79-2.19"/>
    <path class="cls-1" d="M584.15,299.13v.59l-1.24.71"/>
    <path class="cls-1" d="M591.72,299.75l-8.66,5-.12.07"/>
    <path class="cls-1" d="M597.16,303.69v-.46l-.18-1.05-.17-.45-.52-.99-.84-.91-1.14-.8-1.39-.66-.26-.12-1.5-.46-1.63-.29-1.69-.1-1.69.1-1.63.28-1.5.46-.26.12-1.39.66-1.14.8-.85.91-.52.99-.17.45-.18,1.05v.46"/>
    <path class="cls-1" d="M593.48,300.15l-.54.31-3.25,1.87v.59l-1.24.71"/>
    <path class="cls-1" d="M589.69,302.33l.54.31,3.25,1.88-.52.3-.36.21-.88.51-3.25-1.88h-.02s-.51-.31-.51-.31l-3.78,2.18-.97-.56-.24-.14-.54-.31"/>
    <path class="cls-1" d="M591.72,299.14l.78.45.97.56"/>
    <path class="cls-1" d="M582.4,304.51l3.27-1.89.52-.3"/>
    <path class="cls-1" d="M582.4,300.14l.88-.51.87-.5,3.79,2.19,3.78-2.18v.62s1.22.7,1.22.7"/>
    <path class="cls-1" d="M171.11,11.1l-5.15-3.35-4.72-3.06-9.65-2.61-2.17-.58-9.97-.83-1.94-.16-10,.25-4.24.1-9.8,1.97-4.43.89-9.79,2.05-4.81,1.01-.5.14-9,4.36-6.39,3.1-6.21,3.49"/>
    <path class="cls-1" d="M153.22,35.91l-1.61.93-.14.08-1.47-.83-3.73-1.96-1.73-.91-1.69-.89,8.07-4.64,5.47-2.95h0"/>
    <path class="cls-1" d="M142.73,30.33l-1.59.91-.16.09-4.52-2.36-6.75-2.97-1.74-.77"/>
    <path class="cls-1" d="M133.54,25.92l2.51,1.11,2.16.95,4.51,2.36"/>
    <path class="cls-1" d="M154.53,23.74l-2.95.2-2.58.18-.59.04-1.29.09-2.85.27-6.6.86-4.13.54.05,1.3"/>
    <path class="cls-1" d="M146.76,34.25v-.24s-.07-1.61-.07-1.61l5.79-3.33,4.33-2.34,1.68-.91-2.08-1.1"/>
    <path class="cls-1" d="M146.69,32.41l1.74.92,1.36.71,1.97,1.04,1.46.83"/>
    <path class="cls-1" d="M127.97,25.25l9.92-1.28,7.34-.95.85-.1,1.38-.16,1.49-.1"/>
    <path class="cls-1" d="M149,24.12l-.06-1.47-.65-.34-6.86-3.02-1.09-.48"/>
    <path class="cls-1" d="M142.09,17.89l7.95,3.49,4.49,2.36"/>
    <path class="cls-1" d="M140.34,18.81l1.75-.93"/>
    <path class="cls-1" d="M186,48.94v-8.71s-.95-4.19-.95-4.19"/>
    <path class="cls-1" d="M183.07,46.29l2.31-6.58-1.28-6.69-4.08-9.13-1.3-2.92"/>
    <path class="cls-1" d="M185.83,39.83l-.78-3.78-.59-2.88-4.1-9.12-1.3-2.89-6.12-7.91-1.5-1.94-5.48-3.55"/>
    <path class="cls-1" d="M1230.05,730.74l.74-.27,6.26-3.61,1.32-2.18.56-.92.28-4.44.31-5.01.16-2.51-.46-9.99-.46-9.99-.22-4.84-1.69-9.86-1.47-8.57-.18-.65-3.65-9.31-2.29-5.83-3.89-9.21-2.41-5.72-4.92-8.71-2.47-4.37-5.68-8.23-1.28-1.86-7.18-6.97-2.68-2.6-.42-.27-8.78-4.79-5.56-3.03-9.54-2.99-9.54-2.99-.56-.18-9.81-1.91-9.82-1.91-2.98-.58-9.97-.82-1.78-.15-9.91,1.33-1.08.15-.89.34-2.16.83-1.03.4-.09.03-1.52.59-.64.3-3.03,1.6-.56.3-.82.43-.09.05-.15.08-2.2,1.16"/>
    <path class="cls-1" d="M1162.6,621.42l-.24,1.04-.1.4-.09.41-.09.44-.09.5-.12.69-.44-.37-1.61-1.19-.3-.22"/>
    <path class="cls-1" d="M1161.7,608.23l-3.83.18-1.14.05h-.35s-1.18.05-1.18.05l-9.99.35-2.51.09-.53.02-.27,1.73"/>
    <path class="cls-1" d="M1150.82,614.6l-1.42,1.1-6.61-4.31-3.93-2.56-2-1.3,9.99-.36,6.16-.22h.21s3.4-.08,3.4-.08"/>
    <path class="cls-1" d="M1160.06,622.22l.3-1.96.19-1.24.07-.52.02-.43v-.02s-.09-.74-.09-.74l-.1-.25h0s-.13-.32-.13-.32l-.33-.42-.02-.03-.46-.38-.75-.55-.07-.05-5.44,3.21-1.98-1.45,8.61-5.09,1.23-.73.34-.2.06-.03,2.28-1.26"/>
    <path class="cls-1" d="M1159.52,623.13l.59-2.23.17-.62v-.04s.16-.63.16-.63l.11-.59"/>
    <path class="cls-1" d="M1239.66,711.81l-.32-4.43"/>
    <path class="cls-1" d="M1169.65,615.68l-.07.42-.17.4-.28.38-.38.37-.17.1-.7.43-.8.29-.51.07h-.05s-.75.11-.75.11l-1.41-.12-.98-.25-.32.5-.14.92-.03.17-.22,1.39-.03.17-.09.61"/>
    <path class="cls-1" d="M1163.35,612.54l.43-2.79,3.47,2.54.65.51.55.51.45.5.34.49.24.48.14.46.04.44"/>
    <path class="cls-1" d="M1159.82,623.35l.13-.53.11-.6"/>
    <path class="cls-1" d="M1166.59,618.15l.39-2.54.07-.46v-.38s-.24-.53-.24-.53l-.88-.92-.44-.34-1.27-.93-.8.45-.07.04-3.06,1.81-.02.13-.29,1.84"/>
    <path class="cls-1" d="M1156.38,608.47l.17-1.1.08-.49-3.8-2.45-3.47-2.24-1.03-.66"/>
    <path class="cls-1" d="M1167.05,615.15l-.27.52-.47.38-.56.27-.41.1-.24.06h-.75s-.84-.17-.84-.17l-.93-.39-.08-.05-.42-.24-.52-.35-1.27-.93"/>
    <path class="cls-1" d="M1148.32,601.53l1.61-.91"/>
    <path class="cls-1" d="M1149.93,600.62l8.4,5.43,3.37,2.17"/>
    <path class="cls-1" d="M1142.17,608.97l2.79,1.82,5.85,3.82"/>
    <path class="cls-1" d="M98.61,207.95l7.64-.24"/>
    <path class="cls-1" d="M141.14,31.25l-7.54-4.03"/>
    <path class="cls-1" d="M151.61,36.84l-4.85-2.59"/>
    <path class="cls-1" d="M164.04,60.49l.33.2"/>
    <path class="cls-1" d="M592.96,304.82l-3.25-1.88h-.02"/>
    <path class="cls-1" d="M626.65,312.27l-8.66,5-5.52,3.18"/>
    <path class="cls-1" d="M612.79,321.09l8.66-5,6.27-3.62"/>
    <path class="cls-1" d="M630.06,310.98l-8.66,5-8.67,5"/>
    <path class="cls-1" d="M638.63,316.21l-7.86,4.54-.21.12-.13.07h0l-.08.05-.04.02-.13.07h0l-.13.07-8.66,5-2.31,1.33"/>
    <path class="cls-1" d="M639.16,316.44l-8.39,4.84-.21.12-.13.07h0l-.08.05-.04.02-.13.07h0l-.13.07-8.66,5-1.92,1.11"/>
    <path class="cls-1" d="M619.7,327.96l8.66-5,1.69-.98.13-.07h0l.13-.07.04-.02.08-.05h0l.13-.07.21-.12"/>
    <path class="cls-1" d="M639.46,316.41l-8.69,5.01-.21.12-.21.12-.04.02-.26.15-8.66,5-1.81,1.05"/>
    <path class="cls-1" d="M648.53,321.35l-8.37,4.83-.21.12-.13.07h0l-.08.05-.04.02-.13.07h0l-.13.07-8.69,5.01-.21.12-.13.07h0l-.08.05-.04.02-.13.07h0l-.13.07-2.11,1.22"/>
    <path class="cls-1" d="M648.85,321.69l-8.69,5.01-.21.12-.13.07h0l-.08.05-.04.02-.13.07h0l-.13.07"/>
    <path class="cls-1" d="M628.63,333.66l1.42-.82.13-.07h0s.13-.07.13-.07l.04-.03.08-.05h0l.13-.07.21-.12,8.69-5.01.13-.07h0l.13-.07.04-.02.08-.05h0l.13-.07.21-.12"/>
    <path class="cls-1" d="M648.85,321.84l-8.69,5.01-.21.12-.21.12-.04.02-.26.15-8.69,5.01-.21.12-.21.12-.04.02-.26.15-1.54.89"/>
    <path class="cls-1" d="M657.96,326.76l-8.4,4.85-.21.12-.13.07h0l-.08.05-.04.02-.13.07h0l-.13.07-8.68,5.01-.21.12-.13.07h0l-.08.05-.04.02-.13.07h0l-.13.07-2.15,1.24"/>
    <path class="cls-1" d="M658.24,327.12l-8.69,5.01-.21.12-.13.07h0l-.08.05-.04.02-.13.07h0l-.13.07-8.69,5.01-.21.12-.13.07h0l-.08.05-.04.02-.13.07h0l-.13.07-1.67.96"/>
    <path class="cls-1" d="M638.03,339.08l1.41-.81.13-.07h0s.13-.07.13-.07l.04-.02.08-.05h0l.13-.07.21-.12,8.69-5.01.13-.07h0l.13-.07.04-.02.08-.05h0l.13-.07.21-.12,8.69-5.01"/>
    <path class="cls-1" d="M658.24,327.27l-8.69,5.01-.21.12-.21.12-.04.02-.26.15-8.69,5.01-.21.12-.21.12-.04.02-.26.15-1.54.89"/>
    <path class="cls-1" d="M676.97,337.49l-8.62,4.97-.21.12-.13.07h0s-.08.05-.08.05l-.04.02-.13.07h0l-.13.07-6.84,3.95-1.84,1.06-.21.12-.13.07h0l-.08.05-.04.02-.13.07h0l-.13.07-2.62,1.51"/>
    <path class="cls-1" d="M656.32,350.23l1.91-1.1.13-.07h0l.13-.07.04-.02.08-.05h0l.13-.07.21-.12,1.59-.92,7.09-4.09.13-.07h0l.13-.07.04-.02.08-.05h0l.13-.07.21-.12,8.69-5.01"/>
    <path class="cls-1" d="M677.03,338.13l-8.69,5.01-.21.12-.21.12-.04.03-.26.15-7.05,4.07-1.64.95-.21.12-.21.12-.04.02-.26.15-2.04,1.17"/>
    <path class="cls-1" d="M686.36,342.92l-8.62,4.97-.21.12-.13.07h0l-.08.05-.04.02-.13.07h0l-.13.07-8.69,5.01-.21.12-.13.07h0l-.08.05-.04.02-.13.07h0l-.13.07-2.62,1.51"/>
    <path class="cls-1" d="M686.43,343.27l-8.69,5.01-.21.12-.21.12-.04.02-.26.15-8.69,5.01"/>
    <path class="cls-1" d="M686.43,343.41l-8.69,5.01-.21.12-.13.07h0s-.08.05-.08.05l-.04.02-.13.07h0l-.13.07-8.69,5.01-.21.12-.13.07h0s-.08.05-.08.05l-.04.02-.13.07h0l-.13.07-2.16,1.25"/>
    <path class="cls-1" d="M665.72,355.66l1.91-1.1.13-.07h0l.13-.07.04-.02.08-.05h0l.13-.07.21-.12,8.69-5.01.13-.07h0l.13-.07.04-.02.08-.05h0s.13-.07.13-.07l.21-.12,8.69-5.01"/>
    <path class="cls-1" d="M686.43,343.56l-8.69,5.01-.21.12-.21.12-.04.02-.26.15-8.69,5.01-.21.12-.21.12-.04.02-.26.15-2.04,1.18"/>
    <path class="cls-1" d="M695.76,348.35l-8.62,4.97-.21.12-.13.07h0s-.08.05-.08.05l-.04.02-.13.07h0s-.13.07-.13.07l-8.69,5.01-.21.12-.13.07h0l-.08.05-.04.02-.13.07h0l-.13.07-2.62,1.52"/>
    <path class="cls-1" d="M675.11,361.08l1.91-1.1.13-.07h0l.13-.07.04-.02.08-.05h0l.13-.07.21-.12,8.69-5.01.13-.07h0l.13-.07.04-.02.08-.05h0l.13-.07.21-.12,8.69-5.01"/>
    <path class="cls-1" d="M695.83,348.99l-8.69,5.01-.21.12-.21.12-.04.03-.26.15-8.69,5.01-.21.12-.21.12-.04.02-.26.15-2.04,1.17"/>
    <path class="cls-1" d="M701.47,355.9l-4.94,2.85-.21.12-.13.07h0l-.08.05-.04.03-.13.07h0s-.13.07-.13.07l-8.35,4.82"/>
    <path class="cls-1" d="M714.61,359.7l-8.69,5.01-.21.12-.13.07h0l-.08.05-.04.02-.13.07h0l-.13.07-2.93,1.69-5.75,3.32"/>
    <path class="cls-1" d="M694.48,371.61l1.33-.76.13-.07h0l.13-.07.04-.02.08-.05h0l.13-.07.21-.12,5.75-3.32,2.93-1.69.13-.07h0l.13-.07.04-.02.08-.05h0l.13-.07.21-.12,8.69-5.01"/>
    <path class="cls-1" d="M714.61,359.85l-8.69,5.01-.21.12-.21.12-.04.02-.26.15-2.93,1.69-5.75,3.32-.21.12-.21.12-.04.02-.26.15-1.44.83"/>
    <path class="cls-1" d="M724.01,364.98l-8.68,5.01-.21.12-.21.12-.04.02-.26.15-8.69,5.01-.21.12-.21.12-.04.02-.26.15-1.88,1.09"/>
    <path class="cls-1" d="M724.01,365.13l-8.69,5.01-.21.12-.13.07h0l-.08.05-.04.02-.13.07h0l-.13.07-8.69,5.01-.21.12-.13.07h0s-.08.05-.08.05l-.04.02-.13.07h0s-.13.07-.13.07l-1.76,1.02"/>
    <path class="cls-1" d="M703.7,377.14l1.5-.87.13-.07h0l.13-.07.04-.02.08-.05h0l.13-.07.21-.12,8.69-5.01.13-.07h0l.13-.07.04-.02.08-.05h0l.13-.07.21-.12,8.69-5.01"/>
    <path class="cls-1" d="M724.01,365.27l-8.69,5.01-.21.12-.21.12-.04.02-.26.15-8.69,5.01-.21.12-.21.12-.04.02-.26.15-1.63.94"/>
    <path class="cls-1" d="M733.4,370.56l-8.69,5.01-.21.12-.13.07h0l-.08.05-.04.02-.13.07h0l-.13.07-8.69,5.01-.21.12-.13.07h0l-.08.05-.04.02-.13.07h0l-.13.07-1.76,1.02"/>
    <path class="cls-1" d="M713.1,382.57l1.5-.87.13-.07h0l.13-.07.04-.02.08-.05h0l.13-.07.21-.12,8.69-5.01.13-.07h0l.13-.07.04-.02.08-.05h0s.13-.08.13-.08l.21-.12,8.69-5.01"/>
    <path class="cls-1" d="M733.4,370.7l-8.69,5.01-.21.12-.21.12-.04.02-.26.15-8.69,5.01-.21.12-.21.12-.04.02-.26.15-1.63.94"/>
    <path class="cls-1" d="M742.8,375.84l-8.69,5.01-.21.12-.21.12-.04.02-.26.15-8.69,5.01-.21.12-.21.12-.04.02-.26.15-1.49.86"/>
    <path class="cls-1" d="M742.8,375.98l-8.69,5.01-.21.12-.13.07h0l-.08.05-.04.02-.13.07h0l-.13.07-8.69,5.01-.21.12-.13.07h0l-.08.05-.04.02-.13.07h0s-.13.07-.13.07l-1.32.76"/>
    <path class="cls-1" d="M723.03,387.68l.96-.55.13-.07h0l.13-.07.04-.02.08-.05h0s.13-.08.13-.08l.21-.12,8.69-5.01.13-.07h0s.13-.07.13-.07l.04-.03.08-.05h0l.13-.07.21-.12,8.69-5.01"/>
    <path class="cls-1" d="M742.8,376.13l-8.69,5.01-.21.12-.21.12-.04.02-.26.15-8.69,5.01-.21.12-.21.12-.04.02-.26.15-1.14.66"/>
    <path class="cls-1" d="M761.59,386.84l-8.69,5.01-.21.12-.13.07h0l-.08.05-.04.02-.13.07h0l-.13.07-7.03,4.05-1.66.96-.21.12-.13.07h0l-.08.05-.04.02-.13.07h0l-.13.07-1.66.96"/>
    <path class="cls-1" d="M741.38,398.8l1.4-.81.13-.07h0s.13-.08.13-.08l.04-.02.08-.05h0s.13-.07.13-.07l.21-.12,1.59-.92,7.09-4.09.13-.07h0l.13-.07.04-.02.08-.05h0l.13-.07.21-.12,8.69-5.01"/>
    <path class="cls-1" d="M761.59,386.99l-8.69,5.01-.21.12-.21.12-.04.02-.26.15-7.05,4.07-1.64.95-.21.12-.21.12-.04.02-.26.15-1.53.88"/>
    <path class="cls-1" d="M770.98,392.13l-8.68,5.01-.21.12-.21.12-.04.02-.26.15-8.68,5.01-.21.12-.21.12-.04.02-.26.15-1.78,1.03"/>
    <path class="cls-1" d="M770.98,392.27l-8.68,5.01-.21.12-.13.07h0l-.08.05-.04.02-.13.07h0l-.13.07-8.69,5.01-.21.12-.13.07h0l-.08.05-.04.02-.13.07h0l-.13.07-1.66.96"/>
    <path class="cls-1" d="M750.78,404.23l1.4-.81.13-.07h0l.13-.07.04-.02.08-.05h0l.13-.07.21-.12,8.69-5.01.13-.07h0l.13-.07.04-.02.08-.05h0l.13-.07.21-.12,8.68-5.01"/>
    <path class="cls-1" d="M770.98,392.42l-8.68,5.01-.21.12-.21.12-.04.02-.26.15-8.69,5.01-.21.12-.21.12-.04.02-.26.15-1.53.88"/>
    <path class="cls-1" d="M780.38,397.7l-8.68,5.01-.21.12-.13.07h0s-.08.05-.08.05l-.04.02-.13.07h0l-.13.07-8.68,5.01"/>
    <path class="cls-1" d="M760.17,409.65l1.4-.81.13-.07h0l.13-.07.04-.03.08-.05h0s.13-.07.13-.07l.21-.12,8.69-5.01.13-.07h0l.13-.07.04-.02.08-.05h0l.13-.07.21-.12,8.69-5.01"/>
    <path class="cls-1" d="M780.38,397.85l-8.69,5.01-.21.12-.21.12-.04.02-.26.15-8.68,5.01-.21.12-.21.12-.04.02-.26.15-1.53.88"/>
    <path class="cls-1" d="M799.08,408.08l-8.59,4.96-.21.12-.13.07h0l-.08.05-.04.02-.13.07h0l-.13.07-4.36,2.51-4.33,2.5-.21.12-.13.07h0l-.08.05-.04.02-.13.07h0l-.13.07-3,1.73"/>
    <path class="cls-1" d="M799.17,408.56l-8.69,5.01-.21.12-.13.07h0s-.08.05-.08.05l-.04.03-.13.07h0l-.13.07-4.36,2.52-4.33,2.5"/>
    <path class="cls-1" d="M778.08,421.02l2.29-1.32.13-.07h0s.13-.07.13-.07l.04-.02.08-.05h0l.13-.07.21-.12,4.33-2.5,4.36-2.51.13-.07h0l.13-.07.04-.02.08-.05h0l.13-.07.21-.12,8.69-5.01"/>
    <path class="cls-1" d="M799.17,408.71l-8.69,5.01-.21.12-.21.12-.04.02-.26.15-4.36,2.52-4.33,2.5-.21.12-.21.12-.04.02-.26.15-2.41,1.39"/>
    <path class="cls-1" d="M808.57,413.85l-8.69,5.01-.21.12-.21.12-.04.02-.26.15-8.69,5.01-.21.12-.21.12-.04.02-.26.15-2.58,1.49"/>
    <path class="cls-1" d="M808.4,413.55l-8.52,4.91-.21.12-.13.07h0s-.08.05-.08.05l-.04.03-.13.07h0l-.13.07-8.69,5.01-.21.12-.13.07h0l-.08.05-.04.02-.13.07h0l-.13.07-2.93,1.69"/>
    <path class="cls-1" d="M808.57,413.99l-8.69,5.01-.21.12-.13.07h0l-.08.05-.04.03-.13.07h0l-.13.07-8.69,5.01-.21.12-.13.07h0l-.08.05-.04.02-.13.07h0l-.13.07-2.45,1.42"/>
    <path class="cls-1" d="M787.57,426.4l2.19-1.27.13-.07h0l.13-.07.04-.02.08-.05h0l.13-.07.21-.12,8.69-5.01.13-.07h0l.13-.07.04-.02.08-.05h0l.13-.07.21-.12,8.69-5.01"/>
    <path class="cls-1" d="M808.57,414.14l-8.69,5.01-.21.12-.21.12-.04.02-.26.15-8.69,5.01-.21.12-.21.12-.04.02-.26.15-2.32,1.34"/>
    <path class="cls-1" d="M817.16,419.35l-7.88,4.55-.21.12-.13.07h0l-.08.05-.04.02-.13.07h0l-.13.07-8.69,5.01-.21.12-.13.07h0l-.08.05-.04.02-.13.07h0l-.13.07-2.33,1.35"/>
    <path class="cls-1" d="M817.54,419.66l-8.27,4.77-.21.12-.13.07h0l-.08.05-.04.02-.13.07h0s-.13.07-.13.07l-8.68,5.01-.21.12-.13.07h0l-.08.05-.04.03-.13.07h0l-.13.07"/>
    <path class="cls-1" d="M797.64,431.44l1.51-.87.13-.07h0l.13-.07.04-.02.08-.05h0l.13-.07.21-.12,8.68-5.01.13-.07h0l.13-.07.04-.02.08-.05h0l.13-.07.21-.12,8.49-4.9"/>
    <path class="cls-1" d="M817.96,419.57l-8.69,5.01-.21.12-.21.12-.04.02-.26.15-8.68,5.01-.21.12-.21.12-.04.02-.26.15-1.66.96"/>
    <path class="cls-1" d="M823.76,426.78l-5.09,2.93-.21.12-.21.12-.04.03-.26.15-8.49,4.9"/>
    <path class="cls-1" d="M823.62,426.47l-4.95,2.86-.21.12-.13.07h0l-.08.05-.04.02-.13.07h0s-.13.07-.13.07l-8.69,5.01-.21.12-.1.06"/>
    <path class="cls-1" d="M823.77,426.91l-5.1,2.95-.21.12-.13.07h0l-.08.05-.04.02-.13.07h0l-.13.07-8.27,4.77"/>
    <path class="cls-1" d="M810.14,435.08l7.81-4.51.13-.07h0l.13-.07.04-.02.08-.05h0l.13-.07.21-.12,5.14-2.97"/>
    <path class="cls-1" d="M823.79,427.05l-5.12,2.96-.21.12-.21.12-.04.03-.26.15-8.04,4.64"/>
    <path class="cls-1" d="M860.3,441.97v-.73"/>
    <path class="cls-1" d="M881.66,453.08l-.34-.07"/>
    <path class="cls-1" d="M883.66,453.86h-.03s-.9-.18-.9-.18"/>
    <path class="cls-1" d="M985.27,523.89l-.12-.66"/>
    <path class="cls-1" d="M1020.28,535.5l-.2-.12.31.06"/>
    <path class="cls-1" d="M1073.76,579.12l-.3-.18"/>
    <path class="cls-1" d="M1076.48,577.55l-.14-.16"/>
    <path class="cls-1" d="M1090.15,594.2v-2.26s4.62,2.6,4.62,2.6"/>
    <path class="cls-1" d="M1128.63,953l6.83-.28"/>
    <path class="cls-1" d="M1211.85,750.13l-.94.47"/>
  </g>
  <g id="Layer_1-2" data-name="Layer 1">
    <path class="cls-1" d="M1142.04,794.83l-2.18,4.12-4.07,7.69,1.5.86.25.15"/>
    <path class="cls-1" d="M1146.71,808.08l1.61,4.7.47,1.37.57.33.2.12"/>
    <path class="cls-1" d="M1137.06,808.56l.16-.3.32-.61.12-.22,1.27-2.39.11-.21,1.02-.59,1.84,1.07,2.86,1.65,1.95,1.13-.68.4"/>
    <path class="cls-1" d="M1145.22,803.72l-1.94-5.73-.69.4"/>
    <path class="cls-1" d="M1144.77,804.84l-.24-.72-1.75-5.16-.19-.57h0"/>
    <path class="cls-1" d="M1142.59,798.39h0l-.34.2-1.81,3.58-.53,1.05,1.81,1.04,1.18.68,1.87,1.08.34-.2h0l.69-.4-.69.4"/>
    <path class="cls-1" d="M1144.77,806.02l-.16-.49-.33-.98-.08-.23-1.65-4.88-.19-.57-.1-.28"/>
    <path class="cls-1" d="M1133.52,781.62l2.78-.8,3.17.04,3.44.89,3.58,1.7,3.58,2.44,3.44,3.09,3.17,3.62,2.78,4.01,2.28,4.25,1.69,4.33,1.04,4.23.35,3.98-.35,3.57-1.05,3.03-1.7,2.37-2.28,1.62-2.78.8-3.17-.04-3.44-.89-3.58-1.7-3.58-2.44-2.24-1.53-2.79-2.5-2.57-2.93-2.25-3.25-1.85-3.44-1.37-3.5-.84-3.43-.5-2.95-.35-3.98.36-3.57,1.05-3.03,1.7-2.37,2.28-1.61,5.67-3.27,1.33-.39,1.49-.43h3.24s3.52.85,3.52.85l3.56,1.61.1.04,3.69,2.38,3.55,3.03,3.28,3.56,1.69,2.33,1.2,1.62,2.39,4.19,1.78,4.28,1.09,4.21.37,3.97-.37,3.58-1.09,3.05-1.78,2.41-2.39,1.68-6.38,3.68"/>
    <path class="cls-1" d="M1145.69,808.67l-1.95-1.13-1.43-.83-1.43-.83-1.3-.75-.36-.21-.18-.1"/>
    <path class="cls-1" d="M1134.76,807.23l2.58-4.88,1.49-2.81"/>
    <path class="cls-1" d="M1137.06,808.56l-.8-.46-1.5-.87"/>
    <path class="cls-1" d="M1147.77,814.75l-.47-1.37-1.61-4.7.34-.2"/>
    <path class="cls-1" d="M1141.5,794.51l.18.1.36.21.27.16.77.44,2.74,8.11,1.56,4.61,2.18,6.45.33.98.17.48"/>
    <path class="cls-1" d="M1150.07,816.07l-1.72-1-.57-.33.34-.2"/>
    <path class="cls-1" d="M1141.5,794.51l-2.66,5.03-4.07,7.69.34-.2"/>
    <path class="cls-1" d="M1136.6,807.9l-1.5-.87h0"/>
    <path class="cls-1" d="M1145.11,805.82h0"/>
    <path class="cls-1" d="M1148.11,814.55l-.47-1.37-1.61-4.7h0l-1.95-1.13"/>
    <path class="cls-1" d="M1149.9,815.59l-1.22-.71-.57-.33"/>
    <path class="cls-1" d="M1139.17,799.35l2.5-4.73"/>
    <path class="cls-1" d="M1141.21,805.7l-1.48-.85"/>
    <path class="cls-1" d="M1098.89,828.14l6.13,3.54,1.06.56.95.39.84.24.73.1.29-.02"/>
    <path class="cls-1" d="M1108.33,833.6h0s.34-.34.34-.34l.2-.32.06-.1.18-.48.11-.53.04-.57-.03-.64-.1-.65-.16-.65-.22-.65-.28-.63v-.02s-.35-.64-.35-.64l-.4-.63-.45-.62-.5-.6-.55-.58-.6-.56-.65-.53v-.05l.39-.22,1.48-.85.45.05h.18"/>
    <path class="cls-1" d="M1106.51,830.54l1.47-.85.2-.21.15-.25.1-.29.06-.32.02-.35v-.22"/>
    <path class="cls-1" d="M1106.39,833.71l-.84-.24"/>
    <path class="cls-1" d="M1106.87,818.28l-.07-.29"/>
    <path class="cls-1" d="M1106.42,830.59l.09-.05h0l.2-.21.15-.25"/>
    <path class="cls-1" d="M1105.83,823.63l-.36-.04"/>
    <path class="cls-1" d="M1106.92,823.5l-.32.09"/>
    <path class="cls-1" d="M1104.82,821.46l1.46-.85"/>
    <path class="cls-1" d="M1104.82,821.46h0s.23-.18.23-.18"/>
    <path class="cls-1" d="M1108.34,833.59l-.05.03-.31.09"/>
    <path class="cls-1" d="M1093.03,799.07l2.78-.8,3.17.05,3.44.89,3.58,1.7,3.58,2.44,3.44,3.09,3.17,3.62,2.78,4.02,2.28,4.25,1.69,4.33,1.04,4.23.35,3.98-.35,3.57-1.05,3.03-1.7,2.37-2.28,1.62-2.78.8-3.17-.04-3.44-.89-3.58-1.7-3.58-2.44-2.24-1.54-2.79-2.5-2.57-2.93-2.25-3.25-1.85-3.44-1.37-3.5-.84-3.43-.5-2.95-.35-3.98.36-3.57,1.05-3.03,1.7-2.37,2.28-1.61,5.67-3.27,2.77-.79,1.32.02,1.84.03,3.44.89,3.58,1.7,3.58,2.44,1.28,1.15,2.17,1.93,3.19,3.61,2.79,4,2.3,4.24,1.71,4.32.51,2.02.55,2.2.36,3.97-.35,3.57-.5,1.45-.54,1.57-1.7,2.37-2.29,1.62-5.75,3.32"/>
    <path class="cls-1" d="M1097.03,810.37l.4.23,1.47.85,2.92,1.69.4.23.92.58.83.62.36.32.38.34.65.68.57.7.49.71.39.68.02.03.33.71.25.69.18.67.1.65.03.61-.02.47-.05.42-.09.37-.07.18-.06.14-.14.22-.03.05-.2.22-.08.06-.16.12-.28.13-.32.09-.36.04h-.07s-.1,0-.1,0h-.23s-.44-.05-.44-.05"/>
    <path class="cls-1" d="M1108.33,833.6l-.44.25-.54.15-.63.04-.73-.1-.84-.24-.95-.39-1.06-.56-1.34-.78-4.79-2.77"/>
    <path class="cls-1" d="M1098.9,811.45v10s-.01,6.69-.01,6.69l-1.47.85-.4.23v-9.32s.01-9.52.01-9.52"/>
    <path class="cls-1" d="M1099.59,822.35l.4.23,1.46.85.35.21.87.5.64.4.58.41.53.42.47.43.41.44.35.45.3.45.24.45.19.45.13.45.08.44.03.43-.02.34-.03.17-.03.15-.1.29-.15.25-.14.15-.06.06-.26.15-.32.08h-.39s-.2-.03-.2-.03l-.26-.04-.54-.17-.62-.27-.71-.38-1-.58-2.22-1.28v-3.91s0-2,0-2l1.86-1.08"/>
    <path class="cls-1" d="M1099.6,814.29l.4.23,1.46.85.35.2.14.08.56.35.49.36.43.36.38.37.32.38.27.38.22.38.17.38.13.38.09.37.05.36.02.36-.03.47-.02.11-.06.28-.13.32-.18.25-.03.02-.21.16-.29.11-.34.03-.39-.04-.45-.11-.5-.18-.55-.26-.61-.33-1.7-.98v-5.64s1.87-1.08,1.87-1.08"/>
    <path class="cls-1" d="M1106.11,830.77l.31-.18.09-.05"/>
    <path class="cls-1" d="M1104.42,821.69l.4-.23h0"/>
    <path class="cls-1" d="M65.73,368.86l1.06.63,4.92,2.95,5.99,3.58-1.79,2.76-2.5,3.87-1.17,1.82-.53.82"/>
    <path class="cls-1" d="M99.52,384.98l.31-3.05.05-.52-.34-3.98-1.02-4.24-1.66-4.34-2.24-4.27-2.73-4.04-.51-.6-2.6-3.06-3.38-3.12-3.52-2.48-3.52-1.73-.51-.14-2.87-.79-3.11-.08-2.73.77-5.9,3.29-2.24,1.59-1.67,2.35-1.03,3.02-.35,3.57.34,3.98.39,2.95.83,3.44,1.35,3.52,1.81,3.46,2.21,3.27,2.52,2.96,2.74,2.53,2.85,2,2.97,2.03,3.52,1.73,3.38.92,3.12.08,2.73-.77,5.84-3.25,2.25-1.6,1.68-2.36,1.04-3.02"/>
    <path class="cls-1" d="M63.23,352.59l2.73-.77,3.12.08,3.38.92,3.52,1.73,3.52,2.48,3.38,3.12,3.12,3.65,2.73,4.04,2.24,4.27,1.66,4.34,1.02,4.24.34,3.98-.35,3.57-1.03,3.02-1.67,2.35-2.24,1.59"/>
    <path class="cls-1" d="M71.71,385.29l-3.42-9.4-2.56-7.03"/>
    <path class="cls-1" d="M1073.7,1006.81l.35-.19,7.07-3.84.06.04.06.03,5.07,8.62,2.25,3.83.08.14.03.3"/>
    <path class="cls-1" d="M1075.39,1016.87l5.71,3.3.06.03.06.03,5.71,3.3"/>
    <path class="cls-1" d="M1087.57,1014.88l-.35.2-.04.1v1.78s0,6.46,0,6.46l-.24.12.24-.14"/>
    <path class="cls-1" d="M1087.18,1015.19v8.09s0,.12,0,.12v.02"/>
    <path class="cls-1" d="M1077.47,1011.42l-.39.22v4.17s4.03,2.33,4.03,2.33l.11.07,4.03,2.33.39-.22"/>
    <path class="cls-1" d="M1073.7,1006.81l-.03.26"/>
    <path class="cls-1" d="M1075.03,1007.95l-1.37-.88.35-.2"/>
    <path class="cls-1" d="M1075.38,1007.75l-1.36-.88.03-.25"/>
    <path class="cls-1" d="M1075.74,1016.67l-.24-.4"/>
    <path class="cls-1" d="M1087.18,1023.28l-5.61-3.24-.11-.07-5.71-3.3-.35.2-.24-.4v-8.24s-.03-.15-.03-.15l-.09-.14.35-.2.09.14.04.15v8.24s-.35.2-.35.2"/>
    <path class="cls-1" d="M1087.65,1014.84l-.09.04"/>
    <path class="cls-1" d="M1087.22,1015.08l.09-.04"/>
    <path class="cls-1" d="M1088.67,1015.74l-1.14-.58-.22-.11.26-.15.09-.05.91.46"/>
    <path class="cls-1" d="M1085.65,1016.14l-4.03-2.33-.12-.07-4.03-2.33"/>
    <path class="cls-1" d="M1077.08,1011.64l.39.22,3.64,2.11.12.07,4.03,2.33"/>
    <path class="cls-1" d="M1066.94,990.23l3.05-.88,3.48.05,3.78.97,3.93,1.86,3.93,2.68,3.78,3.39,3.48,3.98,3.05,4.41,2.5,4.67,1.86,4.75,1.14,4.65.38,4.37-.39,3.92-1.15,3.32-1.86,2.6-2.51,1.77-3.05.88-3.48-.05-3.78-.97-3.93-1.86-3.93-2.68-3.78-3.39-3.48-3.97-3.05-4.41-2.5-4.67-1.86-4.75-1.14-4.65-.39-4.37.39-3.92,1.15-3.32,1.86-2.6,2.51-1.77,2.58-1.49,2.79-.8.26-.08,3.47.05,3.77.98,3.92,1.87,3.85,2.64.07.05,3.77,3.4,3.47,3.98,3.04,4.41,2.49,4.67,1.85,4.76.34,1.38.61,2.5.19.78.37,4.38-.41,3.93-.84,2.42-.32.92-1.87,2.6-2.52,1.78-2.41,1.39"/>
    <path class="cls-1" d="M1085.64,1020.31v-4.17s-.38.22-.38.22v3.72s0,.45,0,.45"/>
    <path class="cls-1" d="M36.16,321.28l-6.61-7.51-5.35-6.08,1.09.07,3.06.19,4.25.26,3.57.22v6.43s0,5.26,0,5.26v1.17"/>
    <path class="cls-1" d="M43.74,332.35l3.12.08,2.73-.77,6.01-3.35,2.22-1.58,1.65-2.34,1.02-3.01.35-3.57-.34-3.99-1.01-4.25-1.65-4.35-2.22-4.29-1.84-2.76-.86-1.3-3.06-3.68-3.32-3.16-3.46-2.51-.84-.43-2.59-1.35-3.29-.97h-.11s-2.93-.12-2.93-.12l-2.66.73-6.57,3.66-2.24,1.59-1.67,2.35-1.03,3.02-.35,3.57.34,3.98.39,2.95.83,3.44,1.35,3.52,1.81,3.46,2.21,3.27,2.52,2.96,2.74,2.53,2.85,2,2.97,2.03,3.52,1.73,3.38.92"/>
    <path class="cls-1" d="M24.11,289.03l2.73-.77,3.12.08,3.38.92,3.52,1.73,3.52,2.48,3.38,3.12,3.12,3.65,2.73,4.04,2.24,4.27,1.66,4.34,1.02,4.24.34,3.98-.35,3.57-1.03,3.02-1.67,2.35-2.24,1.59"/>
    <path class="cls-1" d="M121.19,118.66l-.65.09-.73.88-.41,1.05v2.77s.41,1.06.41,1.06l.69.89,8.58,5.13,8.58,5.13,3.78,2.26,1.11.18,1.13-.16.64-.78.05-.12.26-.8.02-2.8-.26-1.17-.02-.08-.06-.06-.86-.83-7.91-4.65-8.62-5.07-4.73-2.79-.53-.12h-.02s-.45-.05-.45-.05"/>
    <path class="cls-1" d="M143.69,132.6l.69-.38"/>
    <path class="cls-1" d="M142.9,132.97l1.13-.64.45,1.57v2.77"/>
    <path class="cls-1" d="M119.81,119.63l.69.42,8.58,5.13,8.58,5.13,3.78,2.26,1.11.66v1.29s-.01,2.77-.01,2.77v.82"/>
    <path class="cls-1" d="M1054.93,656.45l-4.18-2.49-1.21-.72-.62.35-2.88,1.67v5.73s0,.71,0,.71l.61.36,1.23.71,5.81,3.36"/>
    <path class="cls-1" d="M1046.04,655.97v5.73s1.22.71,1.22.71l6.43,3.71h0l1.23,2.13h0"/>
    <path class="cls-1" d="M1061.7,671.45v8.22"/>
    <path class="cls-1" d="M1054.92,668.25v7.51s0,.71,0,.71l.61.35,5.54,3.2.61-.35,2.51-1.45.07-6"/>
    <path class="cls-1" d="M1061.7,670.74l.61.35,1.95,1.13,5.09,2.94"/>
    <path class="cls-1" d="M1061.7,671.45l.61-.35,1.95,1.13,5.71,3.3.61-.36,2.47-1.43.06-5.76-.5-.89-.1-.18-7.54-4.49-.6-1.07.06-6.7.07-1.59-.57-1.09-4.89-2.91-.57-.34-.63.36-2.9,1.67v5.7s0,0,0,0v2.52h0"/>
    <path class="cls-1" d="M1064.5,653.06l-2.79,1.61"/>
    <path class="cls-1" d="M1061.71,654.67v8.22"/>
    <path class="cls-1" d="M1061.7,662.89l2.67-1.54"/>
    <path class="cls-1" d="M1073.11,667.98l-2.53,1.46"/>
    <path class="cls-1" d="M1070.58,669.44v5.73h-1.23l.61.36"/>
    <path class="cls-1" d="M1054.92,668.25v8.22s5.54,3.2,5.54,3.2"/>
    <path class="cls-1" d="M1058.47,648.72l-2.92,1.68"/>
    <path class="cls-1" d="M1055.55,650.4l5.54,3.2"/>
    <path class="cls-1" d="M1061.09,653.61l2.83-1.64"/>
    <path class="cls-1" d="M1046.66,654.91l1.23.71,6.43,3.71"/>
    <path class="cls-1" d="M1054.31,659.33l.61-.35"/>
    <path class="cls-1" d="M1064.97,662.42l-2.65,1.53"/>
    <path class="cls-1" d="M1062.32,663.95l7.66,4.42"/>
    <path class="cls-1" d="M1069.97,668.38l2.54-1.46"/>
    <path class="cls-1" d="M1054.93,656.45l-5.39-3.21-2.89,1.67-.61.35v.71l.61-1.06"/>
    <path class="cls-1" d="M1061.69,679.67h-1.23s.61.35.61.35"/>
    <path class="cls-1" d="M1054.93,651.47l.61-1.06-.62.35v.71"/>
    <path class="cls-1" d="M108.3,363.63l9.98.61.91.05"/>
    <path class="cls-1" d="M107.62,351.16l.69.78,2.88,3.27,6.61,7.5,1.39,1.58.4.45"/>
    <path class="cls-1" d="M124.9,337.16l-3.52-2.47-3.52-1.73-3.39-.92h-.11s-3.02-.07-3.02-.07l-2.74.78-5.91,3.29-2.24,1.59-1.67,2.35-1.03,3.02-.35,3.57.34,3.98.39,2.95.83,3.44,1.35,3.52,1.81,3.46,2.21,3.27,2.52,2.96,2.74,2.53,2.85,2,2.97,2.03,3.52,1.73,3.38.92,3.12.08,2.73-.77,5.93-3.31,1.02-.72,1.23-.87,1.67-2.35,1.03-3.02.35-3.57-.34-3.98-1.02-4.24-1.67-4.34-1.23-2.34-1.01-1.93-2.73-4.04-3.12-3.65-3.39-3.12"/>
    <path class="cls-1" d="M102.7,336.04l2.73-.77,3.12.08,3.38.92,3.52,1.73,3.52,2.48,3.38,3.12,3.12,3.65,2.73,4.04,2.24,4.27,1.66,4.34,1.02,4.24.34,3.98-.35,3.57-1.03,3.02-1.67,2.35-2.24,1.59"/>
    <path class="cls-1" d="M107.61,364.02v-6.43s0-6.43,0-6.43"/>
    <path class="cls-1" d="M119.58,364.75l-8.4-.51-3.57-.22.69-.38v-10s0-1.69,0-1.69"/>
    <path class="cls-1" d="M99.01,438.49l.25-.07,1.13-.32,1.57.04,1.7.46,1.77.87,1.77,1.25,1.7,1.57,1.57,1.84,1.37,2.03,1.13,2.15.84,2.18.52,2.14.17,2.01-.08.84-.09.96-.52,1.52-.84,1.18-.68.48-.45.32"/>
    <path class="cls-1" d="M99.01,438.49l-1.13.8-.84,1.18-.52,1.52-.17,1.8.08.94.09,1.07.52,2.14.84,2.19,1.13,2.15,1.37,2.03,1.57,1.84,1.7,1.57,1.77,1.25,1.77.87,1.7.46,1.57.04,1.38-.39"/>
    <path class="cls-1" d="M112.28,459.63l-1.13.32-1.57-.04-1.7-.46-1.77-.87-1.77-1.25-1.7-1.57-1.57-1.84-1.37-2.03-1.13-2.15-.84-2.18-.52-2.14-.17-2,.18-1.8.52-1.52.84-1.18.68-.48"/>
    <path class="cls-1" d="M124.75,450.26l.02-9.65-3.53-2.1-8.6-5.11-3.43-2.04-3.06-1.83-8.59-5.12-3.89-2.32-3.74,2.08v10s-.01,6.66-.01,6.66v10s-.01,6.66-.01,6.66l8.58,5.13,6.93,4.15,8.58,5.13,6.93,4.15,3.76-2.09.03-10,.02-6.68.02-7.02"/>
    <path class="cls-1" d="M124.76,440.6l-3.82,2.13"/>
    <path class="cls-1" d="M89.92,424.17l8.58,5.13,6.93,4.15,8.58,5.13,6.93,4.15v10s-.01,6.66-.01,6.66v10s-.01,6.66-.01,6.66"/>
    <path class="cls-1" d="M66.47,296.01l8.58,5.13,2.33,1.39"/>
    <path class="cls-1" d="M65.78,296.4l5.43-8.4.56-.87.16.44,3.42,9.4,2.03,5.58.37,1.02"/>
    <path class="cls-1" d="M65.78,296.4l.69-.39,5.46-8.45"/>
    <path class="cls-1" d="M58.34,279.42l-.35,3.57.34,3.98.39,2.95.83,3.44,1.35,3.52,1.81,3.46,2.21,3.27,2.52,2.96,2.74,2.53,2.85,2,2.97,2.03,3.52,1.73,3.38.92,3.12.08,2.73-.77,5.89-3.28,2.24-1.59,1.67-2.35,1.03-3.02.35-3.57-.35-3.98-1.03-4.24-1.67-4.34-2.24-4.27-2.73-4.04-.53-.62-2.58-3.03-3.38-3.12-3.52-2.48-3.52-1.73-.54-.15-2.83-.78-3.11-.08-2.72.77-5.91,3.29-2.24,1.59-1.67,2.35-1.03,3.02"/>
    <path class="cls-1" d="M63.28,272.47l2.73-.77,3.12.08,3.38.92,3.52,1.73,3.52,2.48,3.38,3.12,3.12,3.65,2.73,4.04,2.24,4.27,1.66,4.34,1.02,4.24.34,3.98-.35,3.57-1.03,3.02-1.67,2.35-2.24,1.59"/>
    <path class="cls-1" d="M77.75,303.56l-5.98-3.58-5.99-3.58,8.58,5.13,3.39,2.03"/>
    <path class="cls-1" d="M372.1,169.3l-5.15,2.97"/>
    <path class="cls-1" d="M366.95,171.69v.58s3.12,1.81,3.12,1.81v-.58l1.13-.64,3.58-2.01.45-.25"/>
    <path class="cls-1" d="M361.45,169.1l-2.62,1.51"/>
    <path class="cls-1" d="M311.09,138.53l-4.15,2.4"/>
    <path class="cls-1" d="M363.82,174.07h0s-4.78,2.76-4.78,2.76"/>
    <path class="cls-1" d="M363.82,174.07v-.57s-.2-.12-.2-.12l-3.65-2.11-.07-.04-1.07-.62-.12-.07-.38-.22"/>
    <path class="cls-1" d="M363.82,173.5l-.5.29-4.01,2.37-.64.46.36.21,2.76,1.6.64-.46,4.01-2.37h0s.49-.29.49-.29l.32.18,3.64,2.1.85.49,1.89-1.12.72-.41.52-.29"/>
    <path class="cls-1" d="M375.23,170.6l-3.12-1.81"/>
    <path class="cls-1" d="M361.45,168.51l.09.05,1,.58.55.32,3.65,2.11.2.12,5.15-2.9v.51l2.68,1.55"/>
    <path class="cls-1" d="M358.33,170.32l1.89-1.11,1.24-.7v.59l.72.42,8.66,5,3.54,2.04"/>
    <path class="cls-1" d="M374.88,176.27l-.85-.49-3.46-2-.18-.11-.32-.19"/>
    <path class="cls-1" d="M306.22,140.51l.72.41,1.18.68.23.13,3.83,2.22,3.68,2.13,3.66,2.11,3.65,2.11,3.5,2.02.47.27,2.13-1.26,2.01-1.13.36-.2.36-.2-.47-.27-3.5-2.02-3.65-2.11-3.65-2.11-3.68-2.13-3.83-2.22-2.13-1.22"/>
    <path class="cls-1" d="M306.22,140.51l2.13-1.26,2.73-1.54v.82s8.66,5,8.66,5l8.66,5,2.88,1.66"/>
    <path class="cls-1" d="M344.12,178.44l1.22.7.24.14.98.57,2.59,1.49,3.5,2.02,3.65,2.11,3.65,2.11,3.64,2.1,3.63,2.1,3.85,1.77,5.18-.12,6.99-3.02,5.25-4.04.38-1.43.22-3.1v-1.64s0-.81,0-.81v-2.4s-.4-1.03-.4-1.03l-3.08-2.22-3.63-2.1-3.64-2.1-3.65-2.11-3.65-2.11-3.5-2.02-2.59-1.5-1.22-.7-1.22-.7-1.16.51-1.64.72-5.28,2.97-1.12.63-6.4,3.78-2.8,2-.28,1.02-.12.45v2.4s0,.81,0,.81v3.06"/>
    <path class="cls-1" d="M371.08,186.15l5.18-.11,6.99-3.03,5.25-4.03.2-2.99"/>
    <path class="cls-1" d="M324.64,159.75l-1.22-.7-1.22-.7-2.59-1.5-3.5-2.02-3.65-2.11-3.65-2.11-3.68-2.13-3.84-2.22-3.51-2.47"/>
    <path class="cls-1" d="M297.57,140.57l.21,3.22-.41,1.45v2.4s0,.81,0,.81v1.64s.41,1.13.41,1.13l3.51,2.47,3.84,2.22,3.68,2.13,3.66,2.11,3.65,2.11,3.5,2.02,2.59,1.5,1.22.7.82.47"/>
    <path class="cls-1" d="M343.42,150.55v-.4l-.4-1.01-1.22-.7-1.22-.7-2.59-1.5-3.5-2.02-3.65-2.11-3.65-2.11-3.68-2.13-3.84-2.22-4.28-2.03-5.59-.12-7.15,2.94-5.1,4.13-.4,1.32v2.4s0,.81,0,.81v1.64s.2,3.35.2,3.35"/>
    <path class="cls-1" d="M371.08,193.57l-.36-1.11v-1.64s0-.81,0-.81v-2.4s.37-1.47.37-1.47l-3.85-1.78-3.63-2.1-3.64-2.1-3.65-2.11-3.65-2.11-.34-.2-1.26-.73-1.9-1.1-2.59-1.5-1.22-.7-.2-.11-1.02-.59"/>
    <path class="cls-1" d="M324.24,161.22l.4-1.47,2.8-2,6.39-3.78,6.4-3.6,2.8-1.23"/>
    <path class="cls-1" d="M343.73,177.33l.4,1.11"/>
    <path class="cls-1" d="M343.73,175.7v1.64s0,1.43,0,1.43"/>
    <path class="cls-1" d="M324.24,166.07v-1.64s0-.81,0-.81"/>
    <path class="cls-1" d="M324.24,162.65v.97s0-2.4,0-2.4v1.43"/>
    <path class="cls-1" d="M324.24,166.07h0s0,.88,0,.88v.55s.4,1.11.4,1.11l2.59,1.5,3.5,2.02,3.65,2.11,3.66,2.11,3.5,2.02,2.59,1.49,1.46-.59"/>
    <path class="cls-1" d="M324.23,167.5v-.55s0-.88,0-.88v-1.01s0-.63,0-.63v-1.78s.4-1.72.4-1.72"/>
    <path class="cls-1" d="M343.85,172.04l-2.31-1.34-3.5-2.02-3.66-2.11-3.65-2.11-3.5-2.02-2.59-1.5,2.8-1.61,6.4-3.69,6.4-3.69,2.8-1.61.4.23h0s2.19,1.27,2.19,1.27l3.5,2.02,3.66,2.11,3.65,2.11,3.5,2.02,1.43.83"/>
    <path class="cls-1" d="M343.73,175.72v.6s0,2.44,0,2.44l.4,1.11"/>
    <path class="cls-1" d="M1102.19,744.12h0s.05.09.05.09l4.73,8.81.24.45"/>
    <path class="cls-1" d="M1093.08,719.29l2.78-.8,3.17.04,3.44.89,3.58,1.7,3.58,2.44,3.44,3.09,3.17,3.62,2.78,4.01,2.28,4.25,1.69,4.33,1.04,4.23.35,3.98-.35,3.57-1.05,3.03-1.7,2.37-2.28,1.62-2.78.8-3.17-.04-3.44-.89-3.58-1.7-3.58-2.44-2.24-1.53-2.79-2.5-2.57-2.93-2.25-3.25-1.85-3.44-1.37-3.5-.84-3.43-.5-2.95-.35-3.98.36-3.57,1.05-3.03,1.7-2.37,2.28-1.61,5.42-3.13,2.76-.79,1.02.02,2.14.03,1.7.44,1.74.45,3.58,1.7,3.57,2.45.69.62,1.05.94,1.72,1.52,3.19,3.61,2.8,4,2.3,4.24,1.37,3.45.35.87,1.06,4.22.36,3.97-.35,3.57-1.05,3.03-.1.14-1.6,2.23-2.29,1.62-5.49,3.17"/>
    <path class="cls-1" d="M1101.87,741.07l.14-.1,1.27-.89,3.23-2.26.03.02.12.07,2.41,1.39-5.9,4.12.06.11h0s.11.21.11.21l4.74,8.81.18.34h0l.93,1.74.28.52"/>
    <path class="cls-1" d="M1102.18,744.13l-.31.18-1.88,1.29-1.85,1.27-1.07.74-.28.19"/>
    <path class="cls-1" d="M1094.2,746.31l6.2-4.27.17-.12"/>
    <path class="cls-1" d="M1096.78,747.8l-2.58-1.49.31-.18"/>
    <path class="cls-1" d="M1106.9,753.65l-4.75-8.8-.23-.42-.06-.12"/>
    <path class="cls-1" d="M1109.46,755.13l-2.56-1.48.31-.18"/>
    <path class="cls-1" d="M1100.89,741.74l-.31.18-4.75-8.8-1.16-2.15.59.34,1.99,1.15,4.62,8.6.15-.08.16-.09"/>
    <path class="cls-1" d="M1102.19,744.12h0"/>
    <path class="cls-1" d="M1054.17,747.46l4.62,8.87,1.7,3.27h0v2.29s0,7.54,0,7.54h0l2.3,1.33"/>
    <path class="cls-1" d="M1052.74,734.94l2.78-.8,3.17.04,3.44.89,3.58,1.7,3.58,2.44,3.44,3.09,3.17,3.62,2.78,4.01,2.28,4.25,1.69,4.33,1.04,4.23.35,3.98-.35,3.57-1.05,3.03-1.7,2.37-2.28,1.61-2.78.8-3.17-.05-3.44-.89-3.58-1.7-3.58-2.44-2.24-1.53-2.78-2.5-2.57-2.93-2.25-3.25-1.85-3.44-1.37-3.5-.84-3.43-.5-2.95-.35-3.98.36-3.57,1.05-3.03,1.7-2.37,2.28-1.61,5.73-3.3,2.77-.79,3.15.06,3.42.9,3.55,1.71.99.68,2.57,1.77,3.43,3.1,3.16,3.63,2.77,4.02,2.28,4.25,1.04,2.64.66,1.68,1.05,4.23.36,3.97-.34,3.56-1.03,3.02-.63.88-1.05,1.47-2.26,1.6-5.67,3.27"/>
    <path class="cls-1" d="M1061.51,758.1l.13-.1,1.49-1.14,3.16-2.4.03.02.21.12,2.8,1.62-5.08,3.89-1.45,1.11v3.55s0,4.24,0,4.24v1.75s0,.26,0,.26"/>
    <path class="cls-1" d="M1062.79,771.01l-1.27-.74-1.26-.73"/>
    <path class="cls-1" d="M1060.49,769.42l-.22.13v-9.83"/>
    <path class="cls-1" d="M1060.49,759.59l-.22.13-1.43-2.74-4.62-8.87-.47-.9h.01s.41.24.41.24l2.62,1.52,4.59,8.88.12.24.14-.08"/>
    <path class="cls-1" d="M25.28,307.76l6.61,7.51,4.27,4.85"/>
    <path class="cls-1" d="M66.79,369.5l3.42,9.4,2.03,5.58"/>
    <path class="cls-1" d="M343.42,150.55v-.4"/>
    <path class="cls-1" d="M1062.31,671.1h0"/>
    <path class="cls-1" d="M1066.32,754.48l-3.17,2.42"/>
    <path class="cls-1" d="M1094.51,746.13l2.55,1.48"/>
    <path class="cls-1" d="M1095.25,731.32l4.75,8.8.88,1.63"/>
    <path class="cls-1" d="M1102.18,740.9v.02s.2-.13.2-.13l.93-.66,3.23-2.29"/>
    <path class="cls-1" d="M1107.21,753.47l1.97,1.14"/>
  </g>
</svg>