<svg width="44" height="36" viewBox="0 0 44 36" fill="none" xmlns="http://www.w3.org/2000/svg">
<path d="M9.1447 29.2371C8.84789 30.549 8.36857 31.6326 7.70673 32.4877C7.05425 33.3545 6.24929 33.9929 5.29183 34.4029C4.33172 34.8246 3.24518 35.0354 2.03219 35.0354C1.65988 35.0354 1.31222 35.0061 0.989199 34.9475C0.651515 34.9007 0.321783 34.8187 0 34.7016L0.922648 32.1362C1.08018 32.1831 1.30378 32.23 1.59342 32.2768C1.88041 32.3354 2.11999 32.3647 2.31214 32.3647C2.90062 32.3647 3.4242 32.2534 3.88289 32.0308C4.34157 31.8083 4.732 31.4627 5.05418 30.9942C5.38572 30.5373 5.63232 29.9516 5.79398 29.2371L10.9815 6.30745C11.2916 4.93695 11.7988 3.78314 12.5032 2.84604C13.2076 1.90894 14.0705 1.20026 15.0919 0.719998C16.1133 0.239735 17.2545 -0.000396729 18.5156 -0.000396729C18.9479 -0.000396729 19.3663 0.0347445 19.7708 0.105027C20.1872 0.175309 20.5997 0.263162 21.0082 0.368586L20.0294 2.86361C19.8385 2.80504 19.6089 2.75819 19.3406 2.72305C19.0843 2.68791 18.7821 2.67034 18.4338 2.67034C17.7252 2.67034 17.0916 2.81676 16.5329 3.1096C15.9769 3.39073 15.5119 3.80071 15.1378 4.33954C14.7757 4.87838 14.5072 5.53435 14.3323 6.30745L9.1447 29.2371Z" fill="black"/>
<path d="M32.1447 29.2371C31.8479 30.549 31.3686 31.6326 30.7067 32.4877C30.0543 33.3545 29.2493 33.9929 28.2918 34.4029C27.3317 34.8246 26.2452 35.0354 25.0322 35.0354C24.6599 35.0354 24.3122 35.0061 23.9892 34.9475C23.6515 34.9007 23.3218 34.8187 23 34.7016L23.9226 32.1362C24.0802 32.1831 24.3038 32.23 24.5934 32.2768C24.8804 32.3354 25.12 32.3647 25.3121 32.3647C25.9006 32.3647 26.4242 32.2534 26.8829 32.0308C27.3416 31.8083 27.732 31.4627 28.0542 30.9942C28.3857 30.5373 28.6323 29.9516 28.794 29.2371L33.9815 6.30745C34.2916 4.93695 34.7988 3.78314 35.5032 2.84604C36.2076 1.90894 37.0705 1.20026 38.0919 0.719998C39.1133 0.239735 40.2545 -0.000396729 41.5156 -0.000396729C41.9479 -0.000396729 42.3663 0.0347445 42.7708 0.105027C43.1872 0.175309 43.5997 0.263162 44.0082 0.368586L43.0294 2.86361C42.8385 2.80504 42.6089 2.75819 42.3406 2.72305C42.0843 2.68791 41.7821 2.67034 41.4338 2.67034C40.7252 2.67034 40.0916 2.81676 39.5329 3.1096C38.9769 3.39073 38.5119 3.80071 38.1378 4.33954C37.7757 4.87838 37.5072 5.53435 37.3323 6.30745L32.1447 29.2371Z" fill="black"/>
<path d="M26.8375 4.37593L26.1983 10.0769H24.07L23.8233 4.37593H26.8375Z" fill="black"/>
</svg>
