<?xml version="1.0" encoding="UTF-8"?>
<svg id="Layer_2" data-name="Layer 2" xmlns="http://www.w3.org/2000/svg" viewBox="0 0 300 300">
  <defs>
    <style>
      .cls-1, .cls-2 {
        stroke-width: 0px;
      }

      .cls-2 {
        fill: #fff;
      }
    </style>
  </defs>
  <g id="Layer_1-2" data-name="Layer 1">
    <rect class="cls-1" width="300" height="300" rx="20" ry="20"/>
    <path class="cls-2" d="M185.4,147.19c18.85,4.39,32.08,9.72,39.7,15.97,10.94,8.89,16.41,20.41,16.41,34.57,0,14.94-6.01,27.3-18.02,37.06-14.75,11.82-36.18,17.72-64.31,17.72H58.25v-5.42c9.18,0,15.4-.85,18.68-2.56,3.27-1.71,5.57-3.93,6.88-6.67,1.32-2.73,1.98-9.47,1.98-20.21V88.74c0-10.74-.66-17.5-1.98-20.29s-3.64-5-6.96-6.67c-3.32-1.66-9.52-2.49-18.6-2.49v-5.42h95.21c22.75,0,38.87,2.03,48.34,6.08,9.47,4.05,16.94,10.11,22.41,18.16,5.47,8.06,8.2,16.63,8.2,25.71,0,9.57-3.47,18.09-10.4,25.56-6.94,7.47-19.14,13.4-36.62,17.8ZM132.08,154.66v63.72l-.15,7.32c0,5.27,1.34,9.25,4.03,11.94,2.69,2.69,6.67,4.03,11.94,4.03,7.81,0,15.01-1.73,21.61-5.2,6.59-3.46,11.65-8.5,15.16-15.09s5.27-13.94,5.27-22.05c0-9.28-2.15-17.6-6.45-24.98-4.3-7.37-10.21-12.52-17.72-15.45-7.52-2.93-18.75-4.34-33.69-4.25ZM132.08,143.24c13.87,0,24.1-1.56,30.69-4.69,6.59-3.12,11.65-7.52,15.16-13.18,3.52-5.66,5.27-12.89,5.27-21.68s-1.74-15.99-5.2-21.61c-3.47-5.61-8.42-9.89-14.87-12.82s-16.8-4.34-31.05-4.25v78.22Z"/>
  </g>
</svg>