<?xml version="1.0" encoding="utf-8"?>
<svg xmlns="http://www.w3.org/2000/svg" viewBox="48.917 127.89 100 200" width="100px" height="200px">
  <path d="M 73.917 309.14 L 48.917 327.89 L 48.917 227.89 C 48.917 200.276 71.303 177.89 98.917 177.89 C 126.531 177.89 148.917 200.276 148.917 227.89 C 148.917 255.504 126.531 277.89 98.917 277.89 C 89.81 277.89 81.271 275.455 73.917 271.201 L 73.917 309.14 Z M 148.917 127.89 L 148.917 194.712 C 138.168 178.545 119.787 167.89 98.917 167.89 C 97.754 167.89 96.599 167.923 95.453 167.988 L 148.917 127.89 Z M 98.917 202.89 C 85.11 202.89 73.917 214.083 73.917 227.89 C 73.917 241.697 85.11 252.89 98.917 252.89 C 112.724 252.89 123.917 241.697 123.917 227.89 C 123.917 214.083 112.724 202.89 98.917 202.89 Z" style=""/>
</svg>