<?xml version="1.0" encoding="utf-8"?>
<svg xmlns="http://www.w3.org/2000/svg" viewBox="0 0 200 200">
  <g>
    <path d="M 100 75 L 100 0 L 125 0 L 125 100 L 150 100 L 150 0 L 175 0 L 175 100 L 200 100 L 200 25 L 100 25 L 100 50 L 200 50 L 200 75 L 100 75 Z" style=""/>
    <path d="M 116.667 100 L 116.667 200 L 133.334 200 L 133.334 100 L 150 100 L 150 200 L 166.667 200 L 166.667 100 L 183.334 100 L 183.334 200 L 200 200 L 200 100 L 116.667 100 Z" style=""/>
    <rect x="33.335" y="33.333" width="33.335" height="33.333" id="a" style=""/>
    <path d="M 0 150 L 100 150 L 100 100 L 50 100 L 50 200 L 0 200 L 0 150 Z" style=""/>
  </g>
</svg>