<?xml version="1.0" encoding="utf-8"?>
<svg xmlns="http://www.w3.org/2000/svg" width="586" height="586" overflow="hidden">
  <defs>
    <clipPath id="a">
      <path d="M-4526-2762h586v586h-586z"/>
    </clipPath>
      <feColorMatrix type="saturate" values="0"/>
      <feComponentTransfer>
        <feFuncR type="discrete" tableValues="0 0 0 0 0 0 0 0 0 0 0 0 0 0 0 0 0 0 0 0 0 0 0 0 0 0 0 0 0 0 0 0 0 0 0 0 0 0 0 0 0 0 0 0 0 0 0 0 0 0 0 0 0 0 0 0 0 0 0 0 0 0 0 0 0 0 0 0 0 0 0 0 0 0 0 0 0 0 0 0 0 0 0 0 0 0 0 0 0 0 0 0 0 0 0 0 0 0 0 0 0 0 0 0 0 0 0 0 0 0 0 0 0 0 0 0 0 0 0 0 0 0 0 0 0 1 1 1 1 1 1 1 1 1 1 1 1 1 1 1 1 1 1 1 1 1 1 1 1 1 1 1 1 1 1 1 1 1 1 1 1 1 1 1 1 1 1 1 1 1 1 1 1 1 1 1 1 1 1 1 1 1 1 1 1 1 1 1 1 1 1 1 1 1 1 1 1 1 1 1 1 1 1 1 1 1 1 1 1 1 1 1 1 1 1 1 1 1 1 1 1 1 1 1 1 1 1 1 1 1 1 1 1 1 1 1 1 1 1 1 1 1 1 1 1 1 1 1 1 1 1 1 1 1 1 "/>
        <feFuncG type="discrete" tableValues="0 0 0 0 0 0 0 0 0 0 0 0 0 0 0 0 0 0 0 0 0 0 0 0 0 0 0 0 0 0 0 0 0 0 0 0 0 0 0 0 0 0 0 0 0 0 0 0 0 0 0 0 0 0 0 0 0 0 0 0 0 0 0 0 0 0 0 0 0 0 0 0 0 0 0 0 0 0 0 0 0 0 0 0 0 0 0 0 0 0 0 0 0 0 0 0 0 0 0 0 0 0 0 0 0 0 0 0 0 0 0 0 0 0 0 0 0 0 0 0 0 0 0 0 0 1 1 1 1 1 1 1 1 1 1 1 1 1 1 1 1 1 1 1 1 1 1 1 1 1 1 1 1 1 1 1 1 1 1 1 1 1 1 1 1 1 1 1 1 1 1 1 1 1 1 1 1 1 1 1 1 1 1 1 1 1 1 1 1 1 1 1 1 1 1 1 1 1 1 1 1 1 1 1 1 1 1 1 1 1 1 1 1 1 1 1 1 1 1 1 1 1 1 1 1 1 1 1 1 1 1 1 1 1 1 1 1 1 1 1 1 1 1 1 1 1 1 1 1 1 1 1 1 1 1 "/>
        <feFuncB type="discrete" tableValues="0 0 0 0 0 0 0 0 0 0 0 0 0 0 0 0 0 0 0 0 0 0 0 0 0 0 0 0 0 0 0 0 0 0 0 0 0 0 0 0 0 0 0 0 0 0 0 0 0 0 0 0 0 0 0 0 0 0 0 0 0 0 0 0 0 0 0 0 0 0 0 0 0 0 0 0 0 0 0 0 0 0 0 0 0 0 0 0 0 0 0 0 0 0 0 0 0 0 0 0 0 0 0 0 0 0 0 0 0 0 0 0 0 0 0 0 0 0 0 0 0 0 0 0 0 1 1 1 1 1 1 1 1 1 1 1 1 1 1 1 1 1 1 1 1 1 1 1 1 1 1 1 1 1 1 1 1 1 1 1 1 1 1 1 1 1 1 1 1 1 1 1 1 1 1 1 1 1 1 1 1 1 1 1 1 1 1 1 1 1 1 1 1 1 1 1 1 1 1 1 1 1 1 1 1 1 1 1 1 1 1 1 1 1 1 1 1 1 1 1 1 1 1 1 1 1 1 1 1 1 1 1 1 1 1 1 1 1 1 1 1 1 1 1 1 1 1 1 1 1 1 1 1 1 1 "/>
      </feComponentTransfer>
  </defs>
  <g fill-rule="evenodd" clip-path="url(#a)" transform="translate(4526 2762)">
    <path fill="#000000" d="M -3971.43 -2453.24 L -4006.23 -2453.24 C -4006.23 -2448.3 -4006.91 -2442.69 -4007.58 -2437.87 L -4068.88 -2468.5 L -4006.91 -2494.98 C -4006.23 -2490.83 -4006.23 -2487.35 -4006.23 -2483.87 L -3971.43 -2483.87 C -3979.18 -2620.98 -4093.35 -2730.37 -4232.78 -2730.37 C -4372.88 -2730.37 -4487.16 -2621.09 -4494.79 -2483.87 L -4459.99 -2483.87 C -4459.99 -2487.35 -4459.32 -2490.83 -4459.32 -2494.98 L -4396.56 -2468.5 L -4458.53 -2437.87 C -4459.21 -2442.81 -4459.88 -2448.42 -4459.88 -2453.24 L -4494.68 -2453.24 C -4487.05 -2315.35 -4372.76 -2205.96 -4232.66 -2205.96 C -4093.35 -2205.96 -3979.07 -2315.24 -3971.43 -2453.24 Z M -3940 -2468.5 C -3940 -2306.93 -4071.01 -2176 -4232.66 -2176 C -4394.32 -2176 -4526 -2306.93 -4526 -2468.5 C -4526 -2630.07 -4394.32 -2761 -4232.66 -2761 C -4071.01 -2761 -3940 -2630.07 -3940 -2468.5 Z M -4071.5 -2439 L -4013 -2409.01 C -4039.5 -2312.09 -4127.97 -2241 -4232.5 -2241 C -4337.7 -2241 -4426.18 -2312.09 -4452 -2409.01 L -4393.5 -2439 C -4379.58 -2362.97 -4313.34 -2305.13 -4232.5 -2305.13 C -4152.33 -2305.13 -4085.53 -2362.97 -4071.5 -2439 Z M -4394.48 -2497 L -4453 -2527.04 C -4427.16 -2624.12 -4338.53 -2696 -4232.61 -2696 C -4127.35 -2696 -4038.84 -2624.12 -4013 -2527.04 L -4071.52 -2497 C -4085.45 -2573.83 -4152.4 -2632.44 -4232.61 -2632.44 C -4313.49 -2632.44 -4380.43 -2573.72 -4394.48 -2497 Z M -4224.55 -2363.99 L -4144.52 -2538.72 L -4182.12 -2538.72 L -4226.01 -2447.54 L -4272.03 -2538.72 L -4310.98 -2538.72 Z M -4104 -2467.06 C -4104 -2397.41 -4160.46 -2341 -4230.16 -2341 C -4299.87 -2341 -4357 -2397.41 -4357 -2467.06 C -4357 -2536.59 -4299.87 -2593 -4230.16 -2593 C -4160.46 -2593 -4104 -2536.59 -4104 -2467.06 Z" style="filter: url(&quot;#black-and-white-filter-0&quot;);"/>
  </g>
</svg>