<?xml version="1.0" encoding="UTF-8"?>
<svg id="Layer_2" data-name="Layer 2" xmlns="http://www.w3.org/2000/svg" viewBox="0 0 300 293.67">
  <defs>
    <style>
      .cls-1 {
        fill-rule: evenodd;
      }
    </style>
  </defs>
  <g id="Layer_1-2" data-name="Layer 1">
    <g id="Layer_2-2" data-name="Layer 2">
      <g id="Layer_1-2" data-name="Layer 1-2">
        <path class="cls-1" d="m150.7,0C67.55-.08.08,67.25,0,150.39c-.07,64.92,41.49,122.57,103.1,143.03,7.58,1.39,10.26-3.33,10.26-7.3v-25.6c-42.05,9.15-50.92-20.24-50.92-20.24-2.79-9.11-8.72-16.93-16.73-22.09-13.59-9.24,1.11-9.24,1.11-9.24,9.65,1.36,18.14,7.09,23.01,15.53,8.58,15.55,28.14,21.21,43.69,12.63.04-.02.07-.04.11-.06.58-7.6,3.86-14.75,9.24-20.15-33.45-3.79-68.57-16.73-68.57-73.93-.23-14.94,5.3-29.4,15.43-40.39-4.51-12.99-3.99-27.21,1.48-39.83,0,0,12.66-4.07,41.4,15.43,24.68-6.78,50.73-6.78,75.41,0,28.74-19.5,41.31-15.43,41.31-15.43,5.54,12.49,6.2,26.6,1.85,39.55,10.14,10.98,15.66,25.44,15.43,40.39,0,57.85-35.21,70.51-68.76,73.93,7.28,7.32,11.02,17.43,10.26,27.72v41.31c0,4.9,2.68,8.69,10.35,7.21,78.6-27.1,120.36-112.79,93.26-191.39C270.96,41.2,214.46.54,150.7,0Z"/>
      </g>
    </g>
  </g>
</svg>