<?xml version="1.0" encoding="UTF-8"?>
<svg id="Layer_2" data-name="Layer 2" xmlns="http://www.w3.org/2000/svg" xmlns:xlink="http://www.w3.org/1999/xlink" viewBox="0 0 235.01 234.99">
  <defs>
    <style>
      .cls-1 {
        fill: #fff;
      }

      .cls-2 {
        mask: url(#mask);
      }

      .cls-3 {
        filter: url(#luminosity-invert-noclip);
      }
    </style>
    <filter id="luminosity-invert-noclip" x="0" y="0" width="235.01" height="234.99" color-interpolation-filters="sRGB" filterUnits="userSpaceOnUse">
      <feColorMatrix result="cm" values="-1 0 0 0 1 0 -1 0 0 1 0 0 -1 0 1 0 0 0 1 0"/>
      <feFlood flood-color="#fff" result="bg"/>
      <feBlend in="cm" in2="bg"/>
    </filter>
    <mask id="mask" x="0" y="0" width="235.01" height="234.99" maskUnits="userSpaceOnUse">
      <g class="cls-3">
        <g>
          <path class="cls-1" d="m79.89,179.16c-21.94,0-35.57-11.13-43.2-20.64-8.99-11.2-14.43-26.12-14.94-40.94v-.2s0-.2,0-.2c.29-28.56,24-59.62,58.82-60.33h.22s.22,0,.22,0c24.79.71,44.23,8.83,58.5,46.14,1.3,3.4,2.5,6.61,3.65,9.7,3.51,9.39,6.54,17.51,10.71,26.44,6.92,14.31,15.32,21.51,25.65,22.01,4.7-.01,11.79-1.75,16.57-6.61,3.45-3.51,5.06-8.01,4.94-13.76-.34-8.03-7.22-13.59-22.3-18.02-10.01-2.54-28.39-7.32-32.58-32.57l-.07-.5c-.84-7.74,2.02-16.14,7.65-22.48,5.84-6.58,14.13-10.25,23.35-10.34h.2s1.43.04,1.43.04c6.75.21,14.4.45,21.78,7.41l-12.35,13.09c-2.3-2.17-4.23-2.33-9.99-2.51l-1.06-.03c-4.11.08-7.44,1.52-9.9,4.3-2.47,2.79-3.4,6.17-3.23,8.38,2.18,12.59,8.78,15.13,19.35,17.81l.32.09c8.53,2.49,34.47,10.07,35.4,34.73v.13c.25,10.6-3.24,19.88-10.09,26.86-8.76,8.91-21.04,12-29.66,11.99h-.32c-17.42-.73-31.32-11.57-41.3-32.23l-.05-.1c-4.49-9.6-7.65-18.05-11.3-27.82-1.14-3.05-2.32-6.22-3.6-9.57-10.87-28.4-22.68-33.97-41.98-34.57-26.35.67-40.68,24.9-40.97,42.32.68,17.3,12.17,43.99,40.25,43.99.5,0,1.01,0,1.52-.03h.25c12.3-.08,21.18-3.5,27.16-10.45l13.64,11.74c-9.42,10.95-23.07,16.57-40.57,16.7-.71.02-1.41.03-2.1.03Z"/>
          <path id="path26102" class="cls-1" d="m199.62,63.54c2.94,2.4,4.18,4.95,8.33,10.48l-14.27,10.86c-1.57-2.78-2.7-5.25-5.93-7.7l11.87-13.64h0Z"/>
          <path id="path26104" class="cls-1" d="m121.72,163.34c2.32-2.81,4.26-5.71,5.62-8.75l-9.29-16.7c-2.58,4.94-6.06,9.34-9.82,13.57l13.48,11.88Z"/>
        </g>
      </g>
    </mask>
  </defs>
  <g id="Layer_1-2" data-name="Layer 1">
    <g class="cls-2">
      <path id="rect1942" d="m35.49,0h164.03c19.59,0,35.49,15.9,35.49,35.49v164.01c0,19.59-15.9,35.49-35.49,35.49H35.49c-19.59,0-35.49-15.9-35.49-35.49V35.49C0,15.9,15.9,0,35.49,0Z"/>
    </g>
  </g>
</svg>