<?xml version="1.0" encoding="UTF-8"?>
<svg id="Layer_2" data-name="Layer 2" xmlns="http://www.w3.org/2000/svg" viewBox="0 0 300 306.25">
  <g id="Layer_1-2" data-name="Layer 1">
    <path d="m237.5,0H62.5C27.99,0,0,28.57,0,63.8v178.65c0,35.23,27.99,63.8,62.5,63.8h175c34.53,0,62.5-28.57,62.5-63.8V63.8c0-35.23-27.97-63.8-62.5-63.8ZM100,242.45h-37.5V102.08h37.5v140.36Zm-18.75-156.54c-12.08,0-21.88-10.08-21.88-22.51s9.8-22.51,21.88-22.51,21.88,10.08,21.88,22.51-9.79,22.51-21.88,22.51Zm168.75,156.54h-37.5v-71.51c0-42.98-50-39.72-50,0v71.51h-37.5V102.08h37.5v22.52c17.45-33,87.5-35.44,87.5,31.59v86.25Z"/>
  </g>
</svg>
