<?xml version="1.0" encoding="UTF-8"?>
<svg id="Layer_2" data-name="Layer 2" xmlns="http://www.w3.org/2000/svg" viewBox="0 0 150 150">
  <defs>
    <style>
      .cls-1 {
        stroke-width: 0px;
      }
    </style>
  </defs>
  <g id="Layer_1-2" data-name="Layer 1">
    <path class="cls-1" d="M75,0C33.58,0,0,33.58,0,75s33.58,75,75,75,75-33.58,75-75S116.42,0,75,0c0,0,0,0,0,0ZM109.39,108.17c-1.34,2.2-4.23,2.9-6.43,1.55-17.61-10.76-39.78-13.19-65.88-7.23-2.52.57-5.02-1-5.6-3.52-.58-2.52.99-5.02,3.52-5.6,28.57-6.53,53.08-3.72,72.84,8.37,2.2,1.35,2.9,4.23,1.55,6.43ZM118.57,87.75c-1.69,2.75-5.29,3.62-8.04,1.93-20.16-12.39-50.89-15.98-74.74-8.74-3.09.93-6.36-.81-7.3-3.9-.93-3.09.81-6.35,3.9-7.29,27.24-8.26,61.1-4.26,84.25,9.97,2.75,1.69,3.62,5.29,1.93,8.04h0ZM119.36,66.48c-24.17-14.36-64.05-15.68-87.13-8.67-3.71,1.12-7.63-.97-8.75-4.67-1.12-3.71.97-7.62,4.68-8.75,26.49-8.04,70.53-6.49,98.36,10.03,3.34,1.98,4.43,6.28,2.45,9.61-1.97,3.33-6.29,4.43-9.61,2.45h0Z"/>
  </g>
</svg>