<?xml version="1.0" encoding="UTF-8"?>
<svg id="Layer_2" data-name="Layer 2" xmlns="http://www.w3.org/2000/svg" xmlns:xlink="http://www.w3.org/1999/xlink" viewBox="0 0 300 209.66">
  <defs>
    <style>
      .cls-1 {
        fill: #fff;
      }

      .cls-2 {
        mask: url(#mask);
      }

      .cls-3 {
        filter: url(#luminosity-invert-noclip);
      }
    </style>
    <filter id="luminosity-invert-noclip" x="0" y="0" width="300" height="209.66" color-interpolation-filters="sRGB" filterUnits="userSpaceOnUse">
      <feColorMatrix result="cm" values="-1 0 0 0 1 0 -1 0 0 1 0 0 -1 0 1 0 0 0 1 0"/>
      <feFlood flood-color="#fff" result="bg"/>
      <feBlend in="cm" in2="bg"/>
    </filter>
    <mask id="mask" x="0" y="0" width="300" height="209.66" maskUnits="userSpaceOnUse">
      <g class="cls-3">
        <path class="cls-1" d="m199.25,104.79l-78.35-44.93v89.87l78.35-44.93Z"/>
      </g>
    </mask>
  </defs>
  <g id="Layer_1-2" data-name="Layer 1">
    <g class="cls-2">
      <path d="m293.34,32.78c-3.49-12.92-13.58-23.04-26.5-26.5C249.48-.42,81.35-3.7,32.58,6.48c-12.92,3.49-23.04,13.58-26.5,26.5-7.83,34.37-8.43,108.69.19,143.83,3.49,12.92,13.58,23.04,26.5,26.5,34.37,7.91,197.78,9.03,234.27,0,12.92-3.49,23.04-13.58,26.5-26.5,8.35-37.44,8.95-107.15-.19-144.02Z"/>
    </g>
  </g>
</svg>
