<?xml version="1.0" encoding="UTF-8"?>
<svg id="Layer_2" data-name="Layer 2" xmlns="http://www.w3.org/2000/svg" viewBox="0 0 150 150">
  <defs>
    <style>
      .cls-1 {
        stroke-width: 0px;
      }
    </style>
  </defs>
  <g id="Layer_1-2" data-name="Layer 1">
    <path class="cls-1" d="M75,120.55c-25.15,0-45.55-20.4-45.55-45.55s20.39-45.55,45.55-45.55,45.55,20.4,45.55,45.55-20.39,45.55-45.55,45.55h0ZM75,0C33.58,0,0,33.58,0,75s33.58,75,75,75,75-33.58,75-75S116.42,0,75,0h0Z"/>
    <path class="cls-1" d="M60.51,97.16v-44.32l38.35,22.16-38.35,22.16h0ZM75,35.51c-21.78,0-39.49,17.72-39.49,39.49s17.72,39.49,39.49,39.49,39.49-17.72,39.49-39.49-17.72-39.49-39.49-39.49h0Z"/>
  </g>
</svg>