<?xml version="1.0" encoding="UTF-8"?>
<svg id="Layer_2" data-name="Layer 2" xmlns="http://www.w3.org/2000/svg" viewBox="0 0 300 227.37">
  <g id="Layer_1-2" data-name="Layer 1">
    <g id="_图层_2" data-name="图层 2">
      <g id="Discord_Logos" data-name="Discord Logos">
        <g id="Discord_Logo_-_Large_-_White" data-name="Discord Logo - Large - White">
          <path d="m254.13,19.04c-19.71-9.02-40.52-15.43-61.89-19.04-2.92,5.23-5.57,10.61-7.93,16.12-22.77-3.43-45.92-3.43-68.69,0-2.36-5.51-5-10.89-7.93-16.12-21.39,3.65-42.21,10.06-61.94,19.09C6.58,77.04-4.04,133.55,1.27,189.26h0c22.94,16.95,48.61,29.84,75.91,38.11,6.15-8.27,11.58-17.04,16.26-26.22-8.88-3.32-17.44-7.41-25.6-12.22,2.15-1.56,4.25-3.16,6.28-4.72,48.06,22.6,103.7,22.6,151.77,0,2.05,1.68,4.15,3.28,6.28,4.72-8.17,4.83-16.76,8.92-25.65,12.25,4.67,9.18,10.11,17.94,16.26,26.19,27.32-8.24,53.01-21.12,75.96-38.08h0c6.23-64.61-10.64-120.6-44.6-170.25ZM100.16,155c-14.79,0-27.02-13.43-27.02-29.94s11.8-30.06,26.97-30.06,27.3,13.54,27.04,30.06c-.26,16.52-11.92,29.94-26.99,29.94Zm99.67,0c-14.82,0-26.99-13.43-26.99-29.94s11.8-30.06,26.99-30.06,27.23,13.54,26.97,30.06c-.26,16.52-11.89,29.94-26.97,29.94Z"/>
        </g>
      </g>
    </g>
  </g>
</svg>