<?xml version="1.0" encoding="UTF-8"?>
<svg id="Layer_2" data-name="Layer 2" xmlns="http://www.w3.org/2000/svg" viewBox="0 0 235.01 234.99">
  <defs>
    <style>
      .cls-1 {
        fill: #fff;
      }

      .cls-2 {
        fill: none;
        stroke: #fff;
        stroke-width: 18px;
      }
    </style>
  </defs>
  <g id="Layer_1-2" data-name="Layer 1">
    <g id="layer1">
      <path id="rect1942" d="m35.49,0h164.03c19.59,0,35.49,15.9,35.49,35.49v164.01c0,19.59-15.9,35.49-35.49,35.49H35.49c-19.59,0-35.49-15.9-35.49-35.49V35.49C0,15.9,15.9,0,35.49,0Z"/>
      <path id="path26100" class="cls-2" d="m115.74,156.56c-8.26,9.6-19.96,13.48-33.93,13.57-34.32,1.16-50.27-29.51-51.07-52.86.23-22.77,19.15-50.8,50-51.43,22.06.64,37.72,7.34,50.36,40.36,5.28,13.82,8.9,24.51,14.64,36.79,9.76,20.2,22.02,26.67,33.57,27.14,12.35.07,31.22-7.92,30.71-29.64-.64-17.09-18.79-23.47-28.93-26.43-12.01-3.04-23.06-7.17-26.07-25.36-1-9.21,6.49-22.7,22.14-22.86,6.74.23,11.92.07,17.14,5"/>
      <path id="path26102" class="cls-1" d="m199.62,63.54c2.94,2.4,4.18,4.95,8.33,10.48l-14.27,10.86c-1.57-2.78-2.7-5.25-5.93-7.7l11.87-13.64h0Z"/>
      <path id="path26104" class="cls-1" d="m121.72,163.34c2.32-2.81,4.26-5.71,5.62-8.75l-9.29-16.7c-2.58,4.94-6.06,9.34-9.82,13.57l13.48,11.88Z"/>
    </g>
  </g>
</svg>