<?xml version="1.0" encoding="UTF-8"?>
<svg id="Layer_2" data-name="Layer 2" xmlns="http://www.w3.org/2000/svg" viewBox="0 0 300 300">
  <defs>
    <style>
      .cls-1 {
        fill: #fff;
      }
    </style>
  </defs>
  <g id="Layer_1-2" data-name="Layer 1">
    <g id="Artwork">
      <g>
        <circle cx="150" cy="150" r="150"/>
        <path class="cls-1" d="m250,150c0-12.11-9.82-21.93-21.93-21.93-5.96,0-11.23,2.28-15.09,6.14-14.91-10.7-35.61-17.72-58.42-18.6l10-46.84,32.46,6.84c.35,8.25,7.19,14.91,15.61,14.91s15.61-7.02,15.61-15.61-7.02-15.61-15.61-15.61c-6.14,0-11.4,3.51-13.86,8.77l-36.32-7.72c-1.05-.18-2.11,0-2.98.53s-1.4,1.4-1.76,2.46l-11.05,52.28c-23.33.7-44.21,7.54-59.3,18.6-3.86-3.68-9.3-6.14-15.09-6.14-12.11,0-21.93,9.82-21.93,21.93,0,8.95,5.26,16.49,12.98,20-.35,2.11-.53,4.39-.53,6.67,0,33.68,39.12,60.88,87.54,60.88s87.54-27.19,87.54-60.88c0-2.28-.17-4.39-.53-6.49,7.19-3.51,12.63-11.23,12.63-20.17Zm-150,15.61c0-8.6,7.02-15.61,15.61-15.61s15.61,7.02,15.61,15.61-7.02,15.61-15.61,15.61-15.61-7.02-15.61-15.61Zm87.19,41.23c-10.7,10.7-31.05,11.4-37.02,11.4s-26.49-.88-37.02-11.4c-1.58-1.58-1.58-4.21,0-5.79,1.58-1.58,4.21-1.58,5.79,0,6.67,6.67,21.05,9.12,31.4,9.12s24.56-2.46,31.4-9.12c1.58-1.58,4.21-1.58,5.79,0,1.23,1.75,1.23,4.21-.35,5.79Zm-2.81-25.61c-8.6,0-15.61-7.02-15.61-15.61s7.02-15.61,15.61-15.61,15.61,7.02,15.61,15.61-7.02,15.61-15.61,15.61Z"/>
      </g>
    </g>
  </g>
</svg>