<?xml version="1.0" encoding="UTF-8"?>
<svg id="Layer_2" data-name="Layer 2" xmlns="http://www.w3.org/2000/svg" viewBox="0 0 300 299.99">
  <g id="Layer_1-2" data-name="Layer 1">
    <g>
      <path d="m149.99,27.03c40.05,0,44.79.15,60.61.88,14.62.67,22.57,3.11,27.85,5.16,7,2.72,12,5.97,17.25,11.22,5.25,5.25,8.5,10.25,11.22,17.25,2.05,5.29,4.5,13.23,5.16,27.85.72,15.81.88,20.56.88,60.61s-.15,44.79-.88,60.61c-.67,14.62-3.11,22.57-5.16,27.85-2.72,7-5.97,12-11.22,17.25-5.25,5.25-10.25,8.5-17.25,11.22-5.29,2.05-13.23,4.5-27.85,5.16-15.81.72-20.56.88-60.61.88s-44.8-.15-60.61-.88c-14.62-.67-22.57-3.11-27.85-5.16-7-2.72-12-5.97-17.25-11.22-5.25-5.25-8.5-10.25-11.22-17.25-2.05-5.29-4.5-13.23-5.16-27.85-.72-15.81-.88-20.56-.88-60.61s.15-44.79.88-60.61c.67-14.62,3.11-22.57,5.16-27.85,2.72-7,5.97-12,11.22-17.25,5.25-5.25,10.25-8.5,17.25-11.22,5.29-2.05,13.23-4.5,27.85-5.16,15.82-.72,20.56-.88,60.61-.88m0-27.03c-40.74,0-45.85.17-61.84.91-15.96.73-26.87,3.26-36.41,6.97-9.87,3.83-18.23,8.96-26.57,17.3-8.34,8.34-13.47,16.7-17.3,26.56-3.71,9.54-6.25,20.45-6.97,36.41-.73,16-.9,21.11-.9,61.84s.17,45.85.91,61.84c.73,15.96,3.26,26.87,6.97,36.41,3.83,9.87,8.96,18.23,17.3,26.57,8.34,8.34,16.7,13.47,26.57,17.3,9.54,3.71,20.45,6.25,36.41,6.97,16,.73,21.11.91,61.84.91s45.85-.17,61.84-.91c15.96-.73,26.87-3.26,36.41-6.97,9.87-3.83,18.23-8.96,26.57-17.3,8.34-8.34,13.47-16.7,17.3-26.57,3.71-9.54,6.25-20.45,6.97-36.41.73-16,.91-21.11.91-61.84s-.17-45.85-.91-61.84c-.73-15.96-3.26-26.87-6.97-36.41-3.83-9.87-8.96-18.23-17.3-26.57-8.34-8.34-16.7-13.47-26.57-17.3-9.54-3.71-20.45-6.25-36.41-6.97-16-.73-21.11-.9-61.85-.9h0Z"/>
      <path d="m149.99,72.97c-42.54,0-77.02,34.49-77.02,77.02s34.48,77.02,77.02,77.02,77.02-34.48,77.02-77.02-34.48-77.02-77.02-77.02Zm0,127.02c-27.61,0-50-22.39-50-50s22.39-50,50-50,50,22.39,50,50-22.38,50-50,50Z"/>
      <circle cx="230.06" cy="69.92" r="18"/>
    </g>
  </g>
</svg>