<?xml version="1.0" encoding="UTF-8"?>
<svg id="Layer_2" data-name="Layer 2" xmlns="http://www.w3.org/2000/svg" xmlns:xlink="http://www.w3.org/1999/xlink" viewBox="0 0 299.87 300.19">
  <defs>
    <style>
      .cls-1 {
        fill: #fff;
      }

      .cls-2 {
        mask: url(#mask);
      }

      .cls-3 {
        filter: url(#luminosity-invert-noclip);
      }
    </style>
    <filter id="luminosity-invert-noclip" x="-.13" y="0" width="300" height="300.19" color-interpolation-filters="sRGB" filterUnits="userSpaceOnUse">
      <feColorMatrix result="cm" values="-1 0 0 0 1 0 -1 0 0 1 0 0 -1 0 1 0 0 0 1 0"/>
      <feFlood flood-color="#fff" result="bg"/>
      <feBlend in="cm" in2="bg"/>
    </filter>
    <mask id="mask" x="-.13" y="0" width="300" height="300.19" maskUnits="userSpaceOnUse">
      <g class="cls-3">
        <path class="cls-1" d="m141.99,112.5c0-31.49,25.58-57.1,57.01-57.1,31.5.07,57.01,25.61,57.01,57.1s-25.56,57.13-57.01,57.13l-1.29-.02-52.5,37.55c.15,5.88-.94,11.72-3.21,17.15-8.85,21.21-33.2,31.25-54.42,22.43-12.96-5.39-21.77-16.61-24.59-29.41l-57.02-23.53C-1.8,170.92.07,140.21.07,140.21l80.65,33.24c2.2-1.49,4.56-2.75,7.03-3.75,5.67-2.33,11.63-3.38,17.58-3.11l36.73-53.35v-.74h-.06Zm-8.81,108.12c3.29-7.91,3.31-16.67.05-24.61s-9.36-14.15-17.34-17.45c-7.87-3.27-16.29-3.18-23.69-.36l19.23,7.95c12.06,5.04,17.76,18.9,12.73,30.96,0,0,0,0,0,.01-5.02,12.05-18.86,17.76-30.91,12.74l-18.56-7.69c3.39,7.11,9.27,12.72,16.53,15.77,16.36,6.82,35.17-.91,41.99-17.33m65.84-70.05c20.99-.05,37.98-17.07,37.99-38.05-.02-20.98-17.01-37.99-37.99-38.04-20.98.06-37.96,17.07-37.98,38.04.02,20.98,17,38,37.98,38.05m-28.47-38.12c0,15.77,12.76,28.56,28.52,28.58,15.77-.02,28.54-12.81,28.54-28.58,0-15.78-12.8-28.59-28.54-28.59-15.77.03-28.53,12.82-28.52,28.59h0Z"/>
      </g>
    </mask>
  </defs>
  <g id="Layer_1-2" data-name="Layer 1">
    <g id="B">
      <g class="cls-2">
        <path d="m5.99,193.26c18.55,61.84,75.91,106.93,143.78,106.93,82.9,0,150.1-67.2,150.1-150.1S232.67,0,149.77,0,5.14,61.88,0,140.12c9.73,16.31,13.5,26.4,5.98,53.13h0Z"/>
      </g>
    </g>
  </g>
</svg>