<?xml version="1.0" encoding="UTF-8"?>
<svg id="Layer_2" data-name="Layer 2" xmlns="http://www.w3.org/2000/svg" viewBox="0 0 300 243.77">
  <g id="Layer_1-2" data-name="Layer 1">
    <g id="Logo">
      <path id="white_background" data-name="white background" d="m269.29,60.69c.18,2.64.18,5.29.18,7.96,0,81.33-61.91,175.12-175.12,175.12v-.05c-33.44.05-66.19-9.53-94.34-27.59,4.86.59,9.75.88,14.65.89,27.71.02,54.64-9.27,76.44-26.4-26.34-.5-49.43-17.67-57.5-42.74,9.23,1.78,18.73,1.41,27.79-1.06-28.71-5.8-49.37-31.03-49.37-60.33v-.78c8.56,4.77,18.14,7.41,27.93,7.7C12.89,75.34,4.56,39.36,20.89,11.23c31.25,38.45,77.36,61.83,126.85,64.3-4.96-21.38,1.82-43.78,17.81-58.81,24.79-23.3,63.78-22.11,87.08,2.67,13.78-2.72,27-7.78,39.09-14.94-4.59,14.25-14.21,26.35-27.06,34.04,12.2-1.44,24.12-4.7,35.34-9.69-8.26,12.38-18.67,23.17-30.71,31.88Z"/>
    </g>
  </g>
</svg>